SplineFontDB: 3.0
FontName: MesloLGM-Regular
FullName: Meslo LG M Regular
FamilyName: Meslo LG M
Weight: Book
Copyright: Copyright (c) 2009 Apple Inc. Copyright (c)  2006 by Tavmjong Bah. Copyright (c) 2003 by Bitstream, Inc. All Rights Reserved.
Version: 1.210
ItalicAngle: 0
UnderlinePosition: -175
UnderlineWidth: 90
Ascent: 1556
Descent: 492
InvalidEm: 0
sfntRevision: 0x0002072b
LayerCount: 2
Layer: 0 1 "Back" 1
Layer: 1 1 "Fore" 0
XUID: [1021 443 -1274138458 9106919]
StyleMap: 0x0040
FSType: 0
OS2Version: 3
OS2_WeightWidthSlopeOnly: 0
OS2_UseTypoMetrics: 0
CreationTime: 1229875379
ModificationTime: 1468324957
PfmFamily: 17
TTFWeight: 400
TTFWidth: 5
LineGap: 0
VLineGap: 0
Panose: 2 11 6 9 3 8 4 2 2 4
OS2TypoAscent: 1556
OS2TypoAOffset: 0
OS2TypoDescent: -492
OS2TypoDOffset: 0
OS2TypoLinegap: 810
OS2WinAscent: 2101
OS2WinAOffset: 0
OS2WinDescent: 683
OS2WinDOffset: 0
HheadAscent: 2101
HheadAOffset: 0
HheadDescent: -683
HheadDOffset: 0
OS2SubXSize: 1331
OS2SubYSize: 1433
OS2SubXOff: 0
OS2SubYOff: 286
OS2SupXSize: 1331
OS2SupYSize: 1433
OS2SupXOff: 0
OS2SupYOff: 983
OS2StrikeYSize: 102
OS2StrikeYPos: 530
OS2CapHeight: 1493
OS2XHeight: 1120
OS2Vendor: 'PfEd'
OS2CodePages: 600001df.ffdf0000
OS2UnicodeRanges: e60022ff.d200f9fb.02000028.00000000
Lookup: 1 0 0 "'rtla' Right to Left Alternates lookup 0" { "'rtla' Right to Left Alternates lookup 0 subtable"  } ['rtla' ('DFLT' <'dflt' > ) ]
Lookup: 4 0 0 "<27,0> Canonical Decomposition lookup 1" { "<27,0> Canonical Decomposition lookup 1 subtable"  } [<27,0> ('grek' <'dflt' > 'latn' <'dflt' > ) ]
Lookup: 4 0 0 "<27,0> Canonical Decomposition lookup 2" { "<27,0> Canonical Decomposition lookup 2 subtable"  } [<27,0> ('DFLT' <'dflt' > 'cyrl' <'dflt' > 'grek' <'dflt' > 'latn' <'dflt' > ) ]
Lookup: 4 0 0 "<27,0> Canonical Decomposition lookup 3" { "<27,0> Canonical Decomposition lookup 3 subtable"  } [<27,0> ('grek' <'dflt' > 'latn' <'dflt' > ) ]

StartChar: .notdef
Encoding: 65536 -1 0
Width: 1233
Flags: W
LayerCount: 2
Fore
SplineSet
104 -362 m 1,0,-1
 104 1444 l 1,1,-1
 1128 1444 l 1,2,-1
 1128 -362 l 1,3,-1
 104 -362 l 1,0,-1
219 -248 m 1,4,-1
 1014 -248 l 1,5,-1
 1014 1329 l 1,6,-1
 219 1329 l 1,7,-1
 219 -248 l 1,4,-1
EndSplineSet
EndChar

StartChar: exclam
Encoding: 33 33 4
Width: 1233
Flags: W
LayerCount: 2
Fore
SplineSet
546 1493 m 1,0,-1
 749 1493 l 1,1,-1
 749 838 l 1,2,-1
 728 531 l 1,3,-1
 567 531 l 1,4,-1
 546 838 l 1,5,-1
 546 1493 l 1,0,-1
516 254 m 1,6,-1
 779 254 l 1,7,-1
 779 0 l 1,8,-1
 516 0 l 1,9,-1
 516 254 l 1,6,-1
EndSplineSet
EndChar

StartChar: quotedbl
Encoding: 34 34 5
Width: 1233
Flags: W
LayerCount: 2
Fore
SplineSet
945 1547 m 1,0,-1
 945 935 l 1,1,-1
 721 935 l 1,2,-1
 721 1547 l 1,3,-1
 945 1547 l 1,0,-1
412 1547 m 1,4,-1
 412 935 l 1,5,-1
 188 935 l 1,6,-1
 188 1547 l 1,7,-1
 412 1547 l 1,4,-1
EndSplineSet
EndChar

StartChar: numbersign
Encoding: 35 35 6
Width: 1233
Flags: W
LayerCount: 2
Fore
SplineSet
684 1465 m 1,0,-1
 594 1111 l 1,1,-1
 839 1111 l 1,2,-1
 930 1465 l 1,3,-1
 1090 1465 l 1,4,-1
 999 1111 l 1,5,-1
 1243 1111 l 1,6,-1
 1243 958 l 1,7,-1
 962 958 l 1,8,-1
 864 565 l 1,9,-1
 1114 565 l 1,10,-1
 1114 412 l 1,11,-1
 825 412 l 1,12,-1
 721 0 l 1,13,-1
 561 0 l 1,14,-1
 666 412 l 1,15,-1
 420 412 l 1,16,-1
 315 0 l 1,17,-1
 156 0 l 1,18,-1
 260 412 l 1,19,-1
 2 412 l 1,20,-1
 2 565 l 1,21,-1
 299 565 l 1,22,-1
 397 958 l 1,23,-1
 131 958 l 1,24,-1
 131 1111 l 1,25,-1
 434 1111 l 1,26,-1
 524 1465 l 1,27,-1
 684 1465 l 1,0,-1
802 958 m 1,28,-1
 557 958 l 1,29,-1
 459 565 l 1,30,-1
 705 565 l 1,31,-1
 802 958 l 1,28,-1
EndSplineSet
EndChar

StartChar: dollar
Encoding: 36 36 7
Width: 1233
Flags: W
LayerCount: 2
Fore
SplineSet
692 580 m 1,0,-1
 692 146 l 1,1,2
 802 149 802 149 864 207 c 128,-1,3
 926 265 926 265 926 365 c 0,4,5
 926 458 926 458 870 509.5 c 128,-1,6
 814 561 814 561 692 580 c 1,0,-1
592 770 m 1,7,-1
 592 1183 l 1,8,9
 488 1179 488 1179 429.5 1123 c 128,-1,10
 371 1067 371 1067 371 973 c 0,11,12
 371 887 371 887 425.5 837 c 128,-1,13
 480 787 480 787 592 770 c 1,7,-1
692 -301 m 1,14,-1
 592 -301 l 1,15,-1
 591 0 l 1,16,17
 489 5 489 5 388.5 28 c 128,-1,18
 288 51 288 51 190 92 c 1,19,-1
 190 272 l 1,20,21
 290 210 290 210 391.5 177 c 128,-1,22
 493 144 493 144 592 142 c 1,23,-1
 592 600 l 1,24,25
 392 631 392 631 291 722 c 128,-1,26
 190 813 190 813 190 963 c 0,27,28
 190 1120 190 1120 295.5 1213.5 c 128,-1,29
 401 1307 401 1307 592 1321 c 1,30,-1
 592 1556 l 1,31,-1
 692 1556 l 1,32,-1
 693 1321 l 1,33,34
 772 1316 772 1316 853 1301 c 128,-1,35
 934 1286 934 1286 1018 1260 c 1,36,-1
 1018 1087 l 1,37,38
 933 1130 933 1130 852.5 1153.5 c 128,-1,39
 772 1177 772 1177 692 1181 c 1,40,-1
 692 750 l 1,41,42
 898 719 898 719 1006 622 c 128,-1,43
 1114 525 1114 525 1114 371 c 256,44,45
 1114 217 1114 217 997.5 114 c 128,-1,46
 881 11 881 11 693 2 c 1,47,-1
 692 -301 l 1,14,-1
EndSplineSet
EndChar

StartChar: percent
Encoding: 37 37 8
Width: 1233
Flags: W
LayerCount: 2
Fore
SplineSet
696 319 m 0,0,1
 696 241 696 241 748.5 188 c 128,-1,2
 801 135 801 135 879 135 c 0,3,4
 956 135 956 135 1009.5 188.5 c 128,-1,5
 1063 242 1063 242 1063 319 c 256,6,7
 1063 396 1063 396 1009 450 c 128,-1,8
 955 504 955 504 879 504 c 0,9,10
 801 504 801 504 748.5 451 c 128,-1,11
 696 398 696 398 696 319 c 0,0,1
561 319 m 0,12,13
 561 454 561 454 653 546.5 c 128,-1,14
 745 639 745 639 879 639 c 0,15,16
 943 639 943 639 1000.5 615 c 128,-1,17
 1058 591 1058 591 1104 545 c 0,18,19
 1150 498 1150 498 1175 440 c 128,-1,20
 1200 382 1200 382 1200 319 c 0,21,22
 1200 186 1200 186 1107 93 c 128,-1,23
 1014 0 1014 0 879 0 c 0,24,25
 743 0 743 0 652 91.5 c 128,-1,26
 561 183 561 183 561 319 c 0,12,13
83 440 m 1,27,-1
 39 553 l 1,28,-1
 1154 999 l 1,29,-1
 1204 886 l 1,30,-1
 83 440 l 1,27,-1
168 1112 m 0,31,32
 168 1033 168 1033 220.5 980.5 c 128,-1,33
 273 928 273 928 352 928 c 0,34,35
 429 928 429 928 483 981.5 c 128,-1,36
 537 1035 537 1035 537 1112 c 256,37,38
 537 1189 537 1189 483 1242.5 c 128,-1,39
 429 1296 429 1296 352 1296 c 256,40,41
 275 1296 275 1296 221.5 1243 c 128,-1,42
 168 1190 168 1190 168 1112 c 0,31,32
33 1112 m 256,43,44
 33 1247 33 1247 125 1339.5 c 128,-1,45
 217 1432 217 1432 352 1432 c 0,46,47
 416 1432 416 1432 474.5 1408 c 128,-1,48
 533 1384 533 1384 578 1339 c 256,49,50
 623 1294 623 1294 647.5 1235.5 c 128,-1,51
 672 1177 672 1177 672 1112 c 0,52,53
 672 978 672 978 579 885.5 c 128,-1,54
 486 793 486 793 352 793 c 0,55,56
 217 793 217 793 125 885 c 128,-1,57
 33 977 33 977 33 1112 c 256,43,44
EndSplineSet
EndChar

StartChar: ampersand
Encoding: 38 38 9
Width: 1233
Flags: W
LayerCount: 2
Fore
SplineSet
547 907 m 2,0,-1
 963 348 l 1,1,2
 1002 397 1002 397 1021 472 c 128,-1,3
 1040 547 1040 547 1040 651 c 0,4,5
 1040 683 1040 683 1037 753 c 1,6,-1
 1036 760 l 1,7,-1
 1200 760 l 1,8,-1
 1200 721 l 2,9,10
 1200 560 1200 560 1163 438.5 c 128,-1,11
 1126 317 1126 317 1051 229 c 1,12,-1
 1221 0 l 1,13,-1
 1008 0 l 1,14,-1
 930 109 l 1,15,16
 847 39 847 39 754 5 c 128,-1,17
 661 -29 661 -29 555 -29 c 0,18,19
 339 -29 339 -29 198 105.5 c 128,-1,20
 57 240 57 240 57 444 c 0,21,22
 57 581 57 581 126 698 c 128,-1,23
 195 815 195 815 334 915 c 1,24,25
 284 987 284 987 260 1056 c 128,-1,26
 236 1125 236 1125 236 1196 c 0,27,28
 236 1346 236 1346 335.5 1433 c 128,-1,29
 435 1520 435 1520 608 1520 c 0,30,31
 673 1520 673 1520 738.5 1508 c 128,-1,32
 804 1496 804 1496 874 1473 c 1,33,-1
 874 1290 l 1,34,35
 815 1329 815 1329 752.5 1347.5 c 128,-1,36
 690 1366 690 1366 621 1366 c 0,37,38
 524 1366 524 1366 468 1320.5 c 128,-1,39
 412 1275 412 1275 412 1198 c 0,40,41
 412 1139 412 1139 441 1074.5 c 128,-1,42
 470 1010 470 1010 547 907 c 2,0,-1
416 803 m 1,43,44
 324 730 324 730 278.5 648.5 c 128,-1,45
 233 567 233 567 233 475 c 0,46,47
 233 324 233 324 333 224.5 c 128,-1,48
 433 125 433 125 588 125 c 0,49,50
 630 125 630 125 676 137 c 128,-1,51
 722 149 722 149 766 172 c 0,52,53
 793 187 793 187 810.5 198.5 c 128,-1,54
 828 210 828 210 844 223 c 1,55,-1
 416 803 l 1,43,44
EndSplineSet
EndChar

StartChar: quotesingle
Encoding: 39 39 10
Width: 1233
Flags: W
LayerCount: 2
Fore
SplineSet
742 1558 m 1,0,-1
 742 935 l 1,1,-1
 518 935 l 1,2,-1
 518 1558 l 1,3,-1
 742 1558 l 1,0,-1
EndSplineSet
EndChar

StartChar: parenleft
Encoding: 40 40 11
Width: 1233
Flags: W
LayerCount: 2
Fore
SplineSet
855 1654 m 1,0,1
 722 1426 722 1426 656.5 1199.5 c 128,-1,2
 591 973 591 973 591 743 c 0,3,4
 591 514 591 514 656.5 287 c 128,-1,5
 722 60 722 60 855 -170 c 1,6,-1
 695 -170 l 1,7,8
 544 68 544 68 470 293.5 c 128,-1,9
 396 519 396 519 396 743 c 0,10,11
 396 966 396 966 470 1192 c 128,-1,12
 544 1418 544 1418 695 1654 c 1,13,-1
 855 1654 l 1,0,1
EndSplineSet
Substitution2: "'rtla' Right to Left Alternates lookup 0 subtable" parenright
EndChar

StartChar: parenright
Encoding: 41 41 12
Width: 1233
Flags: W
LayerCount: 2
Fore
SplineSet
348 1654 m 1,0,-1
 508 1654 l 1,1,2
 659 1418 659 1418 733 1192 c 128,-1,3
 807 966 807 966 807 743 c 0,4,5
 807 518 807 518 733 292 c 128,-1,6
 659 66 659 66 508 -170 c 1,7,-1
 348 -170 l 1,8,9
 481 62 481 62 546.5 289 c 128,-1,10
 612 516 612 516 612 743 c 0,11,12
 612 971 612 971 546.5 1198 c 128,-1,13
 481 1425 481 1425 348 1654 c 1,0,-1
EndSplineSet
Substitution2: "'rtla' Right to Left Alternates lookup 0 subtable" parenleft
EndChar

StartChar: asterisk
Encoding: 42 42 13
Width: 1233
Flags: W
LayerCount: 2
Fore
SplineSet
1179 1156 m 1,0,-1
 735 916 l 1,1,-1
 1179 675 l 1,2,-1
 1109 553 l 1,3,-1
 691 804 l 1,4,-1
 691 338 l 1,5,-1
 548 338 l 1,6,-1
 548 804 l 1,7,-1
 130 553 l 1,8,-1
 60 675 l 1,9,-1
 505 916 l 1,10,-1
 60 1156 l 1,11,-1
 130 1279 l 1,12,-1
 548 1028 l 1,13,-1
 548 1494 l 1,14,-1
 691 1494 l 1,15,-1
 691 1028 l 1,16,-1
 1109 1279 l 1,17,-1
 1179 1156 l 1,0,-1
EndSplineSet
EndChar

StartChar: plus
Encoding: 43 43 14
Width: 1233
Flags: W
LayerCount: 2
Fore
SplineSet
720 1178 m 1,0,-1
 720 735 l 1,1,-1
 1165 735 l 1,2,-1
 1165 566 l 1,3,-1
 720 566 l 1,4,-1
 720 123 l 1,5,-1
 552 123 l 1,6,-1
 552 566 l 1,7,-1
 108 566 l 1,8,-1
 108 735 l 1,9,-1
 552 735 l 1,10,-1
 552 1178 l 1,11,-1
 720 1178 l 1,0,-1
EndSplineSet
EndChar

StartChar: comma
Encoding: 44 44 15
Width: 1233
Flags: W
LayerCount: 2
Fore
SplineSet
442 361 m 1,0,-1
 754 361 l 1,1,-1
 754 96 l 1,2,-1
 532 -335 l 1,3,-1
 332 -336 l 1,4,-1
 442 96 l 1,5,-1
 442 361 l 1,0,-1
EndSplineSet
EndChar

StartChar: hyphen
Encoding: 45 45 16
Width: 1233
Flags: W
LayerCount: 2
Fore
SplineSet
102 724 m 1,0,-1
 1162 724 l 1,1,-1
 1162 555 l 1,2,-1
 102 555 l 1,3,-1
 102 724 l 1,0,-1
EndSplineSet
EndChar

StartChar: period
Encoding: 46 46 17
Width: 1233
Flags: W
LayerCount: 2
Fore
SplineSet
389 404 m 1,0,-1
 741 404 l 1,1,-1
 741 0 l 1,2,-1
 389 0 l 1,3,-1
 389 404 l 1,0,-1
EndSplineSet
EndChar

StartChar: slash
Encoding: 47 47 18
Width: 1233
Flags: W
LayerCount: 2
Fore
SplineSet
889 1493 m 1,0,-1
 1079 1493 l 1,1,-1
 293 -190 l 1,2,-1
 102 -190 l 1,3,-1
 889 1493 l 1,0,-1
EndSplineSet
EndChar

StartChar: zero
Encoding: 48 48 19
Width: 1233
Flags: W
LayerCount: 2
Fore
SplineSet
616 1515 m 256,0,1
 855 1515 855 1515 977.5 1320 c 128,-1,2
 1100 1125 1100 1125 1100 743 c 256,3,4
 1100 361 1100 361 977.5 166 c 128,-1,5
 855 -29 855 -29 616 -29 c 256,6,7
 377 -29 377 -29 255 166 c 128,-1,8
 133 361 133 361 133 743 c 256,9,10
 133 1125 133 1125 255 1320 c 128,-1,11
 377 1515 377 1515 616 1515 c 256,0,1
616 131 m 0,12,13
 758 131 758 131 827.5 282 c 128,-1,14
 897 433 897 433 897 743 c 0,15,16
 897 908 897 908 877 1041 c 1,17,-1
 401 296 l 1,18,19
 476 131 476 131 616 131 c 0,12,13
616 1355 m 0,20,21
 475 1355 475 1355 405.5 1204 c 128,-1,22
 336 1053 336 1053 336 743 c 0,23,24
 336 602 336 602 355 479 c 1,25,-1
 821 1222 l 1,26,27
 745 1355 745 1355 616 1355 c 0,20,21
EndSplineSet
EndChar

StartChar: one
Encoding: 49 49 20
Width: 1233
Flags: W
LayerCount: 2
Fore
SplineSet
270 169 m 1,0,-1
 584 169 l 1,1,-1
 584 1297 l 1,2,-1
 208 1116 l 1,3,-1
 208 1310 l 1,4,-1
 582 1488 l 1,5,-1
 784 1488 l 1,6,-1
 784 169 l 1,7,-1
 1094 169 l 1,8,-1
 1094 0 l 1,9,-1
 270 0 l 1,10,-1
 270 169 l 1,0,-1
EndSplineSet
EndChar

StartChar: two
Encoding: 50 50 21
Width: 1233
Flags: W
LayerCount: 2
Fore
SplineSet
373 170 m 1,0,-1
 1059 170 l 1,1,-1
 1059 0 l 1,2,-1
 152 0 l 1,3,-1
 152 170 l 1,4,5
 339 367 339 367 479 518 c 128,-1,6
 619 669 619 669 672 731 c 0,7,8
 772 853 772 853 807 928.5 c 128,-1,9
 842 1004 842 1004 842 1083 c 0,10,11
 842 1208 842 1208 768.5 1279 c 128,-1,12
 695 1350 695 1350 567 1350 c 0,13,14
 476 1350 476 1350 376 1317 c 128,-1,15
 276 1284 276 1284 164 1217 c 1,16,-1
 164 1421 l 1,17,18
 267 1470 267 1470 366.5 1495 c 128,-1,19
 466 1520 466 1520 563 1520 c 0,20,21
 782 1520 782 1520 915.5 1403.5 c 128,-1,22
 1049 1287 1049 1287 1049 1098 c 0,23,24
 1049 1002 1049 1002 1004.5 906 c 128,-1,25
 960 810 960 810 860 694 c 0,26,27
 804 629 804 629 697.5 514 c 128,-1,28
 591 399 591 399 373 170 c 1,0,-1
EndSplineSet
EndChar

StartChar: three
Encoding: 51 51 22
Width: 1233
Flags: W
LayerCount: 2
Fore
SplineSet
776 799 m 1,0,1
 923 760 923 760 1001 660.5 c 128,-1,2
 1079 561 1079 561 1079 412 c 0,3,4
 1079 206 1079 206 940.5 88.5 c 128,-1,5
 802 -29 802 -29 557 -29 c 0,6,7
 454 -29 454 -29 347 -10 c 128,-1,8
 240 9 240 9 137 45 c 1,9,-1
 137 246 l 1,10,11
 239 193 239 193 338 167 c 128,-1,12
 437 141 437 141 535 141 c 0,13,14
 701 141 701 141 790 216 c 128,-1,15
 879 291 879 291 879 432 c 0,16,17
 879 562 879 562 790 638.5 c 128,-1,18
 701 715 701 715 549 715 c 2,19,-1
 395 715 l 1,20,-1
 395 881 l 1,21,-1
 549 881 l 2,22,23
 688 881 688 881 766 942 c 128,-1,24
 844 1003 844 1003 844 1112 c 0,25,26
 844 1227 844 1227 771.5 1288.5 c 128,-1,27
 699 1350 699 1350 565 1350 c 0,28,29
 476 1350 476 1350 381 1330 c 128,-1,30
 286 1310 286 1310 182 1270 c 1,31,-1
 182 1456 l 1,32,33
 303 1488 303 1488 397.5 1504 c 128,-1,34
 492 1520 492 1520 565 1520 c 0,35,36
 783 1520 783 1520 913.5 1410.5 c 128,-1,37
 1044 1301 1044 1301 1044 1120 c 0,38,39
 1044 997 1044 997 975.5 915 c 128,-1,40
 907 833 907 833 776 799 c 1,0,1
EndSplineSet
EndChar

StartChar: four
Encoding: 52 52 23
Width: 1233
Flags: W
LayerCount: 2
Fore
SplineSet
735 1309 m 1,0,-1
 264 520 l 1,1,-1
 735 520 l 1,2,-1
 735 1309 l 1,0,-1
702 1493 m 1,3,-1
 936 1493 l 1,4,-1
 936 520 l 1,5,-1
 1135 520 l 1,6,-1
 1135 356 l 1,7,-1
 936 356 l 1,8,-1
 936 0 l 1,9,-1
 735 0 l 1,10,-1
 735 356 l 1,11,-1
 102 356 l 1,12,-1
 102 547 l 1,13,-1
 702 1493 l 1,3,-1
EndSplineSet
EndChar

StartChar: five
Encoding: 53 53 24
Width: 1233
Flags: W
LayerCount: 2
Fore
SplineSet
207 1493 m 1,0,-1
 963 1493 l 1,1,-1
 963 1323 l 1,2,-1
 391 1323 l 1,3,-1
 391 956 l 1,4,5
 434 972 434 972 477.5 979.5 c 128,-1,6
 521 987 521 987 565 987 c 0,7,8
 797 987 797 987 933 850 c 128,-1,9
 1069 713 1069 713 1069 479 c 0,10,11
 1069 243 1069 243 926.5 107 c 128,-1,12
 784 -29 784 -29 537 -29 c 0,13,14
 418 -29 418 -29 319.5 -13 c 128,-1,15
 221 3 221 3 143 35 c 1,16,-1
 143 240 l 1,17,18
 235 190 235 190 328 165.5 c 128,-1,19
 421 141 421 141 518 141 c 0,20,21
 685 141 685 141 775.5 229 c 128,-1,22
 866 317 866 317 866 479 c 0,23,24
 866 639 866 639 772.5 728 c 128,-1,25
 679 817 679 817 512 817 c 0,26,27
 431 817 431 817 354 798.5 c 128,-1,28
 277 780 277 780 207 743 c 1,29,-1
 207 1493 l 1,0,-1
EndSplineSet
EndChar

StartChar: six
Encoding: 54 54 25
Width: 1233
Flags: W
LayerCount: 2
Fore
SplineSet
991 1460 m 1,0,-1
 991 1274 l 1,1,2
 928 1311 928 1311 857 1330.5 c 128,-1,3
 786 1350 786 1350 709 1350 c 0,4,5
 517 1350 517 1350 418 1205.5 c 128,-1,6
 319 1061 319 1061 319 780 c 1,7,8
 367 880 367 880 452 933.5 c 128,-1,9
 537 987 537 987 647 987 c 0,10,11
 863 987 863 987 981.5 854.5 c 128,-1,12
 1100 722 1100 722 1100 479 c 0,13,14
 1100 237 1100 237 978 104 c 128,-1,15
 856 -29 856 -29 635 -29 c 0,16,17
 375 -29 375 -29 254 157.5 c 128,-1,18
 133 344 133 344 133 745 c 0,19,20
 133 1123 133 1123 278.5 1321.5 c 128,-1,21
 424 1520 424 1520 700 1520 c 0,22,23
 774 1520 774 1520 848 1504.5 c 128,-1,24
 922 1489 922 1489 991 1460 c 1,0,-1
631 829 m 0,25,26
 502 829 502 829 428 736 c 128,-1,27
 354 643 354 643 354 479 c 256,28,29
 354 315 354 315 428 222 c 128,-1,30
 502 129 502 129 631 129 c 0,31,32
 765 129 765 129 833 217.5 c 128,-1,33
 901 306 901 306 901 479 c 0,34,35
 901 653 901 653 833 741 c 128,-1,36
 765 829 765 829 631 829 c 0,25,26
EndSplineSet
EndChar

StartChar: seven
Encoding: 55 55 26
Width: 1233
Flags: W
LayerCount: 2
Fore
SplineSet
139 1493 m 1,0,-1
 1079 1493 l 1,1,-1
 1079 1407 l 1,2,-1
 545 0 l 1,3,-1
 334 0 l 1,4,-1
 854 1323 l 1,5,-1
 139 1323 l 1,6,-1
 139 1493 l 1,0,-1
EndSplineSet
EndChar

StartChar: eight
Encoding: 56 56 27
Width: 1233
Flags: W
LayerCount: 2
Fore
SplineSet
616 709 m 0,0,1
 481 709 481 709 407.5 633.5 c 128,-1,2
 334 558 334 558 334 420 c 256,3,4
 334 282 334 282 408.5 205.5 c 128,-1,5
 483 129 483 129 616 129 c 0,6,7
 752 129 752 129 825.5 204.5 c 128,-1,8
 899 280 899 280 899 420 c 0,9,10
 899 557 899 557 824.5 633 c 128,-1,11
 750 709 750 709 616 709 c 0,0,1
440 793 m 1,12,13
 311 826 311 826 238.5 916 c 128,-1,14
 166 1006 166 1006 166 1133 c 0,15,16
 166 1311 166 1311 287 1415.5 c 128,-1,17
 408 1520 408 1520 616 1520 c 0,18,19
 825 1520 825 1520 946 1415.5 c 128,-1,20
 1067 1311 1067 1311 1067 1133 c 0,21,22
 1067 1006 1067 1006 994.5 916 c 128,-1,23
 922 826 922 826 793 793 c 1,24,25
 943 760 943 760 1022.5 660 c 128,-1,26
 1102 560 1102 560 1102 401 c 0,27,28
 1102 199 1102 199 973 85 c 128,-1,29
 844 -29 844 -29 616 -29 c 256,30,31
 388 -29 388 -29 259.5 84.5 c 128,-1,32
 131 198 131 198 131 399 c 0,33,34
 131 559 131 559 210.5 659.5 c 128,-1,35
 290 760 290 760 440 793 c 1,12,13
367 1114 m 0,36,37
 367 994 367 994 431 931 c 128,-1,38
 495 868 495 868 616 868 c 0,39,40
 738 868 738 868 802 931 c 128,-1,41
 866 994 866 994 866 1114 c 0,42,43
 866 1236 866 1236 802.5 1300 c 128,-1,44
 739 1364 739 1364 616 1364 c 0,45,46
 495 1364 495 1364 431 1299.5 c 128,-1,47
 367 1235 367 1235 367 1114 c 0,36,37
EndSplineSet
EndChar

StartChar: nine
Encoding: 57 57 28
Width: 1233
Flags: W
LayerCount: 2
Fore
SplineSet
596 662 m 0,0,1
 725 662 725 662 798.5 755 c 128,-1,2
 872 848 872 848 872 1012 c 256,3,4
 872 1176 872 1176 798.5 1269 c 128,-1,5
 725 1362 725 1362 596 1362 c 0,6,7
 462 1362 462 1362 394 1273.5 c 128,-1,8
 326 1185 326 1185 326 1012 c 0,9,10
 326 838 326 838 393.5 750 c 128,-1,11
 461 662 461 662 596 662 c 0,0,1
236 31 m 1,12,-1
 236 217 l 1,13,14
 299 180 299 180 370 160.5 c 128,-1,15
 441 141 441 141 518 141 c 0,16,17
 710 141 710 141 808.5 285.5 c 128,-1,18
 907 430 907 430 907 711 c 1,19,20
 860 611 860 611 775 557.5 c 128,-1,21
 690 504 690 504 580 504 c 0,22,23
 364 504 364 504 245.5 637 c 128,-1,24
 127 770 127 770 127 1014 c 0,25,26
 127 1255 127 1255 248.5 1387.5 c 128,-1,27
 370 1520 370 1520 592 1520 c 0,28,29
 852 1520 852 1520 973 1333 c 128,-1,30
 1094 1146 1094 1146 1094 745 c 0,31,32
 1094 368 1094 368 948.5 169.5 c 128,-1,33
 803 -29 803 -29 526 -29 c 0,34,35
 453 -29 453 -29 379 -13.5 c 128,-1,36
 305 2 305 2 236 31 c 1,12,-1
EndSplineSet
EndChar

StartChar: colon
Encoding: 58 58 29
Width: 1233
Flags: W
LayerCount: 2
Fore
SplineSet
429 1119 m 1,0,-1
 741 1119 l 1,1,-1
 741 758 l 1,2,-1
 429 758 l 1,3,-1
 429 1119 l 1,0,-1
429 364 m 1,4,-1
 741 364 l 1,5,-1
 741 0 l 1,6,-1
 429 0 l 1,7,-1
 429 364 l 1,4,-1
EndSplineSet
EndChar

StartChar: semicolon
Encoding: 59 59 30
Width: 1233
Flags: W
LayerCount: 2
Fore
SplineSet
442 361 m 1,0,-1
 754 361 l 1,1,-1
 754 96 l 1,2,-1
 557 -286 l 1,3,-1
 343 -286 l 1,4,-1
 442 96 l 1,5,-1
 442 361 l 1,0,-1
429 1119 m 1,6,-1
 741 1119 l 1,7,-1
 741 758 l 1,8,-1
 429 758 l 1,9,-1
 429 1119 l 1,6,-1
EndSplineSet
EndChar

StartChar: less
Encoding: 60 60 31
Width: 1233
Flags: W
LayerCount: 2
Fore
SplineSet
1145 961 m 1,0,-1
 295 641 l 1,1,-1
 1145 324 l 1,2,-1
 1145 141 l 1,3,-1
 88 559 l 1,4,-1
 88 725 l 1,5,-1
 1145 1143 l 1,6,-1
 1145 961 l 1,0,-1
EndSplineSet
Substitution2: "'rtla' Right to Left Alternates lookup 0 subtable" greater
EndChar

StartChar: equal
Encoding: 61 61 32
Width: 1233
Flags: W
LayerCount: 2
Fore
SplineSet
88 500 m 1,0,-1
 1145 500 l 1,1,-1
 1145 331 l 1,2,-1
 88 331 l 1,3,-1
 88 500 l 1,0,-1
88 971 m 1,4,-1
 1145 971 l 1,5,-1
 1145 802 l 1,6,-1
 88 802 l 1,7,-1
 88 971 l 1,4,-1
EndSplineSet
EndChar

StartChar: greater
Encoding: 62 62 33
Width: 1233
Flags: W
LayerCount: 2
Fore
SplineSet
88 961 m 1,0,-1
 88 1143 l 1,1,-1
 1145 725 l 1,2,-1
 1145 559 l 1,3,-1
 88 141 l 1,4,-1
 88 324 l 1,5,-1
 938 641 l 1,6,-1
 88 961 l 1,0,-1
EndSplineSet
Substitution2: "'rtla' Right to Left Alternates lookup 0 subtable" less
EndChar

StartChar: question
Encoding: 63 63 34
Width: 1233
Flags: W
LayerCount: 2
Fore
SplineSet
684 401 m 1,0,-1
 494 401 l 1,1,-1
 494 555 l 2,2,3
 494 653 494 653 524.5 721.5 c 128,-1,4
 555 790 555 790 639 872 c 2,5,-1
 729 961 l 2,6,7
 791 1020 791 1020 814.5 1064 c 128,-1,8
 838 1108 838 1108 838 1157 c 0,9,10
 838 1246 838 1246 772.5 1301 c 128,-1,11
 707 1356 707 1356 598 1356 c 0,12,13
 520 1356 520 1356 431 1321.5 c 128,-1,14
 342 1287 342 1287 244 1219 c 1,15,-1
 244 1407 l 1,16,17
 338 1464 338 1464 433.5 1492 c 128,-1,18
 529 1520 529 1520 633 1520 c 0,19,20
 819 1520 819 1520 929.5 1424 c 128,-1,21
 1040 1328 1040 1328 1040 1167 c 0,22,23
 1040 1091 1040 1091 1006.5 1025.5 c 128,-1,24
 973 960 973 960 879 868 c 2,25,-1
 791 782 l 2,26,27
 722 716 722 716 703 674 c 128,-1,28
 684 632 684 632 684 571 c 2,29,-1
 684 524 l 1,30,-1
 684 401 l 1,0,-1
487 254 m 1,31,-1
 690 254 l 1,32,-1
 690 0 l 1,33,-1
 487 0 l 1,34,-1
 487 254 l 1,31,-1
EndSplineSet
EndChar

StartChar: at
Encoding: 64 64 35
Width: 1233
Flags: W
LayerCount: 2
Fore
SplineSet
1038 545 m 0,0,1
 1038 674 1038 674 974 751.5 c 128,-1,2
 910 829 910 829 803 829 c 256,3,4
 696 829 696 829 631.5 751.5 c 128,-1,5
 567 674 567 674 567 545 c 0,6,7
 567 415 567 415 631.5 337.5 c 128,-1,8
 696 260 696 260 803 260 c 256,9,10
 910 260 910 260 974 337.5 c 128,-1,11
 1038 415 1038 415 1038 545 c 0,0,1
1178 135 m 1,12,-1
 1034 135 l 1,13,-1
 1034 246 l 1,14,15
 997 183 997 183 931.5 149 c 128,-1,16
 866 115 866 115 784 115 c 0,17,18
 623 115 623 115 517.5 236 c 128,-1,19
 412 357 412 357 412 545 c 256,20,21
 412 733 412 733 517.5 854 c 128,-1,22
 623 975 623 975 784 975 c 0,23,24
 864 975 864 975 931 940 c 128,-1,25
 998 905 998 905 1034 844 c 1,26,-1
 1034 907 l 2,27,28
 1034 1063 1034 1063 946 1158 c 128,-1,29
 858 1253 858 1253 713 1253 c 0,30,31
 467 1253 467 1253 321.5 1061.5 c 128,-1,32
 176 870 176 870 176 543 c 0,33,34
 176 214 176 214 341 19 c 128,-1,35
 506 -176 506 -176 793 -177 c 1,36,37
 847 -185 847 -185 945 -185 c 128,-1,38
 1043 -185 1043 -185 1120 -181 c 1,39,-1
 1120 -325 l 1,40,41
 1055 -330 1055 -330 952.5 -330.5 c 128,-1,42
 850 -331 850 -331 793 -322 c 1,43,44
 446 -319 446 -319 236.5 -86 c 128,-1,45
 27 147 27 147 27 543 c 0,46,47
 27 933 27 933 215 1164 c 128,-1,48
 403 1395 403 1395 719 1395 c 0,49,50
 928 1395 928 1395 1053 1262 c 128,-1,51
 1178 1129 1178 1129 1178 905 c 2,52,-1
 1178 135 l 1,12,-1
EndSplineSet
EndChar

StartChar: A
Encoding: 65 65 36
Width: 1233
Flags: W
LayerCount: 2
Fore
SplineSet
616 1315 m 1,0,-1
 403 551 l 1,1,-1
 829 551 l 1,2,-1
 616 1315 l 1,0,-1
494 1493 m 1,3,-1
 739 1493 l 1,4,-1
 1196 0 l 1,5,-1
 987 0 l 1,6,-1
 877 389 l 1,7,-1
 354 389 l 1,8,-1
 246 0 l 1,9,-1
 37 0 l 1,10,-1
 494 1493 l 1,3,-1
EndSplineSet
EndChar

StartChar: B
Encoding: 66 66 37
Width: 1233
Flags: W
LayerCount: 2
Fore
SplineSet
369 753 m 1,0,-1
 369 166 l 1,1,-1
 608 166 l 2,2,3
 784 166 784 166 859 227.5 c 128,-1,4
 934 289 934 289 934 430 c 0,5,6
 934 616 934 616 855 684.5 c 128,-1,7
 776 753 776 753 608 753 c 2,8,-1
 369 753 l 1,0,-1
369 1327 m 1,9,-1
 369 917 l 1,10,-1
 604 917 l 2,11,12
 750 917 750 917 815.5 973 c 128,-1,13
 881 1029 881 1029 881 1114 c 0,14,15
 881 1227 881 1227 816.5 1277 c 128,-1,16
 752 1327 752 1327 604 1327 c 2,17,-1
 369 1327 l 1,9,-1
166 1493 m 1,18,-1
 608 1493 l 2,19,20
 837 1493 837 1493 961 1394 c 128,-1,21
 1085 1295 1085 1295 1085 1114 c 0,22,23
 1085 1017 1085 1017 1019.5 938 c 128,-1,24
 954 859 954 859 823 839 c 1,25,26
 970 817 970 817 1053.5 713.5 c 128,-1,27
 1137 610 1137 610 1137 410 c 0,28,29
 1137 207 1137 207 1004 103.5 c 128,-1,30
 871 0 871 0 608 0 c 2,31,-1
 166 0 l 1,32,-1
 166 1493 l 1,18,-1
EndSplineSet
EndChar

StartChar: C
Encoding: 67 67 38
Width: 1233
Flags: W
LayerCount: 2
Fore
SplineSet
1073 53 m 1,0,1
 996 12 996 12 915 -8.5 c 128,-1,2
 834 -29 834 -29 743 -29 c 0,3,4
 456 -29 456 -29 297.5 174 c 128,-1,5
 139 377 139 377 139 745 c 0,6,7
 139 1111 139 1111 298.5 1315.5 c 128,-1,8
 458 1520 458 1520 743 1520 c 0,9,10
 834 1520 834 1520 915 1499.5 c 128,-1,11
 996 1479 996 1479 1073 1438 c 1,12,-1
 1073 1231 l 1,13,14
 999 1292 999 1292 914 1324 c 128,-1,15
 829 1356 829 1356 743 1356 c 0,16,17
 546 1356 546 1356 448 1204 c 128,-1,18
 350 1052 350 1052 350 745 c 0,19,20
 350 439 350 439 448 287 c 128,-1,21
 546 135 546 135 743 135 c 0,22,23
 831 135 831 135 915.5 167 c 128,-1,24
 1000 199 1000 199 1073 260 c 1,25,-1
 1073 53 l 1,0,1
EndSplineSet
EndChar

StartChar: D
Encoding: 68 68 39
Width: 1233
Flags: W
LayerCount: 2
Fore
SplineSet
436 166 m 2,0,1
 691 166 691 166 792 291.5 c 128,-1,2
 893 417 893 417 893 745 c 0,3,4
 893 1076 893 1076 792.5 1201.5 c 128,-1,5
 692 1327 692 1327 436 1327 c 2,6,-1
 340 1327 l 1,7,-1
 340 166 l 1,8,-1
 436 166 l 2,0,1
440 1493 m 2,9,10
 782 1493 782 1493 944 1311 c 128,-1,11
 1106 1129 1106 1129 1106 745 c 0,12,13
 1106 363 1106 363 944 181.5 c 128,-1,14
 782 0 782 0 440 0 c 2,15,-1
 137 0 l 1,16,-1
 137 1493 l 1,17,-1
 440 1493 l 2,9,10
EndSplineSet
EndChar

StartChar: E
Encoding: 69 69 40
Width: 1233
Flags: W
LayerCount: 2
Fore
SplineSet
197 1493 m 1,0,-1
 1083 1493 l 1,1,-1
 1083 1323 l 1,2,-1
 399 1323 l 1,3,-1
 399 921 l 1,4,-1
 1053 921 l 1,5,-1
 1053 751 l 1,6,-1
 399 751 l 1,7,-1
 399 170 l 1,8,-1
 1102 170 l 1,9,-1
 1102 0 l 1,10,-1
 197 0 l 1,11,-1
 197 1493 l 1,0,-1
EndSplineSet
EndChar

StartChar: F
Encoding: 70 70 41
Width: 1233
Flags: W
LayerCount: 2
Fore
SplineSet
233 1493 m 1,0,-1
 1112 1493 l 1,1,-1
 1112 1323 l 1,2,-1
 436 1323 l 1,3,-1
 436 923 l 1,4,-1
 1049 923 l 1,5,-1
 1049 753 l 1,6,-1
 436 753 l 1,7,-1
 436 0 l 1,8,-1
 233 0 l 1,9,-1
 233 1493 l 1,0,-1
EndSplineSet
EndChar

StartChar: G
Encoding: 71 71 42
Width: 1233
Flags: W
LayerCount: 2
Fore
SplineSet
1104 123 m 1,0,1
 1023 48 1023 48 921.5 9.5 c 128,-1,2
 820 -29 820 -29 702 -29 c 0,3,4
 418 -29 418 -29 260 174.5 c 128,-1,5
 102 378 102 378 102 745 c 0,6,7
 102 1111 102 1111 262 1315.5 c 128,-1,8
 422 1520 422 1520 707 1520 c 0,9,10
 801 1520 801 1520 887 1493.5 c 128,-1,11
 973 1467 973 1467 1053 1413 c 1,12,-1
 1053 1206 l 1,13,14
 972 1283 972 1283 887 1319.5 c 128,-1,15
 802 1356 802 1356 707 1356 c 0,16,17
 510 1356 510 1356 411.5 1203.5 c 128,-1,18
 313 1051 313 1051 313 745 c 0,19,20
 313 434 313 434 408.5 284.5 c 128,-1,21
 504 135 504 135 702 135 c 0,22,23
 769 135 769 135 819.5 150.5 c 128,-1,24
 870 166 870 166 911 199 c 1,25,-1
 911 600 l 1,26,-1
 694 600 l 1,27,-1
 694 766 l 1,28,-1
 1104 766 l 1,29,-1
 1104 123 l 1,0,1
EndSplineSet
EndChar

StartChar: H
Encoding: 72 72 43
Width: 1233
Flags: W
LayerCount: 2
Fore
SplineSet
137 1493 m 1,0,-1
 340 1493 l 1,1,-1
 340 921 l 1,2,-1
 893 921 l 1,3,-1
 893 1493 l 1,4,-1
 1096 1493 l 1,5,-1
 1096 0 l 1,6,-1
 893 0 l 1,7,-1
 893 751 l 1,8,-1
 340 751 l 1,9,-1
 340 0 l 1,10,-1
 137 0 l 1,11,-1
 137 1493 l 1,0,-1
EndSplineSet
EndChar

StartChar: I
Encoding: 73 73 44
Width: 1233
Flags: W
LayerCount: 2
Fore
SplineSet
201 1493 m 1,0,-1
 1030 1493 l 1,1,-1
 1030 1323 l 1,2,-1
 717 1323 l 1,3,-1
 717 170 l 1,4,-1
 1030 170 l 1,5,-1
 1030 0 l 1,6,-1
 201 0 l 1,7,-1
 201 170 l 1,8,-1
 514 170 l 1,9,-1
 514 1323 l 1,10,-1
 201 1323 l 1,11,-1
 201 1493 l 1,0,-1
EndSplineSet
EndChar

StartChar: J
Encoding: 74 74 45
Width: 1233
Flags: W
LayerCount: 2
Fore
SplineSet
109 61 m 1,0,-1
 109 297 l 1,1,2
 200 216 200 216 297 175.5 c 128,-1,3
 394 135 394 135 498 135 c 0,4,5
 641 135 641 135 697.5 209.5 c 128,-1,6
 754 284 754 284 754 487 c 2,7,-1
 754 1323 l 1,8,-1
 373 1323 l 1,9,-1
 373 1493 l 1,10,-1
 956 1493 l 1,11,-1
 956 487 l 2,12,13
 956 205 956 205 850.5 88 c 128,-1,14
 745 -29 745 -29 498 -29 c 0,15,16
 402 -29 402 -29 307 -7 c 128,-1,17
 212 15 212 15 109 61 c 1,0,-1
EndSplineSet
EndChar

StartChar: K
Encoding: 75 75 46
Width: 1233
Flags: W
LayerCount: 2
Fore
SplineSet
137 1493 m 1,0,-1
 340 1493 l 1,1,-1
 340 829 l 1,2,-1
 971 1493 l 1,3,-1
 1208 1493 l 1,4,-1
 627 883 l 1,5,-1
 1225 0 l 1,6,-1
 981 0 l 1,7,-1
 494 748 l 1,8,-1
 340 584 l 1,9,-1
 340 0 l 1,10,-1
 137 0 l 1,11,-1
 137 1493 l 1,0,-1
EndSplineSet
EndChar

StartChar: L
Encoding: 76 76 47
Width: 1233
Flags: W
LayerCount: 2
Fore
SplineSet
215 1493 m 1,0,-1
 418 1493 l 1,1,-1
 418 170 l 1,2,-1
 1139 170 l 1,3,-1
 1139 0 l 1,4,-1
 215 0 l 1,5,-1
 215 1493 l 1,0,-1
EndSplineSet
EndChar

StartChar: M
Encoding: 77 77 48
Width: 1233
Flags: W
LayerCount: 2
Fore
SplineSet
36 1488 m 1,0,-1
 306 1488 l 1,1,-1
 564 730 l 1,2,-1
 824 1488 l 1,3,-1
 1095 1488 l 1,4,-1
 1095 0 l 1,5,-1
 908 0 l 1,6,-1
 908 1315 l 1,7,-1
 642 531 l 1,8,-1
 489 531 l 1,9,-1
 222 1315 l 1,10,-1
 222 0 l 1,11,-1
 36 0 l 1,12,-1
 36 1488 l 1,0,-1
EndSplineSet
EndChar

StartChar: N
Encoding: 78 78 49
Width: 1233
Flags: W
LayerCount: 2
Fore
SplineSet
19 1488 m 1,0,-1
 295 1488 l 1,1,-1
 879 263 l 1,2,-1
 879 1488 l 1,3,-1
 1094 1488 l 1,4,-1
 1094 0 l 1,5,-1
 818 0 l 1,6,-1
 234 1225 l 1,7,-1
 234 0 l 1,8,-1
 19 0 l 1,9,-1
 19 1488 l 1,0,-1
EndSplineSet
EndChar

StartChar: O
Encoding: 79 79 50
Width: 1233
Flags: W
LayerCount: 2
Fore
SplineSet
905 745 m 256,0,1
 905 1074 905 1074 837.5 1215 c 128,-1,2
 770 1356 770 1356 616 1356 c 0,3,4
 463 1356 463 1356 395.5 1215 c 128,-1,5
 328 1074 328 1074 328 745 c 0,6,7
 328 417 328 417 395.5 276 c 128,-1,8
 463 135 463 135 616 135 c 0,9,10
 770 135 770 135 837.5 275.5 c 128,-1,11
 905 416 905 416 905 745 c 256,0,1
1116 745 m 0,12,13
 1116 355 1116 355 992.5 163 c 128,-1,14
 869 -29 869 -29 616 -29 c 256,15,16
 363 -29 363 -29 240 162 c 128,-1,17
 117 353 117 353 117 745 c 0,18,19
 117 1136 117 1136 240.5 1328 c 128,-1,20
 364 1520 364 1520 616 1520 c 0,21,22
 869 1520 869 1520 992.5 1328 c 128,-1,23
 1116 1136 1116 1136 1116 745 c 0,12,13
EndSplineSet
EndChar

StartChar: P
Encoding: 80 80 51
Width: 1233
Flags: W
LayerCount: 2
Fore
SplineSet
399 1327 m 1,0,-1
 399 766 l 1,1,-1
 633 766 l 2,2,3
 773 766 773 766 851.5 840 c 128,-1,4
 930 914 930 914 930 1047 c 256,5,6
 930 1180 930 1180 852 1253.5 c 128,-1,7
 774 1327 774 1327 633 1327 c 2,8,-1
 399 1327 l 1,0,-1
197 1493 m 1,9,-1
 633 1493 l 2,10,11
 883 1493 883 1493 1012 1379.5 c 128,-1,12
 1141 1266 1141 1266 1141 1047 c 0,13,14
 1141 826 1141 826 1012.5 713 c 128,-1,15
 884 600 884 600 633 600 c 2,16,-1
 399 600 l 1,17,-1
 399 0 l 1,18,-1
 197 0 l 1,19,-1
 197 1493 l 1,9,-1
EndSplineSet
EndChar

StartChar: Q
Encoding: 81 81 52
Width: 1233
Flags: W
LayerCount: 2
Fore
SplineSet
655 -27 m 1,0,1
 648 -27 648 -27 635 -28 c 128,-1,2
 622 -29 622 -29 614 -29 c 0,3,4
 364 -29 364 -29 240.5 163 c 128,-1,5
 117 355 117 355 117 745 c 0,6,7
 117 1136 117 1136 240.5 1328 c 128,-1,8
 364 1520 364 1520 616 1520 c 0,9,10
 869 1520 869 1520 992.5 1328 c 128,-1,11
 1116 1136 1116 1136 1116 745 c 0,12,13
 1116 451 1116 451 1047.5 271.5 c 128,-1,14
 979 92 979 92 840 20 c 1,15,-1
 1040 -170 l 1,16,-1
 889 -270 l 1,17,-1
 655 -27 l 1,0,1
905 745 m 256,18,19
 905 1074 905 1074 837.5 1215 c 128,-1,20
 770 1356 770 1356 616 1356 c 0,21,22
 463 1356 463 1356 395.5 1215 c 128,-1,23
 328 1074 328 1074 328 745 c 0,24,25
 328 417 328 417 395.5 276 c 128,-1,26
 463 135 463 135 616 135 c 0,27,28
 770 135 770 135 837.5 275.5 c 128,-1,29
 905 416 905 416 905 745 c 256,18,19
EndSplineSet
EndChar

StartChar: R
Encoding: 82 82 53
Width: 1233
Flags: W
LayerCount: 2
Fore
SplineSet
760 705 m 1,0,1
 838 685 838 685 893 629.5 c 128,-1,2
 948 574 948 574 1030 408 c 2,3,-1
 1233 0 l 1,4,-1
 1016 0 l 1,5,-1
 838 377 l 2,6,7
 761 538 761 538 699.5 584.5 c 128,-1,8
 638 631 638 631 539 631 c 2,9,-1
 346 631 l 1,10,-1
 346 0 l 1,11,-1
 143 0 l 1,12,-1
 143 1493 l 1,13,-1
 559 1493 l 2,14,15
 805 1493 805 1493 936 1382 c 128,-1,16
 1067 1271 1067 1271 1067 1061 c 0,17,18
 1067 913 1067 913 986.5 819.5 c 128,-1,19
 906 726 906 726 760 705 c 1,0,1
346 1327 m 1,20,-1
 346 797 l 1,21,-1
 567 797 l 2,22,23
 712 797 712 797 783 862 c 128,-1,24
 854 927 854 927 854 1061 c 0,25,26
 854 1190 854 1190 778.5 1258.5 c 128,-1,27
 703 1327 703 1327 559 1327 c 2,28,-1
 346 1327 l 1,20,-1
EndSplineSet
EndChar

StartChar: S
Encoding: 83 83 54
Width: 1233
Flags: W
LayerCount: 2
Fore
SplineSet
1012 1442 m 1,0,-1
 1012 1237 l 1,1,2
 920 1296 920 1296 827.5 1326 c 128,-1,3
 735 1356 735 1356 641 1356 c 0,4,5
 498 1356 498 1356 415 1289.5 c 128,-1,6
 332 1223 332 1223 332 1110 c 0,7,8
 332 1011 332 1011 386.5 959 c 128,-1,9
 441 907 441 907 590 872 c 2,10,-1
 696 848 l 2,11,12
 906 799 906 799 1002 694 c 128,-1,13
 1098 589 1098 589 1098 408 c 0,14,15
 1098 195 1098 195 966 83 c 128,-1,16
 834 -29 834 -29 582 -29 c 0,17,18
 477 -29 477 -29 371 -6.5 c 128,-1,19
 265 16 265 16 158 61 c 1,20,-1
 158 276 l 1,21,22
 273 203 273 203 375.5 169 c 128,-1,23
 478 135 478 135 582 135 c 0,24,25
 735 135 735 135 820 203.5 c 128,-1,26
 905 272 905 272 905 395 c 0,27,28
 905 507 905 507 846.5 566 c 128,-1,29
 788 625 788 625 643 657 c 2,30,-1
 535 682 l 2,31,32
 327 729 327 729 233 824 c 128,-1,33
 139 919 139 919 139 1079 c 0,34,35
 139 1279 139 1279 273.5 1399.5 c 128,-1,36
 408 1520 408 1520 631 1520 c 0,37,38
 717 1520 717 1520 812 1500.5 c 128,-1,39
 907 1481 907 1481 1012 1442 c 1,0,-1
EndSplineSet
EndChar

StartChar: T
Encoding: 84 84 55
Width: 1233
Flags: W
LayerCount: 2
Fore
SplineSet
47 1493 m 1,0,-1
 1186 1493 l 1,1,-1
 1186 1323 l 1,2,-1
 719 1323 l 1,3,-1
 719 0 l 1,4,-1
 516 0 l 1,5,-1
 516 1323 l 1,6,-1
 47 1323 l 1,7,-1
 47 1493 l 1,0,-1
EndSplineSet
EndChar

StartChar: U
Encoding: 85 85 56
Width: 1233
Flags: W
LayerCount: 2
Fore
SplineSet
147 573 m 2,0,-1
 147 1493 l 1,1,-1
 350 1493 l 1,2,-1
 350 481 l 2,3,4
 350 372 350 372 356 325.5 c 128,-1,5
 362 279 362 279 377 254 c 0,6,7
 409 195 409 195 469.5 165 c 128,-1,8
 530 135 530 135 616 135 c 0,9,10
 703 135 703 135 763 165 c 128,-1,11
 823 195 823 195 856 254 c 0,12,13
 871 279 871 279 877 325 c 128,-1,14
 883 371 883 371 883 479 c 2,15,-1
 883 1493 l 1,16,-1
 1085 1493 l 1,17,-1
 1085 573 l 2,18,19
 1085 344 1085 344 1056.5 247.5 c 128,-1,20
 1028 151 1028 151 958 88 c 0,21,22
 892 29 892 29 807 0 c 128,-1,23
 722 -29 722 -29 616 -29 c 0,24,25
 511 -29 511 -29 426 0 c 128,-1,26
 341 29 341 29 274 88 c 0,27,28
 205 150 205 150 176 248.5 c 128,-1,29
 147 347 147 347 147 573 c 2,0,-1
EndSplineSet
EndChar

StartChar: V
Encoding: 86 86 57
Width: 1233
Flags: W
LayerCount: 2
Fore
SplineSet
616 170 m 1,0,-1
 967 1493 l 1,1,-1
 1176 1493 l 1,2,-1
 739 0 l 1,3,-1
 494 0 l 1,4,-1
 57 1493 l 1,5,-1
 266 1493 l 1,6,-1
 616 170 l 1,0,-1
EndSplineSet
EndChar

StartChar: W
Encoding: 87 87 58
Width: 1233
Flags: W
LayerCount: 2
Fore
SplineSet
0 1493 m 1,0,-1
 197 1493 l 1,1,-1
 340 281 l 1,2,-1
 510 1083 l 1,3,-1
 721 1083 l 1,4,-1
 893 279 l 1,5,-1
 1036 1493 l 1,6,-1
 1233 1493 l 1,7,-1
 1010 0 l 1,8,-1
 819 0 l 1,9,-1
 616 887 l 1,10,-1
 414 0 l 1,11,-1
 223 0 l 1,12,-1
 0 1493 l 1,0,-1
EndSplineSet
EndChar

StartChar: X
Encoding: 88 88 59
Width: 1233
Flags: W
LayerCount: 2
Fore
SplineSet
86 1493 m 1,0,-1
 303 1493 l 1,1,-1
 631 930 l 1,2,-1
 965 1493 l 1,3,-1
 1182 1493 l 1,4,-1
 735 791 l 1,5,-1
 1214 0 l 1,6,-1
 997 0 l 1,7,-1
 631 643 l 1,8,-1
 236 0 l 1,9,-1
 18 0 l 1,10,-1
 518 791 l 1,11,-1
 86 1493 l 1,0,-1
EndSplineSet
EndChar

StartChar: Y
Encoding: 89 89 60
Width: 1233
Flags: W
LayerCount: 2
Fore
SplineSet
37 1493 m 1,0,-1
 252 1493 l 1,1,-1
 616 834 l 1,2,-1
 979 1493 l 1,3,-1
 1196 1493 l 1,4,-1
 717 670 l 1,5,-1
 717 0 l 1,6,-1
 514 0 l 1,7,-1
 514 670 l 1,8,-1
 37 1493 l 1,0,-1
EndSplineSet
EndChar

StartChar: Z
Encoding: 90 90 61
Width: 1233
Flags: W
LayerCount: 2
Fore
SplineSet
178 1493 m 1,0,-1
 1147 1493 l 1,1,-1
 1147 1339 l 1,2,-1
 367 170 l 1,3,-1
 1169 170 l 1,4,-1
 1169 0 l 1,5,-1
 156 0 l 1,6,-1
 156 154 l 1,7,-1
 915 1323 l 1,8,-1
 178 1323 l 1,9,-1
 178 1493 l 1,0,-1
EndSplineSet
EndChar

StartChar: bracketleft
Encoding: 91 91 62
Width: 1233
Flags: W
LayerCount: 2
Fore
SplineSet
563 1656 m 1,0,-1
 987 1656 l 1,1,-1
 987 1513 l 1,2,-1
 747 1513 l 1,3,-1
 747 -27 l 1,4,-1
 987 -27 l 1,5,-1
 987 -170 l 1,6,-1
 563 -170 l 1,7,-1
 563 1656 l 1,0,-1
EndSplineSet
Substitution2: "'rtla' Right to Left Alternates lookup 0 subtable" bracketright
EndChar

StartChar: backslash
Encoding: 92 92 63
Width: 1233
Flags: W
LayerCount: 2
Fore
SplineSet
293 1493 m 1,0,-1
 1079 -190 l 1,1,-1
 889 -190 l 1,2,-1
 102 1493 l 1,3,-1
 293 1493 l 1,0,-1
EndSplineSet
EndChar

StartChar: bracketright
Encoding: 93 93 64
Width: 1233
Flags: W
LayerCount: 2
Fore
SplineSet
720 1656 m 1,0,-1
 720 -170 l 1,1,-1
 296 -170 l 1,2,-1
 296 -27 l 1,3,-1
 536 -27 l 1,4,-1
 536 1513 l 1,5,-1
 296 1513 l 1,6,-1
 296 1656 l 1,7,-1
 720 1656 l 1,0,-1
EndSplineSet
Substitution2: "'rtla' Right to Left Alternates lookup 0 subtable" bracketleft
EndChar

StartChar: asciicircum
Encoding: 94 94 65
Width: 1233
Flags: W
LayerCount: 2
Fore
SplineSet
705 1488 m 1,0,-1
 1196 892 l 1,1,-1
 983 893 l 1,2,-1
 616 1286 l 1,3,-1
 250 893 l 1,4,-1
 36 892 l 1,5,-1
 528 1488 l 1,6,-1
 705 1488 l 1,0,-1
EndSplineSet
EndChar

StartChar: underscore
Encoding: 95 95 66
Width: 1233
Flags: W
LayerCount: 2
Fore
SplineSet
1224 -190 m 1,0,-1
 1224 -360 l 1,1,-1
 0 -360 l 1,2,-1
 0 -190 l 1,3,-1
 1224 -190 l 1,0,-1
EndSplineSet
EndChar

StartChar: grave
Encoding: 96 96 67
Width: 1233
Flags: W
LayerCount: 2
Fore
SplineSet
477 1638 m 1,0,-1
 758 1262 l 1,1,-1
 604 1262 l 1,2,-1
 279 1638 l 1,3,-1
 477 1638 l 1,0,-1
EndSplineSet
EndChar

StartChar: a
Encoding: 97 97 68
Width: 1233
Flags: W
LayerCount: 2
Fore
SplineSet
702 563 m 1,0,-1
 641 563 l 2,1,2
 480 563 480 563 398.5 506.5 c 128,-1,3
 317 450 317 450 317 338 c 0,4,5
 317 237 317 237 378 181 c 128,-1,6
 439 125 439 125 547 125 c 0,7,8
 699 125 699 125 786 230.5 c 128,-1,9
 873 336 873 336 874 522 c 2,10,-1
 874 563 l 1,11,-1
 702 563 l 1,0,-1
1059 639 m 2,12,-1
 1059 0 l 1,13,-1
 874 0 l 1,14,-1
 874 166 l 1,15,16
 815 66 815 66 725.5 18.5 c 128,-1,17
 636 -29 636 -29 508 -29 c 0,18,19
 337 -29 337 -29 235 67.5 c 128,-1,20
 133 164 133 164 133 326 c 0,21,22
 133 513 133 513 258.5 610 c 128,-1,23
 384 707 384 707 627 707 c 2,24,-1
 874 707 l 1,25,-1
 874 736 l 2,26,27
 873 870 873 870 806 930.5 c 128,-1,28
 739 991 739 991 592 991 c 0,29,30
 498 991 498 991 402 964 c 128,-1,31
 306 937 306 937 215 885 c 1,32,-1
 215 1069 l 1,33,34
 317 1108 317 1108 410.5 1127.5 c 128,-1,35
 504 1147 504 1147 592 1147 c 0,36,37
 731 1147 731 1147 829.5 1106 c 128,-1,38
 928 1065 928 1065 989 983 c 0,39,40
 1027 933 1027 933 1043 859.5 c 128,-1,41
 1059 786 1059 786 1059 639 c 2,12,-1
EndSplineSet
EndChar

StartChar: b
Encoding: 98 98 69
Width: 1233
Flags: W
LayerCount: 2
Fore
SplineSet
918 559 m 256,0,1
 918 773 918 773 850 882 c 128,-1,2
 782 991 782 991 649 991 c 0,3,4
 515 991 515 991 446 881.5 c 128,-1,5
 377 772 377 772 377 559 c 0,6,7
 377 347 377 347 446 237 c 128,-1,8
 515 127 515 127 649 127 c 0,9,10
 782 127 782 127 850 236 c 128,-1,11
 918 345 918 345 918 559 c 256,0,1
377 977 m 1,12,13
 421 1059 421 1059 498.5 1103 c 128,-1,14
 576 1147 576 1147 678 1147 c 0,15,16
 880 1147 880 1147 996 991.5 c 128,-1,17
 1112 836 1112 836 1112 563 c 0,18,19
 1112 286 1112 286 995.5 128.5 c 128,-1,20
 879 -29 879 -29 676 -29 c 0,21,22
 576 -29 576 -29 499.5 14.5 c 128,-1,23
 423 58 423 58 377 141 c 1,24,-1
 377 0 l 1,25,-1
 193 0 l 1,26,-1
 193 1556 l 1,27,-1
 377 1556 l 1,28,-1
 377 977 l 1,12,13
EndSplineSet
EndChar

StartChar: c
Encoding: 99 99 70
Width: 1233
Flags: W
LayerCount: 2
Fore
SplineSet
1061 57 m 1,0,1
 987 14 987 14 908.5 -7.5 c 128,-1,2
 830 -29 830 -29 748 -29 c 0,3,4
 488 -29 488 -29 341.5 127 c 128,-1,5
 195 283 195 283 195 559 c 256,6,7
 195 835 195 835 341.5 991 c 128,-1,8
 488 1147 488 1147 748 1147 c 0,9,10
 829 1147 829 1147 906 1126 c 128,-1,11
 983 1105 983 1105 1061 1061 c 1,12,-1
 1061 868 l 1,13,14
 988 933 988 933 914.5 962 c 128,-1,15
 841 991 841 991 748 991 c 0,16,17
 575 991 575 991 482 879 c 128,-1,18
 389 767 389 767 389 559 c 0,19,20
 389 352 389 352 482.5 239.5 c 128,-1,21
 576 127 576 127 748 127 c 0,22,23
 844 127 844 127 920 156.5 c 128,-1,24
 996 186 996 186 1061 248 c 1,25,-1
 1061 57 l 1,0,1
EndSplineSet
EndChar

StartChar: d
Encoding: 100 100 71
Width: 1233
Flags: W
LayerCount: 2
Fore
SplineSet
858 977 m 1,0,-1
 858 1556 l 1,1,-1
 1042 1556 l 1,2,-1
 1042 0 l 1,3,-1
 858 0 l 1,4,-1
 858 141 l 1,5,6
 812 58 812 58 735.5 14.5 c 128,-1,7
 659 -29 659 -29 559 -29 c 0,8,9
 356 -29 356 -29 239.5 128.5 c 128,-1,10
 123 286 123 286 123 563 c 0,11,12
 123 836 123 836 240 991.5 c 128,-1,13
 357 1147 357 1147 559 1147 c 0,14,15
 660 1147 660 1147 737 1103.5 c 128,-1,16
 814 1060 814 1060 858 977 c 1,0,-1
317 559 m 256,17,18
 317 345 317 345 385 236 c 128,-1,19
 453 127 453 127 586 127 c 256,20,21
 719 127 719 127 788.5 237 c 128,-1,22
 858 347 858 347 858 559 c 0,23,24
 858 772 858 772 788.5 881.5 c 128,-1,25
 719 991 719 991 586 991 c 256,26,27
 453 991 453 991 385 882 c 128,-1,28
 317 773 317 773 317 559 c 256,17,18
EndSplineSet
EndChar

StartChar: e
Encoding: 101 101 72
Width: 1233
Flags: W
LayerCount: 2
Fore
SplineSet
1120 652 m 1,0,-1
 1120 562 l 1,1,-1
 323 562 l 1,2,-1
 323 556 l 1,3,4
 315 327 315 327 410.5 227 c 128,-1,5
 506 127 506 127 680 127 c 0,6,7
 768 127 768 127 864 155 c 128,-1,8
 960 183 960 183 1069 240 c 1,9,-1
 1069 57 l 1,10,11
 964 14 964 14 866.5 -7.5 c 128,-1,12
 769 -29 769 -29 678 -29 c 0,13,14
 417 -29 417 -29 270 127.5 c 128,-1,15
 123 284 123 284 123 559 c 0,16,17
 123 827 123 827 267 987 c 128,-1,18
 411 1147 411 1147 651 1147 c 0,19,20
 865 1147 865 1147 988.5 1002 c 128,-1,21
 1112 857 1112 857 1120 652 c 1,0,-1
936 706 m 1,22,23
 924 822 924 822 851.5 906.5 c 128,-1,24
 779 991 779 991 643 991 c 0,25,26
 510 991 510 991 424 903 c 128,-1,27
 338 815 338 815 330 705 c 1,28,-1
 936 706 l 1,22,23
EndSplineSet
EndChar

StartChar: f
Encoding: 102 102 73
Width: 1233
Flags: W
LayerCount: 2
Fore
SplineSet
1063 1556 m 1,0,-1
 1063 1403 l 1,1,-1
 854 1403 l 2,2,3
 755 1403 755 1403 716.5 1362.5 c 128,-1,4
 678 1322 678 1322 678 1219 c 2,5,-1
 678 1120 l 1,6,-1
 1063 1120 l 1,7,-1
 1063 977 l 1,8,-1
 678 977 l 1,9,-1
 678 0 l 1,10,-1
 494 0 l 1,11,-1
 494 977 l 1,12,-1
 195 977 l 1,13,-1
 195 1120 l 1,14,-1
 494 1120 l 1,15,-1
 494 1198 l 2,16,17
 494 1382 494 1382 578.5 1469 c 128,-1,18
 663 1556 663 1556 842 1556 c 2,19,-1
 1063 1556 l 1,0,-1
EndSplineSet
EndChar

StartChar: g
Encoding: 103 103 74
Width: 1233
Flags: W
LayerCount: 2
Fore
SplineSet
858 569 m 0,0,1
 858 776 858 776 790.5 883.5 c 128,-1,2
 723 991 723 991 594 991 c 0,3,4
 459 991 459 991 388 883.5 c 128,-1,5
 317 776 317 776 317 569 c 256,6,7
 317 362 317 362 388.5 253.5 c 128,-1,8
 460 145 460 145 596 145 c 0,9,10
 723 145 723 145 790.5 254 c 128,-1,11
 858 363 858 363 858 569 c 0,0,1
1042 72 m 2,12,13
 1042 -180 1042 -180 923 -310 c 128,-1,14
 804 -440 804 -440 573 -440 c 0,15,16
 497 -440 497 -440 414 -426 c 128,-1,17
 331 -412 331 -412 248 -385 c 1,18,-1
 248 -203 l 1,19,20
 346 -249 346 -249 426 -271 c 128,-1,21
 506 -293 506 -293 573 -293 c 0,22,23
 722 -293 722 -293 790 -212 c 128,-1,24
 858 -131 858 -131 858 45 c 2,25,-1
 858 53 l 1,26,-1
 858 178 l 1,27,28
 814 84 814 84 738 38 c 128,-1,29
 662 -8 662 -8 553 -8 c 0,30,31
 357 -8 357 -8 240 149 c 128,-1,32
 123 306 123 306 123 569 c 0,33,34
 123 833 123 833 240 990 c 128,-1,35
 357 1147 357 1147 553 1147 c 0,36,37
 661 1147 661 1147 736 1104 c 128,-1,38
 811 1061 811 1061 858 971 c 1,39,-1
 858 1116 l 1,40,-1
 1042 1116 l 1,41,-1
 1042 72 l 2,12,13
EndSplineSet
EndChar

StartChar: h
Encoding: 104 104 75
Width: 1233
Flags: W
LayerCount: 2
Fore
SplineSet
1051 694 m 2,0,-1
 1051 0 l 1,1,-1
 866 0 l 1,2,-1
 866 694 l 2,3,4
 866 845 866 845 813 916 c 128,-1,5
 760 987 760 987 647 987 c 0,6,7
 518 987 518 987 448.5 895.5 c 128,-1,8
 379 804 379 804 379 633 c 2,9,-1
 379 0 l 1,10,-1
 195 0 l 1,11,-1
 195 1556 l 1,12,-1
 379 1556 l 1,13,-1
 379 952 l 1,14,15
 428 1048 428 1048 512 1097.5 c 128,-1,16
 596 1147 596 1147 711 1147 c 0,17,18
 882 1147 882 1147 966.5 1034.5 c 128,-1,19
 1051 922 1051 922 1051 694 c 2,0,-1
EndSplineSet
EndChar

StartChar: i
Encoding: 105 105 76
Width: 1233
Flags: W
LayerCount: 2
Fore
SplineSet
316 1116 m 1,0,-1
 787 1116 l 1,1,-1
 787 143 l 1,2,-1
 1152 143 l 1,3,-1
 1152 0 l 1,4,-1
 238 0 l 1,5,-1
 238 143 l 1,6,-1
 603 143 l 1,7,-1
 603 973 l 1,8,-1
 316 973 l 1,9,-1
 316 1116 l 1,0,-1
603 1551 m 1,10,-1
 787 1551 l 1,11,-1
 787 1319 l 1,12,-1
 603 1319 l 1,13,-1
 603 1551 l 1,10,-1
EndSplineSet
EndChar

StartChar: j
Encoding: 106 106 77
Width: 1233
Flags: W
LayerCount: 2
Fore
SplineSet
600 -20 m 2,0,-1
 600 977 l 1,1,-1
 283 977 l 1,2,-1
 283 1120 l 1,3,-1
 784 1120 l 1,4,-1
 784 -20 l 2,5,6
 784 -215 784 -215 694.5 -320.5 c 128,-1,7
 605 -426 605 -426 440 -426 c 2,8,-1
 186 -426 l 1,9,-1
 186 -270 l 1,10,-1
 420 -270 l 2,11,12
 510 -270 510 -270 555 -207.5 c 128,-1,13
 600 -145 600 -145 600 -20 c 2,0,-1
600 1556 m 1,14,-1
 784 1556 l 1,15,-1
 784 1323 l 1,16,-1
 600 1323 l 1,17,-1
 600 1556 l 1,14,-1
EndSplineSet
EndChar

StartChar: k
Encoding: 107 107 78
Width: 1233
Flags: W
LayerCount: 2
Fore
SplineSet
236 1556 m 1,0,-1
 426 1556 l 1,1,-1
 426 655 l 1,2,-1
 909 1120 l 1,3,-1
 1133 1120 l 1,4,-1
 692 698 l 1,5,-1
 1202 0 l 1,6,-1
 977 0 l 1,7,-1
 563 578 l 1,8,-1
 426 449 l 1,9,-1
 426 0 l 1,10,-1
 236 0 l 1,11,-1
 236 1556 l 1,0,-1
EndSplineSet
EndChar

StartChar: l
Encoding: 108 108 79
Width: 1233
Flags: W
LayerCount: 2
Fore
SplineSet
719 405 m 2,0,1
 719 281 719 281 764.5 218 c 128,-1,2
 810 155 810 155 899 155 c 2,3,-1
 1114 155 l 1,4,-1
 1114 0 l 1,5,-1
 881 0 l 2,6,7
 716 0 716 0 625.5 105.5 c 128,-1,8
 535 211 535 211 535 405 c 2,9,-1
 535 1418 l 1,10,-1
 240 1418 l 1,11,-1
 240 1562 l 1,12,-1
 719 1562 l 1,13,-1
 719 405 l 2,0,1
EndSplineSet
EndChar

StartChar: m
Encoding: 109 109 80
Width: 1233
Flags: W
LayerCount: 2
Fore
SplineSet
676 1006 m 1,0,1
 710 1078 710 1078 762.5 1112.5 c 128,-1,2
 815 1147 815 1147 889 1147 c 0,3,4
 1024 1147 1024 1147 1079.5 1042.5 c 128,-1,5
 1135 938 1135 938 1135 649 c 2,6,-1
 1135 0 l 1,7,-1
 967 0 l 1,8,-1
 967 641 l 2,9,10
 967 878 967 878 940.5 935.5 c 128,-1,11
 914 993 914 993 844 993 c 0,12,13
 764 993 764 993 734.5 931.5 c 128,-1,14
 705 870 705 870 705 641 c 2,15,-1
 705 0 l 1,16,-1
 537 0 l 1,17,-1
 537 641 l 2,18,19
 537 881 537 881 508.5 937 c 128,-1,20
 480 993 480 993 406 993 c 0,21,22
 333 993 333 993 304.5 931.5 c 128,-1,23
 276 870 276 870 276 641 c 2,24,-1
 276 0 l 1,25,-1
 109 0 l 1,26,-1
 109 1120 l 1,27,-1
 276 1120 l 1,28,-1
 276 1024 l 1,29,30
 309 1084 309 1084 358.5 1115.5 c 128,-1,31
 408 1147 408 1147 471 1147 c 0,32,33
 547 1147 547 1147 597.5 1112 c 128,-1,34
 648 1077 648 1077 676 1006 c 1,0,1
EndSplineSet
EndChar

StartChar: n
Encoding: 110 110 81
Width: 1233
Flags: W
LayerCount: 2
Fore
SplineSet
1051 694 m 2,0,-1
 1051 0 l 1,1,-1
 866 0 l 1,2,-1
 866 694 l 2,3,4
 866 845 866 845 813 916 c 128,-1,5
 760 987 760 987 647 987 c 0,6,7
 518 987 518 987 448.5 895.5 c 128,-1,8
 379 804 379 804 379 633 c 2,9,-1
 379 0 l 1,10,-1
 195 0 l 1,11,-1
 195 1120 l 1,12,-1
 379 1120 l 1,13,-1
 379 952 l 1,14,15
 428 1048 428 1048 512 1097.5 c 128,-1,16
 596 1147 596 1147 711 1147 c 0,17,18
 882 1147 882 1147 966.5 1034.5 c 128,-1,19
 1051 922 1051 922 1051 694 c 2,0,-1
EndSplineSet
EndChar

StartChar: o
Encoding: 111 111 82
Width: 1233
Flags: W
LayerCount: 2
Fore
SplineSet
616 991 m 0,0,1
 476 991 476 991 404 882 c 128,-1,2
 332 773 332 773 332 559 c 0,3,4
 332 346 332 346 404 236.5 c 128,-1,5
 476 127 476 127 616 127 c 0,6,7
 757 127 757 127 829 236.5 c 128,-1,8
 901 346 901 346 901 559 c 0,9,10
 901 773 901 773 829 882 c 128,-1,11
 757 991 757 991 616 991 c 0,0,1
616 1147 m 256,12,13
 849 1147 849 1147 972.5 996 c 128,-1,14
 1096 845 1096 845 1096 559 c 0,15,16
 1096 272 1096 272 973 121.5 c 128,-1,17
 850 -29 850 -29 616 -29 c 0,18,19
 383 -29 383 -29 260 121.5 c 128,-1,20
 137 272 137 272 137 559 c 0,21,22
 137 845 137 845 260 996 c 128,-1,23
 383 1147 383 1147 616 1147 c 256,12,13
EndSplineSet
EndChar

StartChar: p
Encoding: 112 112 83
Width: 1233
Flags: W
LayerCount: 2
Fore
SplineSet
375 141 m 1,0,-1
 375 -426 l 1,1,-1
 190 -426 l 1,2,-1
 190 1120 l 1,3,-1
 375 1120 l 1,4,-1
 375 977 l 1,5,6
 421 1060 421 1060 497.5 1103.5 c 128,-1,7
 574 1147 574 1147 674 1147 c 0,8,9
 877 1147 877 1147 992.5 990 c 128,-1,10
 1108 833 1108 833 1108 555 c 0,11,12
 1108 282 1108 282 992 126.5 c 128,-1,13
 876 -29 876 -29 674 -29 c 0,14,15
 572 -29 572 -29 495.5 14.5 c 128,-1,16
 419 58 419 58 375 141 c 1,0,-1
915 559 m 256,17,18
 915 773 915 773 847.5 882 c 128,-1,19
 780 991 780 991 647 991 c 0,20,21
 513 991 513 991 444 881.5 c 128,-1,22
 375 772 375 772 375 559 c 0,23,24
 375 347 375 347 444 237 c 128,-1,25
 513 127 513 127 647 127 c 0,26,27
 780 127 780 127 847.5 236 c 128,-1,28
 915 345 915 345 915 559 c 256,17,18
EndSplineSet
EndChar

StartChar: q
Encoding: 113 113 84
Width: 1233
Flags: W
LayerCount: 2
Fore
SplineSet
332 555 m 256,0,1
 332 341 332 341 399.5 232 c 128,-1,2
 467 123 467 123 600 123 c 256,3,4
 733 123 733 123 801.5 232.5 c 128,-1,5
 870 342 870 342 870 555 c 256,6,7
 870 768 870 768 801.5 877.5 c 128,-1,8
 733 987 733 987 600 987 c 256,9,10
 467 987 467 987 399.5 878 c 128,-1,11
 332 769 332 769 332 555 c 256,0,1
870 139 m 1,12,13
 825 56 825 56 748.5 11.5 c 128,-1,14
 672 -33 672 -33 571 -33 c 0,15,16
 370 -33 370 -33 253.5 122.5 c 128,-1,17
 137 278 137 278 137 551 c 0,18,19
 137 829 137 829 253 986 c 128,-1,20
 369 1143 369 1143 571 1143 c 0,21,22
 671 1143 671 1143 747.5 1099.5 c 128,-1,23
 824 1056 824 1056 870 973 c 1,24,-1
 870 1116 l 1,25,-1
 1055 1116 l 1,26,-1
 1055 -430 l 1,27,-1
 870 -430 l 1,28,-1
 870 139 l 1,12,13
EndSplineSet
EndChar

StartChar: r
Encoding: 114 114 85
Width: 1233
Flags: W
LayerCount: 2
Fore
SplineSet
1155 889 m 1,0,1
 1096 935 1096 935 1035 956 c 128,-1,2
 974 977 974 977 901 977 c 0,3,4
 729 977 729 977 638 869 c 128,-1,5
 547 761 547 761 547 557 c 2,6,-1
 547 0 l 1,7,-1
 362 0 l 1,8,-1
 362 1120 l 1,9,-1
 547 1120 l 1,10,-1
 547 901 l 1,11,12
 593 1020 593 1020 688.5 1083.5 c 128,-1,13
 784 1147 784 1147 915 1147 c 0,14,15
 983 1147 983 1147 1042 1130 c 128,-1,16
 1101 1113 1101 1113 1155 1077 c 1,17,-1
 1155 889 l 1,0,1
EndSplineSet
EndChar

StartChar: s
Encoding: 115 115 86
Width: 1233
Flags: W
LayerCount: 2
Fore
SplineSet
973 1081 m 1,0,-1
 973 901 l 1,1,2
 894 947 894 947 814 970 c 128,-1,3
 734 993 734 993 651 993 c 0,4,5
 526 993 526 993 464.5 952.5 c 128,-1,6
 403 912 403 912 403 829 c 0,7,8
 403 754 403 754 449 717 c 128,-1,9
 495 680 495 680 678 645 c 2,10,-1
 752 631 l 2,11,12
 889 605 889 605 959.5 527 c 128,-1,13
 1030 449 1030 449 1030 324 c 0,14,15
 1030 158 1030 158 912 64.5 c 128,-1,16
 794 -29 794 -29 584 -29 c 0,17,18
 501 -29 501 -29 410 -11.5 c 128,-1,19
 319 6 319 6 213 41 c 1,20,-1
 213 231 l 1,21,22
 316 178 316 178 410 151.5 c 128,-1,23
 504 125 504 125 588 125 c 0,24,25
 710 125 710 125 777 174.5 c 128,-1,26
 844 224 844 224 844 313 c 0,27,28
 844 441 844 441 599 490 c 1,29,-1
 591 492 l 1,30,-1
 522 506 l 2,31,32
 363 537 363 537 290 610.5 c 128,-1,33
 217 684 217 684 217 811 c 0,34,35
 217 972 217 972 326 1059.5 c 128,-1,36
 435 1147 435 1147 637 1147 c 0,37,38
 727 1147 727 1147 810 1130.5 c 128,-1,39
 893 1114 893 1114 973 1081 c 1,0,-1
EndSplineSet
EndChar

StartChar: t
Encoding: 116 116 87
Width: 1233
Flags: W
LayerCount: 2
Fore
SplineSet
614 1438 m 1,0,-1
 614 1120 l 1,1,-1
 1032 1120 l 1,2,-1
 1032 977 l 1,3,-1
 614 977 l 1,4,-1
 614 369 l 2,5,6
 614 245 614 245 661 196 c 128,-1,7
 708 147 708 147 825 147 c 2,8,-1
 1032 147 l 1,9,-1
 1032 0 l 1,10,-1
 807 0 l 2,11,12
 600 0 600 0 515 83 c 128,-1,13
 430 166 430 166 430 369 c 2,14,-1
 430 977 l 1,15,-1
 131 977 l 1,16,-1
 131 1120 l 1,17,-1
 430 1120 l 1,18,-1
 430 1438 l 1,19,-1
 614 1438 l 1,0,-1
EndSplineSet
EndChar

StartChar: u
Encoding: 117 117 88
Width: 1233
Flags: W
LayerCount: 2
Fore
SplineSet
195 424 m 2,0,-1
 195 1118 l 1,1,-1
 379 1118 l 1,2,-1
 379 424 l 2,3,4
 379 273 379 273 432.5 202 c 128,-1,5
 486 131 486 131 598 131 c 0,6,7
 728 131 728 131 797 222.5 c 128,-1,8
 866 314 866 314 866 485 c 2,9,-1
 866 1118 l 1,10,-1
 1051 1118 l 1,11,-1
 1051 0 l 1,12,-1
 866 0 l 1,13,-1
 866 168 l 1,14,15
 817 71 817 71 732.5 21 c 128,-1,16
 648 -29 648 -29 535 -29 c 0,17,18
 363 -29 363 -29 279 83.5 c 128,-1,19
 195 196 195 196 195 424 c 2,0,-1
EndSplineSet
EndChar

StartChar: v
Encoding: 118 118 89
Width: 1233
Flags: W
LayerCount: 2
Fore
SplineSet
100 1120 m 1,0,-1
 291 1120 l 1,1,-1
 616 180 l 1,2,-1
 942 1120 l 1,3,-1
 1133 1120 l 1,4,-1
 735 0 l 1,5,-1
 498 0 l 1,6,-1
 100 1120 l 1,0,-1
EndSplineSet
EndChar

StartChar: w
Encoding: 119 119 90
Width: 1233
Flags: W
LayerCount: 2
Fore
SplineSet
0 1120 m 1,0,-1
 182 1120 l 1,1,-1
 377 215 l 1,2,-1
 537 793 l 1,3,-1
 694 793 l 1,4,-1
 856 215 l 1,5,-1
 1051 1120 l 1,6,-1
 1233 1120 l 1,7,-1
 971 0 l 1,8,-1
 795 0 l 1,9,-1
 616 614 l 1,10,-1
 438 0 l 1,11,-1
 262 0 l 1,12,-1
 0 1120 l 1,0,-1
EndSplineSet
EndChar

StartChar: x
Encoding: 120 120 91
Width: 1233
Flags: W
LayerCount: 2
Fore
SplineSet
1118 1120 m 1,0,-1
 717 584 l 1,1,-1
 1157 0 l 1,2,-1
 944 0 l 1,3,-1
 616 449 l 1,4,-1
 289 0 l 1,5,-1
 76 0 l 1,6,-1
 516 584 l 1,7,-1
 115 1120 l 1,8,-1
 319 1120 l 1,9,-1
 616 715 l 1,10,-1
 911 1120 l 1,11,-1
 1118 1120 l 1,0,-1
EndSplineSet
EndChar

StartChar: y
Encoding: 121 121 92
Width: 1233
Flags: W
LayerCount: 2
Fore
SplineSet
858 360 m 2,0,1
 812 243 812 243 741 52 c 0,2,3
 642 -212 642 -212 608 -270 c 0,4,5
 562 -348 562 -348 493 -387 c 128,-1,6
 424 -426 424 -426 332 -426 c 2,7,-1
 184 -426 l 1,8,-1
 184 -272 l 1,9,-1
 293 -272 l 2,10,11
 374 -272 374 -272 420 -225 c 128,-1,12
 466 -178 466 -178 537 18 c 1,13,-1
 104 1120 l 1,14,-1
 299 1120 l 1,15,-1
 631 244 l 1,16,-1
 958 1120 l 1,17,-1
 1153 1120 l 1,18,-1
 858 360 l 2,0,1
EndSplineSet
EndChar

StartChar: z
Encoding: 122 122 93
Width: 1233
Flags: W
LayerCount: 2
Fore
SplineSet
227 1122 m 1,0,-1
 1040 1122 l 1,1,-1
 1040 954 l 1,2,-1
 397 150 l 1,3,-1
 1040 150 l 1,4,-1
 1040 0 l 1,5,-1
 203 0 l 1,6,-1
 203 170 l 1,7,-1
 846 975 l 1,8,-1
 227 975 l 1,9,-1
 227 1122 l 1,0,-1
EndSplineSet
EndChar

StartChar: braceleft
Encoding: 123 123 94
Width: 1233
Flags: W
LayerCount: 2
Fore
SplineSet
1032 -51 m 1,0,-1
 1032 -195 l 1,1,-1
 968 -195 l 2,2,3
 719 -195 719 -195 634.5 -121 c 128,-1,4
 550 -47 550 -47 550 174 c 2,5,-1
 550 374 l 2,6,7
 550 483 550 483 488.5 562 c 128,-1,8
 427 641 427 641 298 641 c 2,9,-1
 176 641 l 1,10,-1
 176 784 l 1,11,-1
 298 784 l 2,12,13
 439 784 439 784 494.5 851 c 128,-1,14
 550 918 550 918 550 1048 c 2,15,-1
 550 1308 l 2,16,17
 550 1529 550 1529 634.5 1602.5 c 128,-1,18
 719 1676 719 1676 968 1676 c 2,19,-1
 1032 1676 l 1,20,-1
 1032 1533 l 1,21,-1
 962 1533 l 2,22,23
 822 1533 822 1533 779.5 1489.5 c 128,-1,24
 737 1446 737 1446 737 1304 c 2,25,-1
 737 1036 l 2,26,27
 737 860 737 860 668 799.5 c 128,-1,28
 599 739 599 739 399 712 c 1,29,30
 593 689 593 689 665 623.5 c 128,-1,31
 737 558 737 558 737 387 c 2,32,-1
 737 178 l 2,33,34
 737 35 737 35 779.5 -8 c 128,-1,35
 822 -51 822 -51 962 -51 c 2,36,-1
 1032 -51 l 1,0,-1
EndSplineSet
Substitution2: "'rtla' Right to Left Alternates lookup 0 subtable" braceright
EndChar

StartChar: bar
Encoding: 124 124 95
Width: 1233
Flags: W
LayerCount: 2
Fore
SplineSet
742 1565 m 1,0,-1
 742 -483 l 1,1,-1
 570 -483 l 1,2,-1
 570 1565 l 1,3,-1
 742 1565 l 1,0,-1
EndSplineSet
EndChar

StartChar: braceright
Encoding: 125 125 96
Width: 1233
Flags: W
LayerCount: 2
Fore
SplineSet
289 -51 m 2,0,1
 429 -51 429 -51 471.5 -8 c 128,-1,2
 514 35 514 35 514 178 c 2,3,-1
 514 387 l 2,4,5
 514 558 514 558 586 623.5 c 128,-1,6
 658 689 658 689 852 712 c 1,7,8
 652 739 652 739 583 799.5 c 128,-1,9
 514 860 514 860 514 1036 c 2,10,-1
 514 1304 l 2,11,12
 514 1446 514 1446 471.5 1489.5 c 128,-1,13
 429 1533 429 1533 289 1533 c 2,14,-1
 219 1533 l 1,15,-1
 219 1676 l 1,16,-1
 283 1676 l 2,17,18
 532 1676 532 1676 616.5 1602.5 c 128,-1,19
 701 1529 701 1529 701 1308 c 2,20,-1
 701 1048 l 2,21,22
 701 918 701 918 756.5 851 c 128,-1,23
 812 784 812 784 953 784 c 2,24,-1
 1075 784 l 1,25,-1
 1075 641 l 1,26,-1
 953 641 l 2,27,28
 824 641 824 641 762.5 562 c 128,-1,29
 701 483 701 483 701 374 c 2,30,-1
 701 174 l 2,31,32
 701 -47 701 -47 616.5 -121 c 128,-1,33
 532 -195 532 -195 283 -195 c 2,34,-1
 219 -195 l 1,35,-1
 219 -51 l 1,36,-1
 289 -51 l 2,0,1
EndSplineSet
Substitution2: "'rtla' Right to Left Alternates lookup 0 subtable" braceleft
EndChar

StartChar: asciitilde
Encoding: 126 126 97
Width: 1233
Flags: W
LayerCount: 2
Fore
SplineSet
1087 784 m 1,0,-1
 1217 696 l 1,1,2
 1131 500 1131 500 1048 428.5 c 128,-1,3
 965 357 965 357 877 357 c 1,4,5
 737 365 737 365 624.5 502.5 c 128,-1,6
 512 640 512 640 466 697.5 c 128,-1,7
 420 755 420 755 347 754 c 0,8,9
 270 754 270 754 230 681.5 c 128,-1,10
 190 609 190 609 146 497 c 1,11,-1
 13 573 l 1,12,13
 71 758 71 758 163 846 c 128,-1,14
 255 934 255 934 348 934 c 0,15,16
 517 936 517 936 650.5 734 c 128,-1,17
 784 532 784 532 877 532 c 0,18,19
 956 532 956 532 1006 618.5 c 128,-1,20
 1056 705 1056 705 1087 784 c 1,0,-1
EndSplineSet
EndChar

StartChar: exclamdown
Encoding: 161 161 99
Width: 1233
Flags: W
LayerCount: 2
Fore
SplineSet
516 1239 m 1,0,-1
 516 1493 l 1,1,-1
 719 1493 l 1,2,-1
 719 1239 l 1,3,-1
 516 1239 l 1,0,-1
516 0 m 1,4,-1
 516 655 l 1,5,-1
 537 1012 l 1,6,-1
 698 1012 l 1,7,-1
 719 655 l 1,8,-1
 719 0 l 1,9,-1
 516 0 l 1,4,-1
EndSplineSet
EndChar

StartChar: cent
Encoding: 162 162 100
Width: 1233
Flags: W
LayerCount: 2
Fore
SplineSet
1061 1077 m 1,0,-1
 1061 905 l 1,1,2
 994 945 994 945 929 967 c 128,-1,3
 864 989 864 989 821 993 c 1,4,-1
 821 123 l 1,5,6
 864 128 864 128 929.5 150.5 c 128,-1,7
 995 173 995 173 1061 213 c 1,8,-1
 1061 41 l 1,9,10
 988 10 988 10 923 -7 c 128,-1,11
 858 -24 858 -24 821 -27 c 1,12,-1
 821 -313 l 1,13,-1
 698 -313 l 1,14,-1
 698 -27 l 1,15,16
 473 -5 473 -5 343 151.5 c 128,-1,17
 213 308 213 308 213 559 c 0,18,19
 213 809 213 809 344.5 967.5 c 128,-1,20
 476 1126 476 1126 698 1145 c 1,21,-1
 698 1432 l 1,22,-1
 821 1432 l 1,23,-1
 821 1145 l 1,24,25
 858 1142 858 1142 923 1125 c 128,-1,26
 988 1108 988 1108 1061 1077 c 1,0,-1
698 127 m 1,27,-1
 698 991 l 1,28,29
 566 979 566 979 486 861 c 128,-1,30
 406 743 406 743 406 559 c 256,31,32
 406 375 406 375 486 257.5 c 128,-1,33
 566 140 566 140 698 127 c 1,27,-1
EndSplineSet
EndChar

StartChar: sterling
Encoding: 163 163 101
Width: 1233
Flags: W
LayerCount: 2
Fore
SplineSet
1092 1462 m 1,0,-1
 1092 1278 l 1,1,2
 1030 1322 1030 1322 966.5 1344 c 128,-1,3
 903 1366 903 1366 836 1366 c 0,4,5
 702 1366 702 1366 638.5 1276.5 c 128,-1,6
 575 1187 575 1187 575 995 c 2,7,-1
 575 778 l 1,8,-1
 946 778 l 1,9,-1
 946 635 l 1,10,-1
 575 635 l 1,11,-1
 575 170 l 1,12,-1
 1112 170 l 1,13,-1
 1112 0 l 1,14,-1
 139 0 l 1,15,-1
 139 170 l 1,16,-1
 375 170 l 1,17,-1
 375 635 l 1,18,-1
 176 635 l 1,19,-1
 176 778 l 1,20,-1
 375 778 l 1,21,-1
 375 1016 l 2,22,23
 375 1270 375 1270 484.5 1395 c 128,-1,24
 594 1520 594 1520 817 1520 c 0,25,26
 882 1520 882 1520 950.5 1505.5 c 128,-1,27
 1019 1491 1019 1491 1092 1462 c 1,0,-1
EndSplineSet
EndChar

StartChar: currency
Encoding: 164 164 102
Width: 1233
Flags: W
LayerCount: 2
Fore
SplineSet
866 644 m 0,0,1
 866 734 866 734 804.5 795 c 128,-1,2
 743 856 743 856 652 856 c 0,3,4
 562 856 562 856 500 795 c 128,-1,5
 438 734 438 734 438 644 c 0,6,7
 438 552 438 552 500 490 c 128,-1,8
 562 428 562 428 652 428 c 0,9,10
 743 428 743 428 804.5 490.5 c 128,-1,11
 866 553 866 553 866 644 c 0,0,1
842 924 m 1,12,-1
 1010 1090 l 1,13,-1
 1100 997 l 1,14,-1
 933 831 l 1,15,16
 964 782 964 782 978.5 736 c 128,-1,17
 993 690 993 690 993 642 c 0,18,19
 993 592 993 592 978 547 c 128,-1,20
 963 502 963 502 931 457 c 1,21,-1
 1100 289 l 1,22,-1
 1006 195 l 1,23,-1
 838 363 l 1,24,25
 792 331 792 331 747 316 c 128,-1,26
 702 301 702 301 652 301 c 0,27,28
 604 301 604 301 556.5 315.5 c 128,-1,29
 509 330 509 330 461 359 c 1,30,-1
 297 195 l 1,31,-1
 205 285 l 1,32,-1
 371 453 l 1,33,34
 340 504 340 504 325.5 550 c 128,-1,35
 311 596 311 596 311 642 c 0,36,37
 311 692 311 692 326.5 738 c 128,-1,38
 342 784 342 784 373 829 c 1,39,-1
 205 995 l 1,40,-1
 299 1090 l 1,41,-1
 465 922 l 1,42,43
 511 953 511 953 556 968 c 128,-1,44
 601 983 601 983 652 983 c 0,45,46
 698 983 698 983 744.5 968.5 c 128,-1,47
 791 954 791 954 842 924 c 1,12,-1
EndSplineSet
EndChar

StartChar: yen
Encoding: 165 165 103
Width: 1233
Flags: W
LayerCount: 2
Fore
SplineSet
37 1493 m 1,0,-1
 252 1493 l 1,1,-1
 616 834 l 1,2,-1
 979 1493 l 1,3,-1
 1196 1493 l 1,4,-1
 866 932 l 1,5,-1
 1118 932 l 1,6,-1
 1118 821 l 1,7,-1
 803 821 l 1,8,-1
 717 670 l 1,9,-1
 717 635 l 1,10,-1
 1118 635 l 1,11,-1
 1118 524 l 1,12,-1
 717 524 l 1,13,-1
 717 0 l 1,14,-1
 514 0 l 1,15,-1
 514 524 l 1,16,-1
 115 524 l 1,17,-1
 115 635 l 1,18,-1
 514 635 l 1,19,-1
 514 670 l 1,20,-1
 424 821 l 1,21,-1
 115 821 l 1,22,-1
 115 932 l 1,23,-1
 358 932 l 1,24,-1
 37 1493 l 1,0,-1
EndSplineSet
EndChar

StartChar: brokenbar
Encoding: 166 166 104
Width: 1233
Flags: W
LayerCount: 2
Fore
SplineSet
700 1432 m 1,0,-1
 700 674 l 1,1,-1
 530 674 l 1,2,-1
 530 1432 l 1,3,-1
 700 1432 l 1,0,-1
700 408 m 1,4,-1
 700 -350 l 1,5,-1
 530 -350 l 1,6,-1
 530 408 l 1,7,-1
 700 408 l 1,4,-1
EndSplineSet
EndChar

StartChar: section
Encoding: 167 167 105
Width: 1233
Flags: W
LayerCount: 2
Fore
SplineSet
936 1462 m 1,0,-1
 936 1298 l 1,1,2
 853 1337 853 1337 781.5 1356.5 c 128,-1,3
 710 1376 710 1376 653 1376 c 0,4,5
 556 1376 556 1376 502.5 1336 c 128,-1,6
 449 1296 449 1296 449 1225 c 0,7,8
 449 1135 449 1135 654 1020 c 0,9,10
 680 1005 680 1005 694 997 c 0,11,12
 906 878 906 878 971 801 c 128,-1,13
 1036 724 1036 724 1036 623 c 0,14,15
 1036 533 1036 533 990.5 463 c 128,-1,16
 945 393 945 393 852 340 c 1,17,18
 913 288 913 288 942 233.5 c 128,-1,19
 971 179 971 179 971 115 c 0,20,21
 971 -27 971 -27 869 -111 c 128,-1,22
 767 -195 767 -195 594 -195 c 0,23,24
 521 -195 521 -195 443.5 -180.5 c 128,-1,25
 366 -166 366 -166 279 -137 c 1,26,-1
 279 27 l 1,27,28
 366 -12 366 -12 440 -31.5 c 128,-1,29
 514 -51 514 -51 571 -51 c 0,30,31
 673 -51 673 -51 729.5 -9 c 128,-1,32
 786 33 786 33 786 109 c 0,33,34
 786 211 786 211 565 334 c 1,35,-1
 541 348 l 1,36,37
 327 468 327 468 263 544.5 c 128,-1,38
 199 621 199 621 199 723 c 0,39,40
 199 814 199 814 245.5 885.5 c 128,-1,41
 292 957 292 957 383 1006 c 1,42,43
 323 1050 323 1050 293.5 1106 c 128,-1,44
 264 1162 264 1162 264 1231 c 0,45,46
 264 1361 264 1361 364 1440.5 c 128,-1,47
 464 1520 464 1520 631 1520 c 0,48,49
 703 1520 703 1520 779.5 1505.5 c 128,-1,50
 856 1491 856 1491 936 1462 c 1,0,-1
485 936 m 1,51,52
 423 891 423 891 392.5 846 c 128,-1,53
 362 801 362 801 362 754 c 0,54,55
 362 678 362 678 432.5 610.5 c 128,-1,56
 503 543 503 543 750 410 c 1,57,58
 812 455 812 455 842 500 c 128,-1,59
 872 545 872 545 872 592 c 0,60,61
 872 668 872 668 800.5 736 c 128,-1,62
 729 804 729 804 485 936 c 1,51,52
EndSplineSet
EndChar

StartChar: dieresis
Encoding: 168 168 106
Width: 1233
Flags: W
LayerCount: 2
Fore
SplineSet
319 1552 m 1,0,-1
 522 1552 l 1,1,-1
 522 1350 l 1,2,-1
 319 1350 l 1,3,-1
 319 1552 l 1,0,-1
711 1552 m 1,4,-1
 913 1552 l 1,5,-1
 913 1350 l 1,6,-1
 711 1350 l 1,7,-1
 711 1552 l 1,4,-1
EndSplineSet
EndChar

StartChar: copyright
Encoding: 169 169 107
Width: 1233
Flags: W
LayerCount: 2
Fore
SplineSet
864 1071 m 1,0,-1
 864 963 l 1,1,2
 806 991 806 991 750.5 1004.5 c 128,-1,3
 695 1018 695 1018 637 1018 c 0,4,5
 520 1018 520 1018 452.5 943.5 c 128,-1,6
 385 869 385 869 385 741 c 0,7,8
 385 609 385 609 455 538 c 128,-1,9
 525 467 525 467 655 467 c 0,10,11
 711 467 711 467 762.5 479.5 c 128,-1,12
 814 492 814 492 864 518 c 1,13,-1
 864 414 l 1,14,15
 812 391 812 391 755 380 c 128,-1,16
 698 369 698 369 637 369 c 0,17,18
 457 369 457 369 353.5 469 c 128,-1,19
 250 569 250 569 250 741 c 0,20,21
 250 914 250 914 354 1015 c 128,-1,22
 458 1116 458 1116 637 1116 c 0,23,24
 698 1116 698 1116 755 1105 c 128,-1,25
 812 1094 812 1094 864 1071 c 1,0,-1
616 1255 m 0,26,27
 510 1255 510 1255 419.5 1218 c 128,-1,28
 329 1181 329 1181 254 1106 c 256,29,30
 179 1031 179 1031 140.5 939 c 128,-1,31
 102 847 102 847 102 741 c 0,32,33
 102 637 102 637 140.5 545.5 c 128,-1,34
 179 454 179 454 254 379 c 0,35,36
 330 303 330 303 420.5 265 c 128,-1,37
 511 227 511 227 616 227 c 0,38,39
 722 227 722 227 812.5 265 c 128,-1,40
 903 303 903 303 979 379 c 256,41,42
 1055 455 1055 455 1092.5 545.5 c 128,-1,43
 1130 636 1130 636 1130 741 c 0,44,45
 1130 847 1130 847 1092 939 c 128,-1,46
 1054 1031 1054 1031 979 1106 c 256,47,48
 904 1181 904 1181 813.5 1218 c 128,-1,49
 723 1255 723 1255 616 1255 c 0,26,27
616 1358 m 0,50,51
 743 1358 743 1358 852 1313 c 128,-1,52
 961 1268 961 1268 1051 1178 c 0,53,54
 1141 1087 1141 1087 1187 977 c 128,-1,55
 1233 867 1233 867 1233 741 c 0,56,57
 1233 616 1233 616 1187.5 507 c 128,-1,58
 1142 398 1142 398 1051 307 c 256,59,60
 960 216 960 216 851 170.5 c 128,-1,61
 742 125 742 125 616 125 c 0,62,63
 491 125 491 125 382 170.5 c 128,-1,64
 273 216 273 216 182 307 c 256,65,66
 91 398 91 398 45.5 507 c 128,-1,67
 0 616 0 616 0 741 c 0,68,69
 0 867 0 867 46 977 c 128,-1,70
 92 1087 92 1087 182 1178 c 0,71,72
 272 1268 272 1268 381 1313 c 128,-1,73
 490 1358 490 1358 616 1358 c 0,50,51
EndSplineSet
EndChar

StartChar: ordfeminine
Encoding: 170 170 108
Width: 1233
Flags: W
LayerCount: 2
Fore
SplineSet
684 1104 m 2,0,1
 540 1104 540 1104 478 1070 c 128,-1,2
 416 1036 416 1036 416 958 c 0,3,4
 416 894 416 894 459.5 855.5 c 128,-1,5
 503 817 503 817 575 817 c 0,6,7
 680 817 680 817 745.5 888.5 c 128,-1,8
 811 960 811 960 811 1075 c 2,9,-1
 811 1104 l 1,10,-1
 684 1104 l 2,0,1
954 1165 m 2,11,-1
 954 717 l 1,12,-1
 811 717 l 1,13,-1
 811 829 l 1,14,15
 762 764 762 764 696.5 731 c 128,-1,16
 631 698 631 698 549 698 c 0,17,18
 420 698 420 698 345 766 c 128,-1,19
 270 834 270 834 270 950 c 0,20,21
 270 1079 270 1079 363.5 1149 c 128,-1,22
 457 1219 457 1219 629 1219 c 2,23,-1
 811 1219 l 1,24,-1
 811 1223 l 2,25,26
 811 1313 811 1313 751.5 1359 c 128,-1,27
 692 1405 692 1405 575 1405 c 0,28,29
 524 1405 524 1405 461.5 1387.5 c 128,-1,30
 399 1370 399 1370 332 1337 c 1,31,-1
 332 1464 l 1,32,33
 400 1492 400 1492 467.5 1506 c 128,-1,34
 535 1520 535 1520 598 1520 c 0,35,36
 782 1520 782 1520 868 1434 c 128,-1,37
 954 1348 954 1348 954 1165 c 2,11,-1
293 592 m 1,38,-1
 961 592 l 1,39,-1
 961 469 l 1,40,-1
 293 469 l 1,41,-1
 293 592 l 1,38,-1
EndSplineSet
EndChar

StartChar: guillemotleft
Encoding: 171 171 109
Width: 1233
Flags: W
LayerCount: 2
Fore
SplineSet
588 1059 m 1,0,-1
 588 868 l 1,1,-1
 287 600 l 1,2,-1
 588 332 l 1,3,-1
 588 141 l 1,4,-1
 119 559 l 1,5,-1
 119 641 l 1,6,-1
 588 1059 l 1,0,-1
1042 1059 m 1,7,-1
 1042 868 l 1,8,-1
 741 600 l 1,9,-1
 1042 332 l 1,10,-1
 1042 141 l 1,11,-1
 573 559 l 1,12,-1
 573 641 l 1,13,-1
 1042 1059 l 1,7,-1
EndSplineSet
EndChar

StartChar: logicalnot
Encoding: 172 172 110
Width: 1233
Flags: W
LayerCount: 2
Fore
SplineSet
88 862 m 1,0,-1
 1145 862 l 1,1,-1
 1145 371 l 1,2,-1
 977 371 l 1,3,-1
 977 690 l 1,4,-1
 88 690 l 1,5,-1
 88 862 l 1,0,-1
EndSplineSet
EndChar

StartChar: sfthyphen
Encoding: 173 173 111
Width: 1233
Flags: W
LayerCount: 2
Fore
SplineSet
132 744 m 1,0,-1
 1122 744 l 1,1,-1
 1122 555 l 1,2,-1
 132 555 l 1,3,-1
 132 744 l 1,0,-1
EndSplineSet
EndChar

StartChar: registered
Encoding: 174 174 112
Width: 1233
Flags: W
LayerCount: 2
Fore
SplineSet
600 1100 m 2,0,1
 747 1100 747 1100 819 1051 c 128,-1,2
 891 1002 891 1002 891 901 c 0,3,4
 891 830 891 830 847 783.5 c 128,-1,5
 803 737 803 737 723 723 c 1,6,7
 742 718 742 718 771 684.5 c 128,-1,8
 800 651 800 651 838 592 c 2,9,-1
 952 406 l 1,10,-1
 809 406 l 1,11,-1
 702 580 l 2,12,13
 653 660 653 660 622.5 681 c 128,-1,14
 592 702 592 702 547 702 c 2,15,-1
 492 702 l 1,16,-1
 492 406 l 1,17,-1
 362 406 l 1,18,-1
 362 1100 l 1,19,-1
 600 1100 l 2,0,1
594 1016 m 2,20,-1
 492 1016 l 1,21,-1
 492 784 l 1,22,-1
 594 784 l 2,23,24
 684 784 684 784 721 811 c 128,-1,25
 758 838 758 838 758 901 c 0,26,27
 758 963 758 963 721 989.5 c 128,-1,28
 684 1016 684 1016 594 1016 c 2,20,-1
616 1358 m 0,29,30
 743 1358 743 1358 852 1313 c 128,-1,31
 961 1268 961 1268 1051 1178 c 0,32,33
 1141 1087 1141 1087 1187 977 c 128,-1,34
 1233 867 1233 867 1233 741 c 0,35,36
 1233 616 1233 616 1187.5 507 c 128,-1,37
 1142 398 1142 398 1051 307 c 256,38,39
 960 216 960 216 851 170.5 c 128,-1,40
 742 125 742 125 616 125 c 0,41,42
 491 125 491 125 382 170.5 c 128,-1,43
 273 216 273 216 182 307 c 256,44,45
 91 398 91 398 45.5 507 c 128,-1,46
 0 616 0 616 0 741 c 0,47,48
 0 867 0 867 46 977 c 128,-1,49
 92 1087 92 1087 182 1178 c 0,50,51
 272 1268 272 1268 381 1313 c 128,-1,52
 490 1358 490 1358 616 1358 c 0,29,30
616 1255 m 0,53,54
 510 1255 510 1255 419.5 1218 c 128,-1,55
 329 1181 329 1181 254 1106 c 256,56,57
 179 1031 179 1031 140.5 939 c 128,-1,58
 102 847 102 847 102 741 c 0,59,60
 102 637 102 637 140.5 545.5 c 128,-1,61
 179 454 179 454 254 379 c 0,62,63
 330 303 330 303 420.5 265 c 128,-1,64
 511 227 511 227 616 227 c 0,65,66
 722 227 722 227 812.5 265 c 128,-1,67
 903 303 903 303 979 379 c 256,68,69
 1055 455 1055 455 1092.5 545.5 c 128,-1,70
 1130 636 1130 636 1130 741 c 0,71,72
 1130 847 1130 847 1092 939 c 128,-1,73
 1054 1031 1054 1031 979 1106 c 256,74,75
 904 1181 904 1181 813.5 1218 c 128,-1,76
 723 1255 723 1255 616 1255 c 0,53,54
EndSplineSet
EndChar

StartChar: macron
Encoding: 175 175 113
Width: 1233
Flags: W
LayerCount: 2
Fore
SplineSet
117 1526 m 1,0,-1
 1115 1526 l 1,1,-1
 1115 1378 l 1,2,-1
 117 1378 l 1,3,-1
 117 1526 l 1,0,-1
EndSplineSet
EndChar

StartChar: degree
Encoding: 176 176 114
Width: 1233
Flags: W
LayerCount: 2
Fore
SplineSet
616 1520 m 0,0,1
 681 1520 681 1520 739.5 1495.5 c 128,-1,2
 798 1471 798 1471 842 1425 c 0,3,4
 887 1380 887 1380 910.5 1323 c 128,-1,5
 934 1266 934 1266 934 1200 c 0,6,7
 934 1068 934 1068 841 976.5 c 128,-1,8
 748 885 748 885 614 885 c 0,9,10
 479 885 479 885 389 975 c 128,-1,11
 299 1065 299 1065 299 1200 c 0,12,13
 299 1334 299 1334 391 1427 c 128,-1,14
 483 1520 483 1520 616 1520 c 0,0,1
616 1391 m 256,15,16
 537 1391 537 1391 481.5 1335.5 c 128,-1,17
 426 1280 426 1280 426 1200 c 256,18,19
 426 1120 426 1120 480.5 1066 c 128,-1,20
 535 1012 535 1012 614 1012 c 0,21,22
 694 1012 694 1012 750.5 1067 c 128,-1,23
 807 1122 807 1122 807 1200 c 0,24,25
 807 1279 807 1279 751 1335 c 128,-1,26
 695 1391 695 1391 616 1391 c 256,15,16
EndSplineSet
EndChar

StartChar: plusminus
Encoding: 177 177 115
Width: 1233
Flags: W
LayerCount: 2
Fore
SplineSet
88 170 m 1,0,-1
 1145 170 l 1,1,-1
 1145 0 l 1,2,-1
 88 0 l 1,3,-1
 88 170 l 1,0,-1
700 1291 m 1,4,-1
 700 922 l 1,5,-1
 1145 922 l 1,6,-1
 1145 752 l 1,7,-1
 700 752 l 1,8,-1
 700 380 l 1,9,-1
 532 380 l 1,10,-1
 532 752 l 1,11,-1
 88 752 l 1,12,-1
 88 922 l 1,13,-1
 532 922 l 1,14,-1
 532 1291 l 1,15,-1
 700 1291 l 1,4,-1
EndSplineSet
EndChar

StartChar: twosuperior
Encoding: 178 178 116
Width: 1233
Flags: W
LayerCount: 2
Fore
SplineSet
483 782 m 1,0,-1
 893 782 l 1,1,-1
 893 668 l 1,2,-1
 322 668 l 1,3,-1
 322 778 l 1,4,-1
 553 1004 l 2,5,6
 654 1101 654 1101 694.5 1162 c 128,-1,7
 735 1223 735 1223 735 1274 c 0,8,9
 735 1335 735 1335 685 1373 c 128,-1,10
 635 1411 635 1411 553 1411 c 0,11,12
 504 1411 504 1411 447.5 1393 c 128,-1,13
 391 1375 391 1375 328 1339 c 1,14,-1
 328 1464 l 1,15,16
 393 1492 393 1492 453.5 1506 c 128,-1,17
 514 1520 514 1520 573 1520 c 0,18,19
 715 1520 715 1520 801 1453.5 c 128,-1,20
 887 1387 887 1387 887 1280 c 0,21,22
 887 1223 887 1223 850 1163.5 c 128,-1,23
 813 1104 813 1104 694 987 c 2,24,-1
 483 782 l 1,0,-1
EndSplineSet
EndChar

StartChar: threesuperior
Encoding: 179 179 117
Width: 1233
Flags: W
LayerCount: 2
Fore
SplineSet
731 1120 m 1,0,1
 825 1099 825 1099 874.5 1045 c 128,-1,2
 924 991 924 991 924 911 c 0,3,4
 924 787 924 787 829 720 c 128,-1,5
 734 653 734 653 557 653 c 0,6,7
 499 653 499 653 442 663.5 c 128,-1,8
 385 674 385 674 326 694 c 1,9,-1
 326 815 l 1,10,11
 395 788 395 788 451.5 775 c 128,-1,12
 508 762 508 762 553 762 c 0,13,14
 654 762 654 762 713 802.5 c 128,-1,15
 772 843 772 843 772 911 c 0,16,17
 772 985 772 985 717 1023 c 128,-1,18
 662 1061 662 1061 553 1061 c 2,19,-1
 487 1061 l 1,20,-1
 487 1169 l 1,21,-1
 561 1169 l 2,22,23
 654 1169 654 1169 703 1200.5 c 128,-1,24
 752 1232 752 1232 752 1292 c 0,25,26
 752 1348 752 1348 704 1379.5 c 128,-1,27
 656 1411 656 1411 569 1411 c 0,28,29
 525 1411 525 1411 469 1399 c 128,-1,30
 413 1387 413 1387 354 1364 c 1,31,-1
 354 1485 l 1,32,33
 423 1502 423 1502 481.5 1511 c 128,-1,34
 540 1520 540 1520 590 1520 c 0,35,36
 735 1520 735 1520 819 1461 c 128,-1,37
 903 1402 903 1402 903 1303 c 0,38,39
 903 1232 903 1232 859 1185.5 c 128,-1,40
 815 1139 815 1139 731 1120 c 1,0,1
EndSplineSet
EndChar

StartChar: acute
Encoding: 180 180 118
Width: 1233
Flags: W
LayerCount: 2
Fore
SplineSet
756 1638 m 1,0,-1
 954 1638 l 1,1,-1
 629 1262 l 1,2,-1
 475 1262 l 1,3,-1
 756 1638 l 1,0,-1
EndSplineSet
EndChar

StartChar: mu
Encoding: 181 181 119
Width: 1233
Flags: W
LayerCount: 2
Fore
SplineSet
195 -428 m 1,0,-1
 195 1120 l 1,1,-1
 379 1120 l 1,2,-1
 379 424 l 2,3,4
 379 282 379 282 439 206.5 c 128,-1,5
 499 131 499 131 610 131 c 0,6,7
 737 131 737 131 801.5 216 c 128,-1,8
 866 301 866 301 866 467 c 2,9,-1
 866 1120 l 1,10,-1
 1051 1120 l 1,11,-1
 1051 256 l 2,12,13
 1051 197 1051 197 1067 169 c 128,-1,14
 1083 141 1083 141 1116 141 c 0,15,16
 1125 141 1125 141 1139.5 146 c 128,-1,17
 1154 151 1154 151 1182 164 c 1,18,-1
 1182 16 l 1,19,20
 1144 -7 1144 -7 1110 -18 c 128,-1,21
 1076 -29 1076 -29 1042 -29 c 0,22,23
 980 -29 980 -29 942.5 10.5 c 128,-1,24
 905 50 905 50 893 129 c 1,25,26
 847 49 847 49 780.5 10 c 128,-1,27
 714 -29 714 -29 625 -29 c 0,28,29
 533 -29 533 -29 469.5 9 c 128,-1,30
 406 47 406 47 362 127 c 1,31,-1
 362 -428 l 1,32,-1
 195 -428 l 1,0,-1
EndSplineSet
EndChar

StartChar: paragraph
Encoding: 182 182 120
Width: 1233
Flags: W
LayerCount: 2
Fore
SplineSet
582 1493 m 2,0,-1
 1030 1493 l 1,1,-1
 1030 -197 l 1,2,-1
 889 -197 l 1,3,-1
 889 1370 l 1,4,-1
 698 1370 l 1,5,-1
 698 -197 l 1,6,-1
 557 -197 l 1,7,-1
 557 649 l 1,8,9
 342 666 342 666 224 776.5 c 128,-1,10
 106 887 106 887 106 1071 c 0,11,12
 106 1261 106 1261 236.5 1377 c 128,-1,13
 367 1493 367 1493 582 1493 c 2,0,-1
EndSplineSet
EndChar

StartChar: periodcentered
Encoding: 183 183 121
Width: 1233
Flags: W
LayerCount: 2
Fore
SplineSet
489 864 m 1,0,-1
 741 864 l 1,1,-1
 741 559 l 1,2,-1
 489 559 l 1,3,-1
 489 864 l 1,0,-1
EndSplineSet
EndChar

StartChar: cedilla
Encoding: 184 184 122
Width: 1233
Flags: W
LayerCount: 2
Fore
SplineSet
700 0 m 1,0,1
 756 -62 756 -62 782.5 -114.5 c 128,-1,2
 809 -167 809 -167 809 -215 c 0,3,4
 809 -304 809 -304 749 -349.5 c 128,-1,5
 689 -395 689 -395 571 -395 c 0,6,7
 526 -395 526 -395 482.5 -389 c 128,-1,8
 439 -383 439 -383 395 -371 c 1,9,-1
 395 -240 l 1,10,11
 429 -257 429 -257 466.5 -264.5 c 128,-1,12
 504 -272 504 -272 551 -272 c 0,13,14
 609 -272 609 -272 639.5 -248 c 128,-1,15
 670 -224 670 -224 670 -178 c 0,16,17
 670 -148 670 -148 648 -104.5 c 128,-1,18
 626 -61 626 -61 582 0 c 1,19,-1
 700 0 l 1,0,1
EndSplineSet
EndChar

StartChar: onesuperior
Encoding: 185 185 123
Width: 1233
Flags: W
LayerCount: 2
Fore
SplineSet
362 778 m 1,0,-1
 567 778 l 1,1,-1
 567 1389 l 1,2,-1
 344 1348 l 1,3,-1
 344 1464 l 1,4,-1
 573 1503 l 1,5,-1
 711 1503 l 1,6,-1
 711 778 l 1,7,-1
 915 778 l 1,8,-1
 915 668 l 1,9,-1
 362 668 l 1,10,-1
 362 778 l 1,0,-1
EndSplineSet
EndChar

StartChar: ordmasculine
Encoding: 186 186 124
Width: 1233
Flags: W
LayerCount: 2
Fore
SplineSet
616 1403 m 0,0,1
 514 1403 514 1403 456.5 1325 c 128,-1,2
 399 1247 399 1247 399 1108 c 256,3,4
 399 969 399 969 456.5 892 c 128,-1,5
 514 815 514 815 616 815 c 0,6,7
 717 815 717 815 775.5 893.5 c 128,-1,8
 834 972 834 972 834 1108 c 0,9,10
 834 1247 834 1247 776.5 1325 c 128,-1,11
 719 1403 719 1403 616 1403 c 0,0,1
616 1520 m 0,12,13
 786 1520 786 1520 887.5 1408 c 128,-1,14
 989 1296 989 1296 989 1108 c 0,15,16
 989 921 989 921 888 809.5 c 128,-1,17
 787 698 787 698 616 698 c 0,18,19
 446 698 446 698 345 809.5 c 128,-1,20
 244 921 244 921 244 1108 c 0,21,22
 244 1296 244 1296 345.5 1408 c 128,-1,23
 447 1520 447 1520 616 1520 c 0,12,13
276 592 m 1,24,-1
 952 592 l 1,25,-1
 952 469 l 1,26,-1
 276 469 l 1,27,-1
 276 592 l 1,24,-1
EndSplineSet
EndChar

StartChar: guillemotright
Encoding: 187 187 125
Width: 1233
Flags: W
LayerCount: 2
Fore
SplineSet
647 1059 m 1,0,-1
 1116 641 l 1,1,-1
 1116 559 l 1,2,-1
 647 141 l 1,3,-1
 647 332 l 1,4,-1
 948 600 l 1,5,-1
 647 868 l 1,6,-1
 647 1059 l 1,0,-1
193 1059 m 1,7,-1
 662 641 l 1,8,-1
 662 559 l 1,9,-1
 193 141 l 1,10,-1
 193 332 l 1,11,-1
 494 600 l 1,12,-1
 193 868 l 1,13,-1
 193 1059 l 1,7,-1
EndSplineSet
EndChar

StartChar: onequarter
Encoding: 188 188 126
Width: 1233
Flags: W
LayerCount: 2
Fore
SplineSet
815 566 m 1,0,-1
 977 566 l 1,1,-1
 977 28 l 1,2,-1
 1093 28 l 1,3,-1
 1093 -83 l 1,4,-1
 977 -83 l 1,5,-1
 977 -269 l 1,6,-1
 839 -269 l 1,7,-1
 839 -83 l 1,8,-1
 452 -83 l 1,9,-1
 452 38 l 1,10,-1
 815 566 l 1,0,-1
839 441 m 1,11,-1
 565 28 l 1,12,-1
 839 28 l 1,13,-1
 839 441 l 1,11,-1
105 934 m 1,14,-1
 310 934 l 1,15,-1
 310 1545 l 1,16,-1
 87 1504 l 1,17,-1
 87 1620 l 1,18,-1
 316 1659 l 1,19,-1
 454 1659 l 1,20,-1
 454 934 l 1,21,-1
 658 934 l 1,22,-1
 658 824 l 1,23,-1
 105 824 l 1,24,-1
 105 934 l 1,14,-1
51 504 m 1,25,-1
 27 612 l 1,26,-1
 1087 874 l 1,27,-1
 1114 766 l 1,28,-1
 51 504 l 1,25,-1
EndSplineSet
EndChar

StartChar: onehalf
Encoding: 189 189 127
Width: 1233
Flags: W
LayerCount: 2
Fore
SplineSet
105 934 m 1,0,-1
 310 934 l 1,1,-1
 310 1545 l 1,2,-1
 87 1504 l 1,3,-1
 87 1620 l 1,4,-1
 316 1659 l 1,5,-1
 454 1659 l 1,6,-1
 454 934 l 1,7,-1
 658 934 l 1,8,-1
 658 824 l 1,9,-1
 105 824 l 1,10,-1
 105 934 l 1,0,-1
51 504 m 1,11,-1
 27 612 l 1,12,-1
 1087 874 l 1,13,-1
 1114 766 l 1,14,-1
 51 504 l 1,11,-1
684 -155 m 1,15,-1
 1094 -155 l 1,16,-1
 1094 -269 l 1,17,-1
 523 -269 l 1,18,-1
 523 -159 l 1,19,-1
 754 67 l 2,20,21
 855 164 855 164 895.5 225 c 128,-1,22
 936 286 936 286 936 337 c 0,23,24
 936 398 936 398 886 436 c 128,-1,25
 836 474 836 474 754 474 c 0,26,27
 705 474 705 474 648.5 456 c 128,-1,28
 592 438 592 438 529 402 c 1,29,-1
 529 527 l 1,30,31
 594 555 594 555 654.5 569 c 128,-1,32
 715 583 715 583 774 583 c 0,33,34
 916 583 916 583 1002 516.5 c 128,-1,35
 1088 450 1088 450 1088 343 c 0,36,37
 1088 286 1088 286 1051 226.5 c 128,-1,38
 1014 167 1014 167 895 50 c 2,39,-1
 684 -155 l 1,15,-1
EndSplineSet
EndChar

StartChar: threequarters
Encoding: 190 190 128
Width: 1233
Flags: W
LayerCount: 2
Fore
SplineSet
815 566 m 1,0,-1
 977 566 l 1,1,-1
 977 28 l 1,2,-1
 1093 28 l 1,3,-1
 1093 -83 l 1,4,-1
 977 -83 l 1,5,-1
 977 -269 l 1,6,-1
 839 -269 l 1,7,-1
 839 -83 l 1,8,-1
 452 -83 l 1,9,-1
 452 38 l 1,10,-1
 815 566 l 1,0,-1
839 441 m 1,11,-1
 565 28 l 1,12,-1
 839 28 l 1,13,-1
 839 441 l 1,11,-1
505 1276 m 1,14,15
 599 1255 599 1255 648.5 1201 c 128,-1,16
 698 1147 698 1147 698 1067 c 0,17,18
 698 943 698 943 603 876 c 128,-1,19
 508 809 508 809 331 809 c 0,20,21
 273 809 273 809 216 819.5 c 128,-1,22
 159 830 159 830 100 850 c 1,23,-1
 100 971 l 1,24,25
 169 944 169 944 225.5 931 c 128,-1,26
 282 918 282 918 327 918 c 0,27,28
 428 918 428 918 487 958.5 c 128,-1,29
 546 999 546 999 546 1067 c 0,30,31
 546 1141 546 1141 491 1179 c 128,-1,32
 436 1217 436 1217 327 1217 c 2,33,-1
 261 1217 l 1,34,-1
 261 1325 l 1,35,-1
 335 1325 l 2,36,37
 428 1325 428 1325 477 1356.5 c 128,-1,38
 526 1388 526 1388 526 1448 c 0,39,40
 526 1504 526 1504 478 1535.5 c 128,-1,41
 430 1567 430 1567 343 1567 c 0,42,43
 299 1567 299 1567 243 1555 c 128,-1,44
 187 1543 187 1543 128 1520 c 1,45,-1
 128 1641 l 1,46,47
 197 1658 197 1658 255.5 1667 c 128,-1,48
 314 1676 314 1676 364 1676 c 0,49,50
 509 1676 509 1676 593 1617 c 128,-1,51
 677 1558 677 1558 677 1459 c 0,52,53
 677 1388 677 1388 633 1341.5 c 128,-1,54
 589 1295 589 1295 505 1276 c 1,14,15
51 504 m 1,55,-1
 27 612 l 1,56,-1
 1087 874 l 1,57,-1
 1114 766 l 1,58,-1
 51 504 l 1,55,-1
EndSplineSet
EndChar

StartChar: questiondown
Encoding: 191 191 129
Width: 1233
Flags: W
LayerCount: 2
Fore
SplineSet
549 1092 m 1,0,-1
 739 1092 l 1,1,-1
 739 938 l 2,2,3
 739 840 739 840 708.5 771.5 c 128,-1,4
 678 703 678 703 594 621 c 2,5,-1
 504 532 l 2,6,7
 442 473 442 473 418.5 429 c 128,-1,8
 395 385 395 385 395 336 c 0,9,10
 395 247 395 247 460.5 192 c 128,-1,11
 526 137 526 137 635 137 c 0,12,13
 713 137 713 137 802 171.5 c 128,-1,14
 891 206 891 206 989 274 c 1,15,-1
 989 86 l 1,16,17
 895 29 895 29 799.5 1 c 128,-1,18
 704 -27 704 -27 600 -27 c 0,19,20
 414 -27 414 -27 303.5 69 c 128,-1,21
 193 165 193 165 193 326 c 0,22,23
 193 402 193 402 226.5 467.5 c 128,-1,24
 260 533 260 533 354 625 c 2,25,-1
 442 711 l 2,26,27
 509 775 509 775 528 817 c 128,-1,28
 547 859 547 859 547 922 c 0,29,30
 547 923 547 923 547 927 c 0,31,32
 549 950 549 950 549 969 c 2,33,-1
 549 1092 l 1,0,-1
745 1239 m 1,34,-1
 543 1239 l 1,35,-1
 543 1493 l 1,36,-1
 745 1493 l 1,37,-1
 745 1239 l 1,34,-1
EndSplineSet
EndChar

StartChar: Agrave
Encoding: 192 192 130
Width: 1233
Flags: W
LayerCount: 2
Fore
SplineSet
616 1315 m 1,0,-1
 403 551 l 1,1,-1
 829 551 l 1,2,-1
 616 1315 l 1,0,-1
494 1493 m 1,3,-1
 739 1493 l 1,4,-1
 1196 0 l 1,5,-1
 987 0 l 1,6,-1
 877 389 l 1,7,-1
 354 389 l 1,8,-1
 246 0 l 1,9,-1
 37 0 l 1,10,-1
 494 1493 l 1,3,-1
561 1899 m 1,11,-1
 758 1635 l 1,12,-1
 604 1635 l 1,13,-1
 377 1899 l 1,14,-1
 561 1899 l 1,11,-1
EndSplineSet
Ligature2: "<27,0> Canonical Decomposition lookup 2 subtable" A gravecomb
EndChar

StartChar: Aacute
Encoding: 193 193 131
Width: 1233
Flags: W
LayerCount: 2
Fore
SplineSet
616 1315 m 1,0,-1
 403 551 l 1,1,-1
 829 551 l 1,2,-1
 616 1315 l 1,0,-1
494 1493 m 1,3,-1
 739 1493 l 1,4,-1
 1196 0 l 1,5,-1
 987 0 l 1,6,-1
 877 389 l 1,7,-1
 354 389 l 1,8,-1
 246 0 l 1,9,-1
 37 0 l 1,10,-1
 494 1493 l 1,3,-1
672 1899 m 1,11,-1
 858 1899 l 1,12,-1
 629 1635 l 1,13,-1
 475 1635 l 1,14,-1
 672 1899 l 1,11,-1
EndSplineSet
Ligature2: "<27,0> Canonical Decomposition lookup 2 subtable" A acutecomb
EndChar

StartChar: Acircumflex
Encoding: 194 194 132
Width: 1233
Flags: W
LayerCount: 2
Fore
SplineSet
616 1315 m 1,0,-1
 403 551 l 1,1,-1
 829 551 l 1,2,-1
 616 1315 l 1,0,-1
494 1493 m 1,3,-1
 739 1493 l 1,4,-1
 1196 0 l 1,5,-1
 987 0 l 1,6,-1
 877 389 l 1,7,-1
 354 389 l 1,8,-1
 246 0 l 1,9,-1
 37 0 l 1,10,-1
 494 1493 l 1,3,-1
522 1901 m 1,11,-1
 711 1901 l 1,12,-1
 922 1635 l 1,13,-1
 782 1635 l 1,14,-1
 616 1813 l 1,15,-1
 451 1635 l 1,16,-1
 311 1635 l 1,17,-1
 522 1901 l 1,11,-1
EndSplineSet
Ligature2: "<27,0> Canonical Decomposition lookup 2 subtable" A uni0302
EndChar

StartChar: Atilde
Encoding: 195 195 133
Width: 1233
Flags: W
LayerCount: 2
Fore
SplineSet
616 1315 m 1,0,-1
 403 551 l 1,1,-1
 829 551 l 1,2,-1
 616 1315 l 1,0,-1
494 1493 m 1,3,-1
 739 1493 l 1,4,-1
 1196 0 l 1,5,-1
 987 0 l 1,6,-1
 877 389 l 1,7,-1
 354 389 l 1,8,-1
 246 0 l 1,9,-1
 37 0 l 1,10,-1
 494 1493 l 1,3,-1
612 1710 m 2,11,-1
 555 1743 l 2,12,13
 530 1757 530 1757 514.5 1762.5 c 128,-1,14
 499 1768 499 1768 487 1768 c 0,15,16
 452 1768 452 1768 432 1743 c 128,-1,17
 412 1718 412 1718 412 1673 c 2,18,-1
 412 1667 l 1,19,-1
 287 1667 l 1,20,21
 287 1768 287 1768 338.5 1827 c 128,-1,22
 390 1886 390 1886 475 1886 c 0,23,24
 511 1886 511 1886 541.5 1878 c 128,-1,25
 572 1870 572 1870 621 1843 c 2,26,-1
 678 1813 l 2,27,28
 700 1800 700 1800 717.5 1794 c 128,-1,29
 735 1788 735 1788 750 1788 c 0,30,31
 781 1788 781 1788 801 1813.5 c 128,-1,32
 821 1839 821 1839 821 1880 c 2,33,-1
 821 1886 l 1,34,-1
 946 1886 l 1,35,36
 944 1786 944 1786 893 1726.5 c 128,-1,37
 842 1667 842 1667 758 1667 c 0,38,39
 724 1667 724 1667 694 1675 c 128,-1,40
 664 1683 664 1683 612 1710 c 2,11,-1
EndSplineSet
Ligature2: "<27,0> Canonical Decomposition lookup 2 subtable" A tildecomb
EndChar

StartChar: Adieresis
Encoding: 196 196 134
Width: 1233
Flags: W
LayerCount: 2
Fore
SplineSet
616 1315 m 1,0,-1
 403 551 l 1,1,-1
 829 551 l 1,2,-1
 616 1315 l 1,0,-1
494 1493 m 1,3,-1
 739 1493 l 1,4,-1
 1196 0 l 1,5,-1
 987 0 l 1,6,-1
 877 389 l 1,7,-1
 354 389 l 1,8,-1
 246 0 l 1,9,-1
 37 0 l 1,10,-1
 494 1493 l 1,3,-1
320 1870 m 1,11,-1
 523 1870 l 1,12,-1
 523 1667 l 1,13,-1
 320 1667 l 1,14,-1
 320 1870 l 1,11,-1
711 1870 m 1,15,-1
 913 1870 l 1,16,-1
 913 1667 l 1,17,-1
 711 1667 l 1,18,-1
 711 1870 l 1,15,-1
EndSplineSet
Ligature2: "<27,0> Canonical Decomposition lookup 2 subtable" A uni0308
EndChar

StartChar: Aring
Encoding: 197 197 135
Width: 1233
Flags: W
LayerCount: 2
Fore
SplineSet
768 1626 m 256,0,1
 768 1689 768 1689 723.5 1733.5 c 128,-1,2
 679 1778 679 1778 616 1778 c 0,3,4
 552 1778 552 1778 508.5 1734.5 c 128,-1,5
 465 1691 465 1691 465 1626 c 0,6,7
 465 1563 465 1563 509 1519 c 128,-1,8
 553 1475 553 1475 616 1475 c 256,9,10
 679 1475 679 1475 723.5 1519 c 128,-1,11
 768 1563 768 1563 768 1626 c 256,0,1
616 1311 m 1,12,-1
 403 551 l 1,13,-1
 829 551 l 1,14,-1
 616 1311 l 1,12,-1
465 1399 m 1,15,16
 407 1432 407 1432 374.5 1492.5 c 128,-1,17
 342 1553 342 1553 342 1626 c 0,18,19
 342 1740 342 1740 422 1820.5 c 128,-1,20
 502 1901 502 1901 616 1901 c 256,21,22
 730 1901 730 1901 810.5 1820.5 c 128,-1,23
 891 1740 891 1740 891 1626 c 0,24,25
 891 1553 891 1553 859 1494 c 128,-1,26
 827 1435 827 1435 768 1399 c 1,27,-1
 1196 0 l 1,28,-1
 987 0 l 1,29,-1
 877 389 l 1,30,-1
 354 389 l 1,31,-1
 246 0 l 1,32,-1
 37 0 l 1,33,-1
 465 1399 l 1,15,16
EndSplineSet
Ligature2: "<27,0> Canonical Decomposition lookup 2 subtable" A uni030A
EndChar

StartChar: AE
Encoding: 198 198 136
Width: 1233
Flags: W
LayerCount: 2
Fore
SplineSet
1161 1493 m 1,0,-1
 1161 1323 l 1,1,-1
 823 1323 l 1,2,-1
 823 881 l 1,3,-1
 1130 881 l 1,4,-1
 1130 711 l 1,5,-1
 823 711 l 1,6,-1
 823 170 l 1,7,-1
 1180 170 l 1,8,-1
 1180 0 l 1,9,-1
 637 0 l 1,10,-1
 637 383 l 1,11,-1
 285 383 l 1,12,-1
 184 0 l 1,13,-1
 0 0 l 1,14,-1
 410 1493 l 1,15,-1
 1161 1493 l 1,0,-1
530 1323 m 1,16,-1
 328 551 l 1,17,-1
 637 551 l 1,18,-1
 637 1323 l 1,19,-1
 530 1323 l 1,16,-1
EndSplineSet
EndChar

StartChar: Ccedilla
Encoding: 199 199 137
Width: 1233
Flags: W
LayerCount: 2
Fore
SplineSet
800 0 m 1,0,1
 856 -62 856 -62 882.5 -114.5 c 128,-1,2
 909 -167 909 -167 909 -215 c 0,3,4
 909 -304 909 -304 849 -349.5 c 128,-1,5
 789 -395 789 -395 671 -395 c 0,6,7
 626 -395 626 -395 582.5 -389 c 128,-1,8
 539 -383 539 -383 495 -371 c 1,9,-1
 495 -240 l 1,10,11
 529 -257 529 -257 566.5 -264.5 c 128,-1,12
 604 -272 604 -272 651 -272 c 0,13,14
 709 -272 709 -272 739.5 -248 c 128,-1,15
 770 -224 770 -224 770 -178 c 0,16,17
 770 -148 770 -148 748 -104.5 c 128,-1,18
 726 -61 726 -61 682 0 c 1,19,-1
 800 0 l 1,0,1
1073 53 m 1,20,21
 996 12 996 12 915 -8.5 c 128,-1,22
 834 -29 834 -29 743 -29 c 0,23,24
 456 -29 456 -29 297.5 174 c 128,-1,25
 139 377 139 377 139 745 c 0,26,27
 139 1111 139 1111 298.5 1315.5 c 128,-1,28
 458 1520 458 1520 743 1520 c 0,29,30
 834 1520 834 1520 915 1499.5 c 128,-1,31
 996 1479 996 1479 1073 1438 c 1,32,-1
 1073 1231 l 1,33,34
 999 1292 999 1292 914 1324 c 128,-1,35
 829 1356 829 1356 743 1356 c 0,36,37
 546 1356 546 1356 448 1204 c 128,-1,38
 350 1052 350 1052 350 745 c 0,39,40
 350 439 350 439 448 287 c 128,-1,41
 546 135 546 135 743 135 c 0,42,43
 831 135 831 135 915.5 167 c 128,-1,44
 1000 199 1000 199 1073 260 c 1,45,-1
 1073 53 l 1,20,21
EndSplineSet
Ligature2: "<27,0> Canonical Decomposition lookup 2 subtable" C uni0327
EndChar

StartChar: Egrave
Encoding: 200 200 138
Width: 1233
Flags: W
LayerCount: 2
Fore
SplineSet
197 1493 m 1,0,-1
 1083 1493 l 1,1,-1
 1083 1323 l 1,2,-1
 399 1323 l 1,3,-1
 399 921 l 1,4,-1
 1053 921 l 1,5,-1
 1053 751 l 1,6,-1
 399 751 l 1,7,-1
 399 170 l 1,8,-1
 1102 170 l 1,9,-1
 1102 0 l 1,10,-1
 197 0 l 1,11,-1
 197 1493 l 1,0,-1
579 1899 m 1,12,-1
 776 1635 l 1,13,-1
 622 1635 l 1,14,-1
 395 1899 l 1,15,-1
 579 1899 l 1,12,-1
EndSplineSet
Ligature2: "<27,0> Canonical Decomposition lookup 2 subtable" E gravecomb
EndChar

StartChar: Eacute
Encoding: 201 201 139
Width: 1233
Flags: W
LayerCount: 2
Fore
SplineSet
197 1493 m 1,0,-1
 1083 1493 l 1,1,-1
 1083 1323 l 1,2,-1
 399 1323 l 1,3,-1
 399 921 l 1,4,-1
 1053 921 l 1,5,-1
 1053 751 l 1,6,-1
 399 751 l 1,7,-1
 399 170 l 1,8,-1
 1102 170 l 1,9,-1
 1102 0 l 1,10,-1
 197 0 l 1,11,-1
 197 1493 l 1,0,-1
690 1899 m 1,12,-1
 876 1899 l 1,13,-1
 647 1635 l 1,14,-1
 493 1635 l 1,15,-1
 690 1899 l 1,12,-1
EndSplineSet
Ligature2: "<27,0> Canonical Decomposition lookup 2 subtable" E acutecomb
EndChar

StartChar: Ecircumflex
Encoding: 202 202 140
Width: 1233
Flags: W
LayerCount: 2
Fore
SplineSet
197 1493 m 1,0,-1
 1083 1493 l 1,1,-1
 1083 1323 l 1,2,-1
 399 1323 l 1,3,-1
 399 921 l 1,4,-1
 1053 921 l 1,5,-1
 1053 751 l 1,6,-1
 399 751 l 1,7,-1
 399 170 l 1,8,-1
 1102 170 l 1,9,-1
 1102 0 l 1,10,-1
 197 0 l 1,11,-1
 197 1493 l 1,0,-1
540 1901 m 1,12,-1
 729 1901 l 1,13,-1
 940 1635 l 1,14,-1
 800 1635 l 1,15,-1
 634 1813 l 1,16,-1
 469 1635 l 1,17,-1
 329 1635 l 1,18,-1
 540 1901 l 1,12,-1
EndSplineSet
Ligature2: "<27,0> Canonical Decomposition lookup 2 subtable" E uni0302
EndChar

StartChar: Edieresis
Encoding: 203 203 141
Width: 1233
Flags: W
LayerCount: 2
Fore
SplineSet
197 1493 m 1,0,-1
 1083 1493 l 1,1,-1
 1083 1323 l 1,2,-1
 399 1323 l 1,3,-1
 399 921 l 1,4,-1
 1053 921 l 1,5,-1
 1053 751 l 1,6,-1
 399 751 l 1,7,-1
 399 170 l 1,8,-1
 1102 170 l 1,9,-1
 1102 0 l 1,10,-1
 197 0 l 1,11,-1
 197 1493 l 1,0,-1
337 1870 m 1,12,-1
 540 1870 l 1,13,-1
 540 1667 l 1,14,-1
 337 1667 l 1,15,-1
 337 1870 l 1,12,-1
729 1870 m 1,16,-1
 931 1870 l 1,17,-1
 931 1667 l 1,18,-1
 729 1667 l 1,19,-1
 729 1870 l 1,16,-1
EndSplineSet
Ligature2: "<27,0> Canonical Decomposition lookup 2 subtable" E uni0308
EndChar

StartChar: Igrave
Encoding: 204 204 142
Width: 1233
Flags: W
LayerCount: 2
Fore
SplineSet
201 1493 m 1,0,-1
 1030 1493 l 1,1,-1
 1030 1323 l 1,2,-1
 717 1323 l 1,3,-1
 717 170 l 1,4,-1
 1030 170 l 1,5,-1
 1030 0 l 1,6,-1
 201 0 l 1,7,-1
 201 170 l 1,8,-1
 514 170 l 1,9,-1
 514 1323 l 1,10,-1
 201 1323 l 1,11,-1
 201 1493 l 1,0,-1
561 1899 m 1,12,-1
 758 1635 l 1,13,-1
 604 1635 l 1,14,-1
 377 1899 l 1,15,-1
 561 1899 l 1,12,-1
EndSplineSet
Ligature2: "<27,0> Canonical Decomposition lookup 2 subtable" I gravecomb
EndChar

StartChar: Iacute
Encoding: 205 205 143
Width: 1233
Flags: W
LayerCount: 2
Fore
SplineSet
201 1493 m 1,0,-1
 1030 1493 l 1,1,-1
 1030 1323 l 1,2,-1
 717 1323 l 1,3,-1
 717 170 l 1,4,-1
 1030 170 l 1,5,-1
 1030 0 l 1,6,-1
 201 0 l 1,7,-1
 201 170 l 1,8,-1
 514 170 l 1,9,-1
 514 1323 l 1,10,-1
 201 1323 l 1,11,-1
 201 1493 l 1,0,-1
672 1899 m 1,12,-1
 858 1899 l 1,13,-1
 629 1635 l 1,14,-1
 475 1635 l 1,15,-1
 672 1899 l 1,12,-1
EndSplineSet
Ligature2: "<27,0> Canonical Decomposition lookup 2 subtable" I acutecomb
EndChar

StartChar: Icircumflex
Encoding: 206 206 144
Width: 1233
Flags: W
LayerCount: 2
Fore
SplineSet
201 1493 m 1,0,-1
 1030 1493 l 1,1,-1
 1030 1323 l 1,2,-1
 717 1323 l 1,3,-1
 717 170 l 1,4,-1
 1030 170 l 1,5,-1
 1030 0 l 1,6,-1
 201 0 l 1,7,-1
 201 170 l 1,8,-1
 514 170 l 1,9,-1
 514 1323 l 1,10,-1
 201 1323 l 1,11,-1
 201 1493 l 1,0,-1
522 1901 m 1,12,-1
 711 1901 l 1,13,-1
 922 1635 l 1,14,-1
 782 1635 l 1,15,-1
 616 1813 l 1,16,-1
 451 1635 l 1,17,-1
 311 1635 l 1,18,-1
 522 1901 l 1,12,-1
EndSplineSet
Ligature2: "<27,0> Canonical Decomposition lookup 2 subtable" I uni0302
EndChar

StartChar: Idieresis
Encoding: 207 207 145
Width: 1233
Flags: W
LayerCount: 2
Fore
SplineSet
201 1493 m 1,0,-1
 1030 1493 l 1,1,-1
 1030 1323 l 1,2,-1
 717 1323 l 1,3,-1
 717 170 l 1,4,-1
 1030 170 l 1,5,-1
 1030 0 l 1,6,-1
 201 0 l 1,7,-1
 201 170 l 1,8,-1
 514 170 l 1,9,-1
 514 1323 l 1,10,-1
 201 1323 l 1,11,-1
 201 1493 l 1,0,-1
319 1870 m 1,12,-1
 522 1870 l 1,13,-1
 522 1667 l 1,14,-1
 319 1667 l 1,15,-1
 319 1870 l 1,12,-1
710 1870 m 1,16,-1
 912 1870 l 1,17,-1
 912 1667 l 1,18,-1
 710 1667 l 1,19,-1
 710 1870 l 1,16,-1
EndSplineSet
Ligature2: "<27,0> Canonical Decomposition lookup 2 subtable" I uni0308
EndChar

StartChar: Eth
Encoding: 208 208 146
Width: 1233
Flags: W
LayerCount: 2
Fore
SplineSet
436 1493 m 2,0,1
 778 1493 778 1493 940 1311 c 128,-1,2
 1102 1129 1102 1129 1102 745 c 0,3,4
 1102 363 1102 363 939.5 181.5 c 128,-1,5
 777 0 777 0 436 0 c 2,6,-1
 133 0 l 1,7,-1
 133 709 l 1,8,-1
 8 709 l 1,9,-1
 8 858 l 1,10,-1
 133 858 l 1,11,-1
 133 1493 l 1,12,-1
 436 1493 l 2,0,1
436 166 m 2,13,14
 691 166 691 166 792 291.5 c 128,-1,15
 893 417 893 417 893 745 c 0,16,17
 893 1076 893 1076 792.5 1201.5 c 128,-1,18
 692 1327 692 1327 436 1327 c 2,19,-1
 340 1327 l 1,20,-1
 340 858 l 1,21,-1
 604 858 l 1,22,-1
 604 709 l 1,23,-1
 340 709 l 1,24,-1
 340 166 l 1,25,-1
 436 166 l 2,13,14
EndSplineSet
EndChar

StartChar: Ntilde
Encoding: 209 209 147
Width: 1233
Flags: W
LayerCount: 2
Fore
SplineSet
19 1488 m 1,0,-1
 295 1488 l 1,1,-1
 879 263 l 1,2,-1
 879 1488 l 1,3,-1
 1094 1488 l 1,4,-1
 1094 0 l 1,5,-1
 818 0 l 1,6,-1
 234 1225 l 1,7,-1
 234 0 l 1,8,-1
 19 0 l 1,9,-1
 19 1488 l 1,0,-1
552 1714 m 2,10,-1
 495 1747 l 2,11,12
 470 1761 470 1761 454.5 1766.5 c 128,-1,13
 439 1772 439 1772 427 1772 c 0,14,15
 392 1772 392 1772 372 1747 c 128,-1,16
 352 1722 352 1722 352 1677 c 2,17,-1
 352 1671 l 1,18,-1
 227 1671 l 1,19,20
 227 1772 227 1772 278.5 1831 c 128,-1,21
 330 1890 330 1890 415 1890 c 0,22,23
 451 1890 451 1890 481.5 1882 c 128,-1,24
 512 1874 512 1874 561 1847 c 2,25,-1
 618 1817 l 2,26,27
 640 1804 640 1804 657.5 1798 c 128,-1,28
 675 1792 675 1792 690 1792 c 0,29,30
 721 1792 721 1792 741 1817.5 c 128,-1,31
 761 1843 761 1843 761 1884 c 2,32,-1
 761 1890 l 1,33,-1
 886 1890 l 1,34,35
 884 1790 884 1790 833 1730.5 c 128,-1,36
 782 1671 782 1671 698 1671 c 0,37,38
 664 1671 664 1671 634 1679 c 128,-1,39
 604 1687 604 1687 552 1714 c 2,10,-1
EndSplineSet
Ligature2: "<27,0> Canonical Decomposition lookup 2 subtable" N tildecomb
EndChar

StartChar: Ograve
Encoding: 210 210 148
Width: 1233
Flags: W
LayerCount: 2
Fore
SplineSet
905 745 m 256,0,1
 905 1074 905 1074 837.5 1215 c 128,-1,2
 770 1356 770 1356 616 1356 c 0,3,4
 463 1356 463 1356 395.5 1215 c 128,-1,5
 328 1074 328 1074 328 745 c 0,6,7
 328 417 328 417 395.5 276 c 128,-1,8
 463 135 463 135 616 135 c 0,9,10
 770 135 770 135 837.5 275.5 c 128,-1,11
 905 416 905 416 905 745 c 256,0,1
1116 745 m 0,12,13
 1116 355 1116 355 992.5 163 c 128,-1,14
 869 -29 869 -29 616 -29 c 256,15,16
 363 -29 363 -29 240 162 c 128,-1,17
 117 353 117 353 117 745 c 0,18,19
 117 1136 117 1136 240.5 1328 c 128,-1,20
 364 1520 364 1520 616 1520 c 0,21,22
 869 1520 869 1520 992.5 1328 c 128,-1,23
 1116 1136 1116 1136 1116 745 c 0,12,13
561 1899 m 1,24,-1
 758 1635 l 1,25,-1
 604 1635 l 1,26,-1
 377 1899 l 1,27,-1
 561 1899 l 1,24,-1
EndSplineSet
Ligature2: "<27,0> Canonical Decomposition lookup 2 subtable" O gravecomb
EndChar

StartChar: Oacute
Encoding: 211 211 149
Width: 1233
Flags: W
LayerCount: 2
Fore
SplineSet
905 745 m 256,0,1
 905 1074 905 1074 837.5 1215 c 128,-1,2
 770 1356 770 1356 616 1356 c 0,3,4
 463 1356 463 1356 395.5 1215 c 128,-1,5
 328 1074 328 1074 328 745 c 0,6,7
 328 417 328 417 395.5 276 c 128,-1,8
 463 135 463 135 616 135 c 0,9,10
 770 135 770 135 837.5 275.5 c 128,-1,11
 905 416 905 416 905 745 c 256,0,1
1116 745 m 0,12,13
 1116 355 1116 355 992.5 163 c 128,-1,14
 869 -29 869 -29 616 -29 c 256,15,16
 363 -29 363 -29 240 162 c 128,-1,17
 117 353 117 353 117 745 c 0,18,19
 117 1136 117 1136 240.5 1328 c 128,-1,20
 364 1520 364 1520 616 1520 c 0,21,22
 869 1520 869 1520 992.5 1328 c 128,-1,23
 1116 1136 1116 1136 1116 745 c 0,12,13
672 1899 m 1,24,-1
 858 1899 l 1,25,-1
 629 1635 l 1,26,-1
 475 1635 l 1,27,-1
 672 1899 l 1,24,-1
EndSplineSet
Ligature2: "<27,0> Canonical Decomposition lookup 2 subtable" O acutecomb
EndChar

StartChar: Ocircumflex
Encoding: 212 212 150
Width: 1233
Flags: W
LayerCount: 2
Fore
SplineSet
905 745 m 256,0,1
 905 1074 905 1074 837.5 1215 c 128,-1,2
 770 1356 770 1356 616 1356 c 0,3,4
 463 1356 463 1356 395.5 1215 c 128,-1,5
 328 1074 328 1074 328 745 c 0,6,7
 328 417 328 417 395.5 276 c 128,-1,8
 463 135 463 135 616 135 c 0,9,10
 770 135 770 135 837.5 275.5 c 128,-1,11
 905 416 905 416 905 745 c 256,0,1
1116 745 m 0,12,13
 1116 355 1116 355 992.5 163 c 128,-1,14
 869 -29 869 -29 616 -29 c 256,15,16
 363 -29 363 -29 240 162 c 128,-1,17
 117 353 117 353 117 745 c 0,18,19
 117 1136 117 1136 240.5 1328 c 128,-1,20
 364 1520 364 1520 616 1520 c 0,21,22
 869 1520 869 1520 992.5 1328 c 128,-1,23
 1116 1136 1116 1136 1116 745 c 0,12,13
522 1901 m 1,24,-1
 711 1901 l 1,25,-1
 922 1635 l 1,26,-1
 782 1635 l 1,27,-1
 616 1813 l 1,28,-1
 451 1635 l 1,29,-1
 311 1635 l 1,30,-1
 522 1901 l 1,24,-1
EndSplineSet
Ligature2: "<27,0> Canonical Decomposition lookup 2 subtable" O uni0302
EndChar

StartChar: Otilde
Encoding: 213 213 151
Width: 1233
Flags: W
LayerCount: 2
Fore
SplineSet
905 745 m 256,0,1
 905 1074 905 1074 837.5 1215 c 128,-1,2
 770 1356 770 1356 616 1356 c 0,3,4
 463 1356 463 1356 395.5 1215 c 128,-1,5
 328 1074 328 1074 328 745 c 0,6,7
 328 417 328 417 395.5 276 c 128,-1,8
 463 135 463 135 616 135 c 0,9,10
 770 135 770 135 837.5 275.5 c 128,-1,11
 905 416 905 416 905 745 c 256,0,1
1116 745 m 0,12,13
 1116 355 1116 355 992.5 163 c 128,-1,14
 869 -29 869 -29 616 -29 c 256,15,16
 363 -29 363 -29 240 162 c 128,-1,17
 117 353 117 353 117 745 c 0,18,19
 117 1136 117 1136 240.5 1328 c 128,-1,20
 364 1520 364 1520 616 1520 c 0,21,22
 869 1520 869 1520 992.5 1328 c 128,-1,23
 1116 1136 1116 1136 1116 745 c 0,12,13
612 1710 m 2,24,-1
 555 1743 l 2,25,26
 530 1757 530 1757 514.5 1762.5 c 128,-1,27
 499 1768 499 1768 487 1768 c 0,28,29
 452 1768 452 1768 432 1743 c 128,-1,30
 412 1718 412 1718 412 1673 c 2,31,-1
 412 1667 l 1,32,-1
 287 1667 l 1,33,34
 287 1768 287 1768 338.5 1827 c 128,-1,35
 390 1886 390 1886 475 1886 c 0,36,37
 511 1886 511 1886 541.5 1878 c 128,-1,38
 572 1870 572 1870 621 1843 c 2,39,-1
 678 1813 l 2,40,41
 700 1800 700 1800 717.5 1794 c 128,-1,42
 735 1788 735 1788 750 1788 c 0,43,44
 781 1788 781 1788 801 1813.5 c 128,-1,45
 821 1839 821 1839 821 1880 c 2,46,-1
 821 1886 l 1,47,-1
 946 1886 l 1,48,49
 944 1786 944 1786 893 1726.5 c 128,-1,50
 842 1667 842 1667 758 1667 c 0,51,52
 724 1667 724 1667 694 1675 c 128,-1,53
 664 1683 664 1683 612 1710 c 2,24,-1
EndSplineSet
Ligature2: "<27,0> Canonical Decomposition lookup 2 subtable" O tildecomb
EndChar

StartChar: Odieresis
Encoding: 214 214 152
Width: 1233
Flags: W
LayerCount: 2
Fore
SplineSet
905 745 m 256,0,1
 905 1074 905 1074 837.5 1215 c 128,-1,2
 770 1356 770 1356 616 1356 c 0,3,4
 463 1356 463 1356 395.5 1215 c 128,-1,5
 328 1074 328 1074 328 745 c 0,6,7
 328 417 328 417 395.5 276 c 128,-1,8
 463 135 463 135 616 135 c 0,9,10
 770 135 770 135 837.5 275.5 c 128,-1,11
 905 416 905 416 905 745 c 256,0,1
1116 745 m 0,12,13
 1116 355 1116 355 992.5 163 c 128,-1,14
 869 -29 869 -29 616 -29 c 256,15,16
 363 -29 363 -29 240 162 c 128,-1,17
 117 353 117 353 117 745 c 0,18,19
 117 1136 117 1136 240.5 1328 c 128,-1,20
 364 1520 364 1520 616 1520 c 0,21,22
 869 1520 869 1520 992.5 1328 c 128,-1,23
 1116 1136 1116 1136 1116 745 c 0,12,13
320 1870 m 1,24,-1
 523 1870 l 1,25,-1
 523 1667 l 1,26,-1
 320 1667 l 1,27,-1
 320 1870 l 1,24,-1
711 1870 m 1,28,-1
 913 1870 l 1,29,-1
 913 1667 l 1,30,-1
 711 1667 l 1,31,-1
 711 1870 l 1,28,-1
EndSplineSet
Ligature2: "<27,0> Canonical Decomposition lookup 2 subtable" O uni0308
EndChar

StartChar: multiply
Encoding: 215 215 153
Width: 1233
Flags: W
LayerCount: 2
Fore
SplineSet
150 293 m 1,0,-1
 500 641 l 1,1,-1
 150 991 l 1,2,-1
 266 1108 l 1,3,-1
 616 758 l 1,4,-1
 967 1108 l 1,5,-1
 1083 991 l 1,6,-1
 733 641 l 1,7,-1
 1081 293 l 1,8,-1
 965 174 l 1,9,-1
 616 524 l 1,10,-1
 268 174 l 1,11,-1
 150 293 l 1,0,-1
EndSplineSet
EndChar

StartChar: Oslash
Encoding: 216 216 154
Width: 1233
Flags: W
LayerCount: 2
Fore
SplineSet
371 303 m 1,0,1
 401 225 401 225 466.5 180 c 128,-1,2
 532 135 532 135 616 135 c 0,3,4
 770 135 770 135 837.5 275.5 c 128,-1,5
 905 416 905 416 905 745 c 0,6,7
 905 855 905 855 900 923 c 128,-1,8
 895 991 895 991 885 1036 c 1,9,-1
 371 303 l 1,0,1
338 471 m 1,10,-1
 842 1190 l 1,11,12
 817 1271 817 1271 759.5 1313.5 c 128,-1,13
 702 1356 702 1356 616 1356 c 0,14,15
 459 1356 459 1356 393.5 1210 c 128,-1,16
 328 1064 328 1064 328 686 c 0,17,18
 328 606 328 606 330.5 555.5 c 128,-1,19
 333 505 333 505 338 471 c 1,10,-1
1032 1247 m 1,20,21
 1073 1166 1073 1166 1094.5 1037 c 128,-1,22
 1116 908 1116 908 1116 745 c 0,23,24
 1116 355 1116 355 992.5 163 c 128,-1,25
 869 -29 869 -29 616 -29 c 0,26,27
 495 -29 495 -29 405 11.5 c 128,-1,28
 315 52 315 52 254 133 c 1,29,-1
 111 -70 l 1,30,-1
 8 0 l 1,31,-1
 186 252 l 1,32,33
 154 325 154 325 135.5 456 c 128,-1,34
 117 587 117 587 117 745 c 0,35,36
 117 1136 117 1136 240.5 1328 c 128,-1,37
 364 1520 364 1520 616 1520 c 0,38,39
 731 1520 731 1520 817.5 1479 c 128,-1,40
 904 1438 904 1438 961 1358 c 1,41,-1
 1100 1559 l 1,42,-1
 1200 1485 l 1,43,-1
 1032 1247 l 1,20,21
EndSplineSet
EndChar

StartChar: Ugrave
Encoding: 217 217 155
Width: 1233
Flags: W
LayerCount: 2
Fore
SplineSet
147 573 m 2,0,-1
 147 1493 l 1,1,-1
 350 1493 l 1,2,-1
 350 481 l 2,3,4
 350 372 350 372 356 325.5 c 128,-1,5
 362 279 362 279 377 254 c 0,6,7
 409 195 409 195 469.5 165 c 128,-1,8
 530 135 530 135 616 135 c 0,9,10
 703 135 703 135 763 165 c 128,-1,11
 823 195 823 195 856 254 c 0,12,13
 871 279 871 279 877 325 c 128,-1,14
 883 371 883 371 883 479 c 2,15,-1
 883 1493 l 1,16,-1
 1085 1493 l 1,17,-1
 1085 573 l 2,18,19
 1085 344 1085 344 1056.5 247.5 c 128,-1,20
 1028 151 1028 151 958 88 c 0,21,22
 892 29 892 29 807 0 c 128,-1,23
 722 -29 722 -29 616 -29 c 0,24,25
 511 -29 511 -29 426 0 c 128,-1,26
 341 29 341 29 274 88 c 0,27,28
 205 150 205 150 176 248.5 c 128,-1,29
 147 347 147 347 147 573 c 2,0,-1
561 1899 m 1,30,-1
 758 1635 l 1,31,-1
 604 1635 l 1,32,-1
 377 1899 l 1,33,-1
 561 1899 l 1,30,-1
EndSplineSet
Ligature2: "<27,0> Canonical Decomposition lookup 2 subtable" U gravecomb
EndChar

StartChar: Uacute
Encoding: 218 218 156
Width: 1233
Flags: W
LayerCount: 2
Fore
SplineSet
147 573 m 2,0,-1
 147 1493 l 1,1,-1
 350 1493 l 1,2,-1
 350 481 l 2,3,4
 350 372 350 372 356 325.5 c 128,-1,5
 362 279 362 279 377 254 c 0,6,7
 409 195 409 195 469.5 165 c 128,-1,8
 530 135 530 135 616 135 c 0,9,10
 703 135 703 135 763 165 c 128,-1,11
 823 195 823 195 856 254 c 0,12,13
 871 279 871 279 877 325 c 128,-1,14
 883 371 883 371 883 479 c 2,15,-1
 883 1493 l 1,16,-1
 1085 1493 l 1,17,-1
 1085 573 l 2,18,19
 1085 344 1085 344 1056.5 247.5 c 128,-1,20
 1028 151 1028 151 958 88 c 0,21,22
 892 29 892 29 807 0 c 128,-1,23
 722 -29 722 -29 616 -29 c 0,24,25
 511 -29 511 -29 426 0 c 128,-1,26
 341 29 341 29 274 88 c 0,27,28
 205 150 205 150 176 248.5 c 128,-1,29
 147 347 147 347 147 573 c 2,0,-1
672 1899 m 1,30,-1
 858 1899 l 1,31,-1
 629 1635 l 1,32,-1
 475 1635 l 1,33,-1
 672 1899 l 1,30,-1
EndSplineSet
Ligature2: "<27,0> Canonical Decomposition lookup 2 subtable" U acutecomb
EndChar

StartChar: Ucircumflex
Encoding: 219 219 157
Width: 1233
Flags: W
LayerCount: 2
Fore
SplineSet
147 573 m 2,0,-1
 147 1493 l 1,1,-1
 350 1493 l 1,2,-1
 350 481 l 2,3,4
 350 372 350 372 356 325.5 c 128,-1,5
 362 279 362 279 377 254 c 0,6,7
 409 195 409 195 469.5 165 c 128,-1,8
 530 135 530 135 616 135 c 0,9,10
 703 135 703 135 763 165 c 128,-1,11
 823 195 823 195 856 254 c 0,12,13
 871 279 871 279 877 325 c 128,-1,14
 883 371 883 371 883 479 c 2,15,-1
 883 1493 l 1,16,-1
 1085 1493 l 1,17,-1
 1085 573 l 2,18,19
 1085 344 1085 344 1056.5 247.5 c 128,-1,20
 1028 151 1028 151 958 88 c 0,21,22
 892 29 892 29 807 0 c 128,-1,23
 722 -29 722 -29 616 -29 c 0,24,25
 511 -29 511 -29 426 0 c 128,-1,26
 341 29 341 29 274 88 c 0,27,28
 205 150 205 150 176 248.5 c 128,-1,29
 147 347 147 347 147 573 c 2,0,-1
522 1901 m 1,30,-1
 710 1901 l 1,31,-1
 921 1635 l 1,32,-1
 781 1635 l 1,33,-1
 616 1813 l 1,34,-1
 451 1635 l 1,35,-1
 311 1635 l 1,36,-1
 522 1901 l 1,30,-1
EndSplineSet
Ligature2: "<27,0> Canonical Decomposition lookup 2 subtable" U uni0302
EndChar

StartChar: Udieresis
Encoding: 220 220 158
Width: 1233
Flags: W
LayerCount: 2
Fore
SplineSet
147 573 m 2,0,-1
 147 1493 l 1,1,-1
 350 1493 l 1,2,-1
 350 481 l 2,3,4
 350 372 350 372 356 325.5 c 128,-1,5
 362 279 362 279 377 254 c 0,6,7
 409 195 409 195 469.5 165 c 128,-1,8
 530 135 530 135 616 135 c 0,9,10
 703 135 703 135 763 165 c 128,-1,11
 823 195 823 195 856 254 c 0,12,13
 871 279 871 279 877 325 c 128,-1,14
 883 371 883 371 883 479 c 2,15,-1
 883 1493 l 1,16,-1
 1085 1493 l 1,17,-1
 1085 573 l 2,18,19
 1085 344 1085 344 1056.5 247.5 c 128,-1,20
 1028 151 1028 151 958 88 c 0,21,22
 892 29 892 29 807 0 c 128,-1,23
 722 -29 722 -29 616 -29 c 0,24,25
 511 -29 511 -29 426 0 c 128,-1,26
 341 29 341 29 274 88 c 0,27,28
 205 150 205 150 176 248.5 c 128,-1,29
 147 347 147 347 147 573 c 2,0,-1
319 1870 m 1,30,-1
 522 1870 l 1,31,-1
 522 1667 l 1,32,-1
 319 1667 l 1,33,-1
 319 1870 l 1,30,-1
711 1870 m 1,34,-1
 913 1870 l 1,35,-1
 913 1667 l 1,36,-1
 711 1667 l 1,37,-1
 711 1870 l 1,34,-1
EndSplineSet
Ligature2: "<27,0> Canonical Decomposition lookup 2 subtable" U uni0308
EndChar

StartChar: Yacute
Encoding: 221 221 159
Width: 1233
Flags: W
LayerCount: 2
Fore
SplineSet
37 1493 m 1,0,-1
 252 1493 l 1,1,-1
 616 834 l 1,2,-1
 979 1493 l 1,3,-1
 1196 1493 l 1,4,-1
 717 670 l 1,5,-1
 717 0 l 1,6,-1
 514 0 l 1,7,-1
 514 670 l 1,8,-1
 37 1493 l 1,0,-1
672 1899 m 1,9,-1
 858 1899 l 1,10,-1
 629 1635 l 1,11,-1
 475 1635 l 1,12,-1
 672 1899 l 1,9,-1
EndSplineSet
Ligature2: "<27,0> Canonical Decomposition lookup 2 subtable" Y acutecomb
EndChar

StartChar: Thorn
Encoding: 222 222 160
Width: 1233
Flags: W
LayerCount: 2
Fore
SplineSet
403 1057 m 1,0,-1
 403 532 l 1,1,-1
 637 532 l 2,2,3
 795 532 795 532 873.5 598 c 128,-1,4
 952 664 952 664 952 795 c 256,5,6
 952 926 952 926 873.5 991.5 c 128,-1,7
 795 1057 795 1057 637 1057 c 2,8,-1
 403 1057 l 1,0,-1
201 1493 m 1,9,-1
 403 1493 l 1,10,-1
 403 1223 l 1,11,-1
 657 1223 l 2,12,13
 917 1223 917 1223 1041 1118 c 128,-1,14
 1165 1013 1165 1013 1165 795 c 0,15,16
 1165 576 1165 576 1041 471.5 c 128,-1,17
 917 367 917 367 657 367 c 2,18,-1
 403 367 l 1,19,-1
 403 0 l 1,20,-1
 201 0 l 1,21,-1
 201 1493 l 1,9,-1
EndSplineSet
EndChar

StartChar: germandbls
Encoding: 223 223 161
Width: 1233
Flags: W
LayerCount: 2
Fore
SplineSet
188 1137 m 2,0,1
 188 1350 188 1350 293 1453 c 128,-1,2
 398 1556 398 1556 614 1556 c 0,3,4
 818 1556 818 1556 923 1445.5 c 128,-1,5
 1028 1335 1028 1335 1030 1119 c 1,6,7
 875 1105 875 1105 791 1043 c 128,-1,8
 707 981 707 981 707 881 c 0,9,10
 707 832 707 832 734.5 793.5 c 128,-1,11
 762 755 762 755 829 713 c 2,12,-1
 887 676 l 2,13,14
 1038 583 1038 583 1093.5 501 c 128,-1,15
 1149 419 1149 419 1149 303 c 0,16,17
 1149 149 1149 149 1037 60 c 128,-1,18
 925 -29 925 -29 729 -29 c 0,19,20
 660 -29 660 -29 592.5 -16.5 c 128,-1,21
 525 -4 525 -4 459 20 c 1,22,-1
 459 184 l 1,23,24
 535 153 535 153 601.5 138 c 128,-1,25
 668 123 668 123 727 123 c 0,26,27
 835 123 835 123 899 171.5 c 128,-1,28
 963 220 963 220 963 301 c 0,29,30
 963 372 963 372 930.5 419.5 c 128,-1,31
 898 467 898 467 778 541 c 2,32,-1
 711 580 l 2,33,34
 619 636 619 636 573.5 702.5 c 128,-1,35
 528 769 528 769 528 848 c 0,36,37
 528 976 528 976 609 1061.5 c 128,-1,38
 690 1147 690 1147 846 1182 c 1,39,40
 844 1289 844 1289 783.5 1346 c 128,-1,41
 723 1403 723 1403 610 1403 c 0,42,43
 489 1403 489 1403 432 1337.5 c 128,-1,44
 375 1272 375 1272 375 1133 c 2,45,-1
 375 0 l 1,46,-1
 188 0 l 1,47,-1
 188 1137 l 2,0,1
EndSplineSet
EndChar

StartChar: agrave
Encoding: 224 224 162
Width: 1233
Flags: W
LayerCount: 2
Fore
SplineSet
702 563 m 1,0,-1
 641 563 l 2,1,2
 480 563 480 563 398.5 506.5 c 128,-1,3
 317 450 317 450 317 338 c 0,4,5
 317 237 317 237 378 181 c 128,-1,6
 439 125 439 125 547 125 c 0,7,8
 699 125 699 125 786 230.5 c 128,-1,9
 873 336 873 336 874 522 c 2,10,-1
 874 563 l 1,11,-1
 702 563 l 1,0,-1
1059 639 m 2,12,-1
 1059 0 l 1,13,-1
 874 0 l 1,14,-1
 874 166 l 1,15,16
 815 66 815 66 725.5 18.5 c 128,-1,17
 636 -29 636 -29 508 -29 c 0,18,19
 337 -29 337 -29 235 67.5 c 128,-1,20
 133 164 133 164 133 326 c 0,21,22
 133 513 133 513 258.5 610 c 128,-1,23
 384 707 384 707 627 707 c 2,24,-1
 874 707 l 1,25,-1
 874 736 l 2,26,27
 873 870 873 870 806 930.5 c 128,-1,28
 739 991 739 991 592 991 c 0,29,30
 498 991 498 991 402 964 c 128,-1,31
 306 937 306 937 215 885 c 1,32,-1
 215 1069 l 1,33,34
 317 1108 317 1108 410.5 1127.5 c 128,-1,35
 504 1147 504 1147 592 1147 c 0,36,37
 731 1147 731 1147 829.5 1106 c 128,-1,38
 928 1065 928 1065 989 983 c 0,39,40
 1027 933 1027 933 1043 859.5 c 128,-1,41
 1059 786 1059 786 1059 639 c 2,12,-1
477 1638 m 1,42,-1
 758 1262 l 1,43,-1
 604 1262 l 1,44,-1
 279 1638 l 1,45,-1
 477 1638 l 1,42,-1
EndSplineSet
Ligature2: "<27,0> Canonical Decomposition lookup 2 subtable" a gravecomb
EndChar

StartChar: aacute
Encoding: 225 225 163
Width: 1233
Flags: W
LayerCount: 2
Fore
SplineSet
702 563 m 1,0,-1
 641 563 l 2,1,2
 480 563 480 563 398.5 506.5 c 128,-1,3
 317 450 317 450 317 338 c 0,4,5
 317 237 317 237 378 181 c 128,-1,6
 439 125 439 125 547 125 c 0,7,8
 699 125 699 125 786 230.5 c 128,-1,9
 873 336 873 336 874 522 c 2,10,-1
 874 563 l 1,11,-1
 702 563 l 1,0,-1
1059 639 m 2,12,-1
 1059 0 l 1,13,-1
 874 0 l 1,14,-1
 874 166 l 1,15,16
 815 66 815 66 725.5 18.5 c 128,-1,17
 636 -29 636 -29 508 -29 c 0,18,19
 337 -29 337 -29 235 67.5 c 128,-1,20
 133 164 133 164 133 326 c 0,21,22
 133 513 133 513 258.5 610 c 128,-1,23
 384 707 384 707 627 707 c 2,24,-1
 874 707 l 1,25,-1
 874 736 l 2,26,27
 873 870 873 870 806 930.5 c 128,-1,28
 739 991 739 991 592 991 c 0,29,30
 498 991 498 991 402 964 c 128,-1,31
 306 937 306 937 215 885 c 1,32,-1
 215 1069 l 1,33,34
 317 1108 317 1108 410.5 1127.5 c 128,-1,35
 504 1147 504 1147 592 1147 c 0,36,37
 731 1147 731 1147 829.5 1106 c 128,-1,38
 928 1065 928 1065 989 983 c 0,39,40
 1027 933 1027 933 1043 859.5 c 128,-1,41
 1059 786 1059 786 1059 639 c 2,12,-1
756 1638 m 1,42,-1
 954 1638 l 1,43,-1
 629 1262 l 1,44,-1
 475 1262 l 1,45,-1
 756 1638 l 1,42,-1
EndSplineSet
Ligature2: "<27,0> Canonical Decomposition lookup 2 subtable" a acutecomb
EndChar

StartChar: acircumflex
Encoding: 226 226 164
Width: 1233
Flags: W
LayerCount: 2
Fore
SplineSet
702 563 m 1,0,-1
 641 563 l 2,1,2
 480 563 480 563 398.5 506.5 c 128,-1,3
 317 450 317 450 317 338 c 0,4,5
 317 237 317 237 378 181 c 128,-1,6
 439 125 439 125 547 125 c 0,7,8
 699 125 699 125 786 230.5 c 128,-1,9
 873 336 873 336 874 522 c 2,10,-1
 874 563 l 1,11,-1
 702 563 l 1,0,-1
1059 639 m 2,12,-1
 1059 0 l 1,13,-1
 874 0 l 1,14,-1
 874 166 l 1,15,16
 815 66 815 66 725.5 18.5 c 128,-1,17
 636 -29 636 -29 508 -29 c 0,18,19
 337 -29 337 -29 235 67.5 c 128,-1,20
 133 164 133 164 133 326 c 0,21,22
 133 513 133 513 258.5 610 c 128,-1,23
 384 707 384 707 627 707 c 2,24,-1
 874 707 l 1,25,-1
 874 736 l 2,26,27
 873 870 873 870 806 930.5 c 128,-1,28
 739 991 739 991 592 991 c 0,29,30
 498 991 498 991 402 964 c 128,-1,31
 306 937 306 937 215 885 c 1,32,-1
 215 1069 l 1,33,34
 317 1108 317 1108 410.5 1127.5 c 128,-1,35
 504 1147 504 1147 592 1147 c 0,36,37
 731 1147 731 1147 829.5 1106 c 128,-1,38
 928 1065 928 1065 989 983 c 0,39,40
 1027 933 1027 933 1043 859.5 c 128,-1,41
 1059 786 1059 786 1059 639 c 2,12,-1
543 1638 m 1,42,-1
 690 1638 l 1,43,-1
 936 1262 l 1,44,-1
 797 1262 l 1,45,-1
 616 1507 l 1,46,-1
 436 1262 l 1,47,-1
 297 1262 l 1,48,-1
 543 1638 l 1,42,-1
EndSplineSet
Ligature2: "<27,0> Canonical Decomposition lookup 2 subtable" a uni0302
EndChar

StartChar: atilde
Encoding: 227 227 165
Width: 1233
Flags: W
LayerCount: 2
Fore
SplineSet
702 563 m 1,0,-1
 641 563 l 2,1,2
 480 563 480 563 398.5 506.5 c 128,-1,3
 317 450 317 450 317 338 c 0,4,5
 317 237 317 237 378 181 c 128,-1,6
 439 125 439 125 547 125 c 0,7,8
 699 125 699 125 786 230.5 c 128,-1,9
 873 336 873 336 874 522 c 2,10,-1
 874 563 l 1,11,-1
 702 563 l 1,0,-1
1059 639 m 2,12,-1
 1059 0 l 1,13,-1
 874 0 l 1,14,-1
 874 166 l 1,15,16
 815 66 815 66 725.5 18.5 c 128,-1,17
 636 -29 636 -29 508 -29 c 0,18,19
 337 -29 337 -29 235 67.5 c 128,-1,20
 133 164 133 164 133 326 c 0,21,22
 133 513 133 513 258.5 610 c 128,-1,23
 384 707 384 707 627 707 c 2,24,-1
 874 707 l 1,25,-1
 874 736 l 2,26,27
 873 870 873 870 806 930.5 c 128,-1,28
 739 991 739 991 592 991 c 0,29,30
 498 991 498 991 402 964 c 128,-1,31
 306 937 306 937 215 885 c 1,32,-1
 215 1069 l 1,33,34
 317 1108 317 1108 410.5 1127.5 c 128,-1,35
 504 1147 504 1147 592 1147 c 0,36,37
 731 1147 731 1147 829.5 1106 c 128,-1,38
 928 1065 928 1065 989 983 c 0,39,40
 1027 933 1027 933 1043 859.5 c 128,-1,41
 1059 786 1059 786 1059 639 c 2,12,-1
612 1370 m 2,42,-1
 555 1425 l 2,43,44
 534 1445 534 1445 517.5 1454.5 c 128,-1,45
 501 1464 501 1464 487 1464 c 0,46,47
 449 1464 449 1464 431 1427 c 128,-1,48
 413 1390 413 1390 411 1309 c 1,49,-1
 287 1309 l 1,50,51
 288 1443 288 1443 339 1517 c 128,-1,52
 390 1591 390 1591 481 1591 c 0,53,54
 520 1591 520 1591 552 1577 c 128,-1,55
 584 1563 584 1563 621 1530 c 2,56,-1
 678 1475 l 2,57,58
 699 1455 699 1455 715.5 1445.5 c 128,-1,59
 732 1436 732 1436 745 1436 c 0,60,61
 784 1436 784 1436 802 1473 c 128,-1,62
 820 1510 820 1510 821 1591 c 1,63,-1
 946 1591 l 1,64,65
 945 1457 945 1457 894 1383 c 128,-1,66
 843 1309 843 1309 752 1309 c 0,67,68
 713 1309 713 1309 681 1323 c 128,-1,69
 649 1337 649 1337 612 1370 c 2,42,-1
EndSplineSet
Ligature2: "<27,0> Canonical Decomposition lookup 2 subtable" a tildecomb
EndChar

StartChar: adieresis
Encoding: 228 228 166
Width: 1233
Flags: W
LayerCount: 2
Fore
SplineSet
702 563 m 1,0,-1
 641 563 l 2,1,2
 480 563 480 563 398.5 506.5 c 128,-1,3
 317 450 317 450 317 338 c 0,4,5
 317 237 317 237 378 181 c 128,-1,6
 439 125 439 125 547 125 c 0,7,8
 699 125 699 125 786 230.5 c 128,-1,9
 873 336 873 336 874 522 c 2,10,-1
 874 563 l 1,11,-1
 702 563 l 1,0,-1
1059 639 m 2,12,-1
 1059 0 l 1,13,-1
 874 0 l 1,14,-1
 874 166 l 1,15,16
 815 66 815 66 725.5 18.5 c 128,-1,17
 636 -29 636 -29 508 -29 c 0,18,19
 337 -29 337 -29 235 67.5 c 128,-1,20
 133 164 133 164 133 326 c 0,21,22
 133 513 133 513 258.5 610 c 128,-1,23
 384 707 384 707 627 707 c 2,24,-1
 874 707 l 1,25,-1
 874 736 l 2,26,27
 873 870 873 870 806 930.5 c 128,-1,28
 739 991 739 991 592 991 c 0,29,30
 498 991 498 991 402 964 c 128,-1,31
 306 937 306 937 215 885 c 1,32,-1
 215 1069 l 1,33,34
 317 1108 317 1108 410.5 1127.5 c 128,-1,35
 504 1147 504 1147 592 1147 c 0,36,37
 731 1147 731 1147 829.5 1106 c 128,-1,38
 928 1065 928 1065 989 983 c 0,39,40
 1027 933 1027 933 1043 859.5 c 128,-1,41
 1059 786 1059 786 1059 639 c 2,12,-1
319 1552 m 1,42,-1
 522 1552 l 1,43,-1
 522 1350 l 1,44,-1
 319 1350 l 1,45,-1
 319 1552 l 1,42,-1
711 1552 m 1,46,-1
 913 1552 l 1,47,-1
 913 1350 l 1,48,-1
 711 1350 l 1,49,-1
 711 1552 l 1,46,-1
EndSplineSet
Ligature2: "<27,0> Canonical Decomposition lookup 2 subtable" a uni0308
EndChar

StartChar: aring
Encoding: 229 229 167
Width: 1233
Flags: W
LayerCount: 2
Fore
SplineSet
702 563 m 1,0,-1
 641 563 l 2,1,2
 480 563 480 563 398.5 506.5 c 128,-1,3
 317 450 317 450 317 338 c 0,4,5
 317 237 317 237 378 181 c 128,-1,6
 439 125 439 125 547 125 c 0,7,8
 699 125 699 125 786 230.5 c 128,-1,9
 873 336 873 336 874 522 c 2,10,-1
 874 563 l 1,11,-1
 702 563 l 1,0,-1
1059 639 m 2,12,-1
 1059 0 l 1,13,-1
 874 0 l 1,14,-1
 874 166 l 1,15,16
 815 66 815 66 725.5 18.5 c 128,-1,17
 636 -29 636 -29 508 -29 c 0,18,19
 337 -29 337 -29 235 67.5 c 128,-1,20
 133 164 133 164 133 326 c 0,21,22
 133 513 133 513 258.5 610 c 128,-1,23
 384 707 384 707 627 707 c 2,24,-1
 874 707 l 1,25,-1
 874 736 l 2,26,27
 873 870 873 870 806 930.5 c 128,-1,28
 739 991 739 991 592 991 c 0,29,30
 498 991 498 991 402 964 c 128,-1,31
 306 937 306 937 215 885 c 1,32,-1
 215 1069 l 1,33,34
 317 1108 317 1108 410.5 1127.5 c 128,-1,35
 504 1147 504 1147 592 1147 c 0,36,37
 731 1147 731 1147 829.5 1106 c 128,-1,38
 928 1065 928 1065 989 983 c 0,39,40
 1027 933 1027 933 1043 859.5 c 128,-1,41
 1059 786 1059 786 1059 639 c 2,12,-1
891 1524 m 256,42,43
 891 1409 891 1409 811.5 1329 c 128,-1,44
 732 1249 732 1249 616 1249 c 0,45,46
 501 1249 501 1249 421.5 1329 c 128,-1,47
 342 1409 342 1409 342 1524 c 256,48,49
 342 1639 342 1639 421.5 1718.5 c 128,-1,50
 501 1798 501 1798 616 1798 c 0,51,52
 732 1798 732 1798 811.5 1718.5 c 128,-1,53
 891 1639 891 1639 891 1524 c 256,42,43
768 1524 m 0,54,55
 768 1587 768 1587 724 1631 c 128,-1,56
 680 1675 680 1675 616 1675 c 256,57,58
 552 1675 552 1675 508.5 1631.5 c 128,-1,59
 465 1588 465 1588 465 1524 c 0,60,61
 465 1459 465 1459 508.5 1415.5 c 128,-1,62
 552 1372 552 1372 616 1372 c 256,63,64
 680 1372 680 1372 724 1416 c 128,-1,65
 768 1460 768 1460 768 1524 c 0,54,55
EndSplineSet
Ligature2: "<27,0> Canonical Decomposition lookup 2 subtable" a uni030A
EndChar

StartChar: ae
Encoding: 230 230 168
Width: 1233
Flags: W
LayerCount: 2
Fore
SplineSet
543 442 m 2,0,-1
 543 514 l 1,1,-1
 494 514 l 2,2,3
 325 514 325 514 265 469 c 128,-1,4
 205 424 205 424 205 311 c 0,5,6
 205 222 205 222 249.5 173.5 c 128,-1,7
 294 125 294 125 377 125 c 0,8,9
 469 125 469 125 506 191.5 c 128,-1,10
 543 258 543 258 543 442 c 2,0,-1
1036 657 m 1,11,-1
 1036 709 l 2,12,13
 1036 860 1036 860 997.5 926.5 c 128,-1,14
 959 993 959 993 872 993 c 256,15,16
 785 993 785 993 747 925 c 128,-1,17
 709 857 709 857 709 700 c 2,18,-1
 709 657 l 1,19,-1
 1036 657 l 1,11,-1
1200 514 m 1,20,-1
 709 514 l 1,21,22
 708 499 708 499 707.5 481.5 c 128,-1,23
 707 464 707 464 707 430 c 0,24,25
 707 269 707 269 757.5 197 c 128,-1,26
 808 125 808 125 920 125 c 0,27,28
 999 125 999 125 1063.5 150.5 c 128,-1,29
 1128 176 1128 176 1178 227 c 1,30,-1
 1178 55 l 1,31,32
 1123 14 1123 14 1057 -7.5 c 128,-1,33
 991 -29 991 -29 920 -29 c 0,34,35
 810 -29 810 -29 735.5 12 c 128,-1,36
 661 53 661 53 629 131 c 1,37,38
 590 51 590 51 523.5 11 c 128,-1,39
 457 -29 457 -29 360 -29 c 0,40,41
 204 -29 204 -29 122.5 57 c 128,-1,42
 41 143 41 143 41 307 c 0,43,44
 41 478 41 478 141 567.5 c 128,-1,45
 241 657 241 657 432 657 c 2,46,-1
 549 657 l 1,47,-1
 549 745 l 2,48,49
 549 865 549 865 499.5 929 c 128,-1,50
 450 993 450 993 356 993 c 0,51,52
 300 993 300 993 234 971.5 c 128,-1,53
 168 950 168 950 106 911 c 1,54,-1
 106 1079 l 1,55,56
 183 1114 183 1114 249 1130.5 c 128,-1,57
 315 1147 315 1147 375 1147 c 0,58,59
 466 1147 466 1147 528 1115.5 c 128,-1,60
 590 1084 590 1084 627 1020 c 1,61,62
 660 1081 660 1081 726 1114 c 128,-1,63
 792 1147 792 1147 881 1147 c 0,64,65
 1055 1147 1055 1147 1127.5 1028.5 c 128,-1,66
 1200 910 1200 910 1200 604 c 2,67,-1
 1200 514 l 1,20,-1
EndSplineSet
EndChar

StartChar: ccedilla
Encoding: 231 231 169
Width: 1233
Flags: W
LayerCount: 2
Fore
SplineSet
804 0 m 1,0,1
 860 -62 860 -62 886.5 -114.5 c 128,-1,2
 913 -167 913 -167 913 -215 c 0,3,4
 913 -304 913 -304 853 -349.5 c 128,-1,5
 793 -395 793 -395 675 -395 c 0,6,7
 630 -395 630 -395 586.5 -389 c 128,-1,8
 543 -383 543 -383 499 -371 c 1,9,-1
 499 -240 l 1,10,11
 533 -257 533 -257 570.5 -264.5 c 128,-1,12
 608 -272 608 -272 655 -272 c 0,13,14
 713 -272 713 -272 743.5 -248 c 128,-1,15
 774 -224 774 -224 774 -178 c 0,16,17
 774 -148 774 -148 752 -104.5 c 128,-1,18
 730 -61 730 -61 686 0 c 1,19,-1
 804 0 l 1,0,1
1061 57 m 1,20,21
 987 14 987 14 908.5 -7.5 c 128,-1,22
 830 -29 830 -29 748 -29 c 0,23,24
 488 -29 488 -29 341.5 127 c 128,-1,25
 195 283 195 283 195 559 c 256,26,27
 195 835 195 835 341.5 991 c 128,-1,28
 488 1147 488 1147 748 1147 c 0,29,30
 829 1147 829 1147 906 1126 c 128,-1,31
 983 1105 983 1105 1061 1061 c 1,32,-1
 1061 868 l 1,33,34
 988 933 988 933 914.5 962 c 128,-1,35
 841 991 841 991 748 991 c 0,36,37
 575 991 575 991 482 879 c 128,-1,38
 389 767 389 767 389 559 c 0,39,40
 389 352 389 352 482.5 239.5 c 128,-1,41
 576 127 576 127 748 127 c 0,42,43
 844 127 844 127 920 156.5 c 128,-1,44
 996 186 996 186 1061 248 c 1,45,-1
 1061 57 l 1,20,21
EndSplineSet
Ligature2: "<27,0> Canonical Decomposition lookup 2 subtable" c uni0327
EndChar

StartChar: egrave
Encoding: 232 232 170
Width: 1233
Flags: W
LayerCount: 2
Fore
SplineSet
1120 652 m 1,0,-1
 1120 562 l 1,1,-1
 323 562 l 1,2,-1
 323 556 l 1,3,4
 315 327 315 327 410.5 227 c 128,-1,5
 506 127 506 127 680 127 c 0,6,7
 768 127 768 127 864 155 c 128,-1,8
 960 183 960 183 1069 240 c 1,9,-1
 1069 57 l 1,10,11
 964 14 964 14 866.5 -7.5 c 128,-1,12
 769 -29 769 -29 678 -29 c 0,13,14
 417 -29 417 -29 270 127.5 c 128,-1,15
 123 284 123 284 123 559 c 0,16,17
 123 827 123 827 267 987 c 128,-1,18
 411 1147 411 1147 651 1147 c 0,19,20
 865 1147 865 1147 988.5 1002 c 128,-1,21
 1112 857 1112 857 1120 652 c 1,0,-1
936 706 m 1,22,23
 924 822 924 822 851.5 906.5 c 128,-1,24
 779 991 779 991 643 991 c 0,25,26
 510 991 510 991 424 903 c 128,-1,27
 338 815 338 815 330 705 c 1,28,-1
 936 706 l 1,22,23
491 1638 m 1,29,-1
 772 1262 l 1,30,-1
 618 1262 l 1,31,-1
 293 1638 l 1,32,-1
 491 1638 l 1,29,-1
EndSplineSet
Ligature2: "<27,0> Canonical Decomposition lookup 2 subtable" e gravecomb
EndChar

StartChar: eacute
Encoding: 233 233 171
Width: 1233
Flags: W
LayerCount: 2
Fore
SplineSet
1120 652 m 1,0,-1
 1120 562 l 1,1,-1
 323 562 l 1,2,-1
 323 556 l 1,3,4
 315 327 315 327 410.5 227 c 128,-1,5
 506 127 506 127 680 127 c 0,6,7
 768 127 768 127 864 155 c 128,-1,8
 960 183 960 183 1069 240 c 1,9,-1
 1069 57 l 1,10,11
 964 14 964 14 866.5 -7.5 c 128,-1,12
 769 -29 769 -29 678 -29 c 0,13,14
 417 -29 417 -29 270 127.5 c 128,-1,15
 123 284 123 284 123 559 c 0,16,17
 123 827 123 827 267 987 c 128,-1,18
 411 1147 411 1147 651 1147 c 0,19,20
 865 1147 865 1147 988.5 1002 c 128,-1,21
 1112 857 1112 857 1120 652 c 1,0,-1
936 706 m 1,22,23
 924 822 924 822 851.5 906.5 c 128,-1,24
 779 991 779 991 643 991 c 0,25,26
 510 991 510 991 424 903 c 128,-1,27
 338 815 338 815 330 705 c 1,28,-1
 936 706 l 1,22,23
770 1638 m 1,29,-1
 968 1638 l 1,30,-1
 643 1262 l 1,31,-1
 489 1262 l 1,32,-1
 770 1638 l 1,29,-1
EndSplineSet
Ligature2: "<27,0> Canonical Decomposition lookup 2 subtable" e acutecomb
EndChar

StartChar: ecircumflex
Encoding: 234 234 172
Width: 1233
Flags: W
LayerCount: 2
Fore
SplineSet
1120 652 m 1,0,-1
 1120 562 l 1,1,-1
 323 562 l 1,2,-1
 323 556 l 1,3,4
 315 327 315 327 410.5 227 c 128,-1,5
 506 127 506 127 680 127 c 0,6,7
 768 127 768 127 864 155 c 128,-1,8
 960 183 960 183 1069 240 c 1,9,-1
 1069 57 l 1,10,11
 964 14 964 14 866.5 -7.5 c 128,-1,12
 769 -29 769 -29 678 -29 c 0,13,14
 417 -29 417 -29 270 127.5 c 128,-1,15
 123 284 123 284 123 559 c 0,16,17
 123 827 123 827 267 987 c 128,-1,18
 411 1147 411 1147 651 1147 c 0,19,20
 865 1147 865 1147 988.5 1002 c 128,-1,21
 1112 857 1112 857 1120 652 c 1,0,-1
936 706 m 1,22,23
 924 822 924 822 851.5 906.5 c 128,-1,24
 779 991 779 991 643 991 c 0,25,26
 510 991 510 991 424 903 c 128,-1,27
 338 815 338 815 330 705 c 1,28,-1
 936 706 l 1,22,23
557 1638 m 1,29,-1
 704 1638 l 1,30,-1
 950 1262 l 1,31,-1
 811 1262 l 1,32,-1
 630 1507 l 1,33,-1
 450 1262 l 1,34,-1
 311 1262 l 1,35,-1
 557 1638 l 1,29,-1
EndSplineSet
Ligature2: "<27,0> Canonical Decomposition lookup 2 subtable" e uni0302
EndChar

StartChar: edieresis
Encoding: 235 235 173
Width: 1233
Flags: W
LayerCount: 2
Fore
SplineSet
1120 652 m 1,0,-1
 1120 562 l 1,1,-1
 323 562 l 1,2,-1
 323 556 l 1,3,4
 315 327 315 327 410.5 227 c 128,-1,5
 506 127 506 127 680 127 c 0,6,7
 768 127 768 127 864 155 c 128,-1,8
 960 183 960 183 1069 240 c 1,9,-1
 1069 57 l 1,10,11
 964 14 964 14 866.5 -7.5 c 128,-1,12
 769 -29 769 -29 678 -29 c 0,13,14
 417 -29 417 -29 270 127.5 c 128,-1,15
 123 284 123 284 123 559 c 0,16,17
 123 827 123 827 267 987 c 128,-1,18
 411 1147 411 1147 651 1147 c 0,19,20
 865 1147 865 1147 988.5 1002 c 128,-1,21
 1112 857 1112 857 1120 652 c 1,0,-1
936 706 m 1,22,23
 924 822 924 822 851.5 906.5 c 128,-1,24
 779 991 779 991 643 991 c 0,25,26
 510 991 510 991 424 903 c 128,-1,27
 338 815 338 815 330 705 c 1,28,-1
 936 706 l 1,22,23
333 1552 m 1,29,-1
 536 1552 l 1,30,-1
 536 1350 l 1,31,-1
 333 1350 l 1,32,-1
 333 1552 l 1,29,-1
725 1552 m 1,33,-1
 927 1552 l 1,34,-1
 927 1350 l 1,35,-1
 725 1350 l 1,36,-1
 725 1552 l 1,33,-1
EndSplineSet
Ligature2: "<27,0> Canonical Decomposition lookup 2 subtable" e uni0308
EndChar

StartChar: igrave
Encoding: 236 236 174
Width: 1233
Flags: W
LayerCount: 2
Fore
SplineSet
256 1120 m 1,0,-1
 727 1120 l 1,1,-1
 727 143 l 1,2,-1
 1092 143 l 1,3,-1
 1092 0 l 1,4,-1
 178 0 l 1,5,-1
 178 143 l 1,6,-1
 543 143 l 1,7,-1
 543 977 l 1,8,-1
 256 977 l 1,9,-1
 256 1120 l 1,0,-1
477 1638 m 1,10,-1
 758 1262 l 1,11,-1
 604 1262 l 1,12,-1
 279 1638 l 1,13,-1
 477 1638 l 1,10,-1
EndSplineSet
Ligature2: "<27,0> Canonical Decomposition lookup 2 subtable" i gravecomb
EndChar

StartChar: iacute
Encoding: 237 237 175
Width: 1233
Flags: W
LayerCount: 2
Fore
SplineSet
256 1120 m 1,0,-1
 727 1120 l 1,1,-1
 727 143 l 1,2,-1
 1092 143 l 1,3,-1
 1092 0 l 1,4,-1
 178 0 l 1,5,-1
 178 143 l 1,6,-1
 543 143 l 1,7,-1
 543 977 l 1,8,-1
 256 977 l 1,9,-1
 256 1120 l 1,0,-1
756 1638 m 1,10,-1
 954 1638 l 1,11,-1
 629 1262 l 1,12,-1
 475 1262 l 1,13,-1
 756 1638 l 1,10,-1
EndSplineSet
Ligature2: "<27,0> Canonical Decomposition lookup 2 subtable" i acutecomb
EndChar

StartChar: icircumflex
Encoding: 238 238 176
Width: 1233
Flags: W
LayerCount: 2
Fore
SplineSet
256 1120 m 1,0,-1
 727 1120 l 1,1,-1
 727 143 l 1,2,-1
 1092 143 l 1,3,-1
 1092 0 l 1,4,-1
 178 0 l 1,5,-1
 178 143 l 1,6,-1
 543 143 l 1,7,-1
 543 977 l 1,8,-1
 256 977 l 1,9,-1
 256 1120 l 1,0,-1
543 1638 m 1,10,-1
 690 1638 l 1,11,-1
 936 1262 l 1,12,-1
 797 1262 l 1,13,-1
 616 1507 l 1,14,-1
 436 1262 l 1,15,-1
 297 1262 l 1,16,-1
 543 1638 l 1,10,-1
EndSplineSet
Ligature2: "<27,0> Canonical Decomposition lookup 2 subtable" i uni0302
EndChar

StartChar: idieresis
Encoding: 239 239 177
Width: 1233
Flags: W
LayerCount: 2
Fore
SplineSet
256 1120 m 1,0,-1
 727 1120 l 1,1,-1
 727 143 l 1,2,-1
 1092 143 l 1,3,-1
 1092 0 l 1,4,-1
 178 0 l 1,5,-1
 178 143 l 1,6,-1
 543 143 l 1,7,-1
 543 977 l 1,8,-1
 256 977 l 1,9,-1
 256 1120 l 1,0,-1
338 1552 m 1,10,-1
 541 1552 l 1,11,-1
 541 1350 l 1,12,-1
 338 1350 l 1,13,-1
 338 1552 l 1,10,-1
730 1552 m 1,14,-1
 932 1552 l 1,15,-1
 932 1350 l 1,16,-1
 730 1350 l 1,17,-1
 730 1552 l 1,14,-1
EndSplineSet
Ligature2: "<27,0> Canonical Decomposition lookup 2 subtable" i uni0308
EndChar

StartChar: eth
Encoding: 240 240 178
Width: 1233
Flags: W
LayerCount: 2
Fore
SplineSet
717 1327 m 1,0,1
 914 1115 914 1115 1005 925 c 128,-1,2
 1096 735 1096 735 1096 535 c 0,3,4
 1096 267 1096 267 970.5 119 c 128,-1,5
 845 -29 845 -29 616 -29 c 0,6,7
 388 -29 388 -29 262.5 119 c 128,-1,8
 137 267 137 267 137 535 c 0,9,10
 137 800 137 800 262.5 948 c 128,-1,11
 388 1096 388 1096 612 1096 c 0,12,13
 646 1096 646 1096 663.5 1095 c 128,-1,14
 681 1094 681 1094 696 1092 c 1,15,16
 663 1137 663 1137 627 1181.5 c 128,-1,17
 591 1226 591 1226 553 1270 c 1,18,-1
 274 1178 l 1,19,-1
 244 1276 l 1,20,-1
 481 1356 l 1,21,-1
 299 1556 l 1,22,-1
 518 1556 l 1,23,-1
 645 1411 l 1,24,-1
 934 1505 l 1,25,-1
 967 1407 l 1,26,-1
 717 1327 l 1,0,1
793 918 m 1,27,28
 758 931 758 931 717 937.5 c 128,-1,29
 676 944 676 944 631 944 c 0,30,31
 485 944 485 944 408.5 839 c 128,-1,32
 332 734 332 734 332 535 c 0,33,34
 332 339 332 339 406 233 c 128,-1,35
 480 127 480 127 616 127 c 0,36,37
 753 127 753 127 827 233 c 128,-1,38
 901 339 901 339 901 535 c 0,39,40
 901 645 901 645 872 746.5 c 128,-1,41
 843 848 843 848 793 918 c 1,27,28
EndSplineSet
EndChar

StartChar: ntilde
Encoding: 241 241 179
Width: 1233
Flags: W
LayerCount: 2
Fore
SplineSet
1051 694 m 2,0,-1
 1051 0 l 1,1,-1
 866 0 l 1,2,-1
 866 694 l 2,3,4
 866 845 866 845 813 916 c 128,-1,5
 760 987 760 987 647 987 c 0,6,7
 518 987 518 987 448.5 895.5 c 128,-1,8
 379 804 379 804 379 633 c 2,9,-1
 379 0 l 1,10,-1
 195 0 l 1,11,-1
 195 1120 l 1,12,-1
 379 1120 l 1,13,-1
 379 952 l 1,14,15
 428 1048 428 1048 512 1097.5 c 128,-1,16
 596 1147 596 1147 711 1147 c 0,17,18
 882 1147 882 1147 966.5 1034.5 c 128,-1,19
 1051 922 1051 922 1051 694 c 2,0,-1
612 1370 m 2,20,-1
 555 1425 l 2,21,22
 534 1445 534 1445 517.5 1454.5 c 128,-1,23
 501 1464 501 1464 487 1464 c 0,24,25
 449 1464 449 1464 431 1427 c 128,-1,26
 413 1390 413 1390 411 1309 c 1,27,-1
 287 1309 l 1,28,29
 288 1443 288 1443 339 1517 c 128,-1,30
 390 1591 390 1591 481 1591 c 0,31,32
 520 1591 520 1591 552 1577 c 128,-1,33
 584 1563 584 1563 621 1530 c 2,34,-1
 678 1475 l 2,35,36
 699 1455 699 1455 715.5 1445.5 c 128,-1,37
 732 1436 732 1436 745 1436 c 0,38,39
 784 1436 784 1436 802 1473 c 128,-1,40
 820 1510 820 1510 821 1591 c 1,41,-1
 946 1591 l 1,42,43
 945 1457 945 1457 894 1383 c 128,-1,44
 843 1309 843 1309 752 1309 c 0,45,46
 713 1309 713 1309 681 1323 c 128,-1,47
 649 1337 649 1337 612 1370 c 2,20,-1
EndSplineSet
Ligature2: "<27,0> Canonical Decomposition lookup 2 subtable" n tildecomb
EndChar

StartChar: ograve
Encoding: 242 242 180
Width: 1233
Flags: W
LayerCount: 2
Fore
SplineSet
616 991 m 0,0,1
 476 991 476 991 404 882 c 128,-1,2
 332 773 332 773 332 559 c 0,3,4
 332 346 332 346 404 236.5 c 128,-1,5
 476 127 476 127 616 127 c 0,6,7
 757 127 757 127 829 236.5 c 128,-1,8
 901 346 901 346 901 559 c 0,9,10
 901 773 901 773 829 882 c 128,-1,11
 757 991 757 991 616 991 c 0,0,1
616 1147 m 256,12,13
 849 1147 849 1147 972.5 996 c 128,-1,14
 1096 845 1096 845 1096 559 c 0,15,16
 1096 272 1096 272 973 121.5 c 128,-1,17
 850 -29 850 -29 616 -29 c 0,18,19
 383 -29 383 -29 260 121.5 c 128,-1,20
 137 272 137 272 137 559 c 0,21,22
 137 845 137 845 260 996 c 128,-1,23
 383 1147 383 1147 616 1147 c 256,12,13
477 1638 m 1,24,-1
 758 1262 l 1,25,-1
 604 1262 l 1,26,-1
 279 1638 l 1,27,-1
 477 1638 l 1,24,-1
EndSplineSet
Ligature2: "<27,0> Canonical Decomposition lookup 2 subtable" o gravecomb
EndChar

StartChar: oacute
Encoding: 243 243 181
Width: 1233
Flags: W
LayerCount: 2
Fore
SplineSet
616 991 m 0,0,1
 476 991 476 991 404 882 c 128,-1,2
 332 773 332 773 332 559 c 0,3,4
 332 346 332 346 404 236.5 c 128,-1,5
 476 127 476 127 616 127 c 0,6,7
 757 127 757 127 829 236.5 c 128,-1,8
 901 346 901 346 901 559 c 0,9,10
 901 773 901 773 829 882 c 128,-1,11
 757 991 757 991 616 991 c 0,0,1
616 1147 m 256,12,13
 849 1147 849 1147 972.5 996 c 128,-1,14
 1096 845 1096 845 1096 559 c 0,15,16
 1096 272 1096 272 973 121.5 c 128,-1,17
 850 -29 850 -29 616 -29 c 0,18,19
 383 -29 383 -29 260 121.5 c 128,-1,20
 137 272 137 272 137 559 c 0,21,22
 137 845 137 845 260 996 c 128,-1,23
 383 1147 383 1147 616 1147 c 256,12,13
756 1638 m 1,24,-1
 954 1638 l 1,25,-1
 629 1262 l 1,26,-1
 475 1262 l 1,27,-1
 756 1638 l 1,24,-1
EndSplineSet
Ligature2: "<27,0> Canonical Decomposition lookup 2 subtable" o acutecomb
EndChar

StartChar: ocircumflex
Encoding: 244 244 182
Width: 1233
Flags: W
LayerCount: 2
Fore
SplineSet
616 991 m 0,0,1
 476 991 476 991 404 882 c 128,-1,2
 332 773 332 773 332 559 c 0,3,4
 332 346 332 346 404 236.5 c 128,-1,5
 476 127 476 127 616 127 c 0,6,7
 757 127 757 127 829 236.5 c 128,-1,8
 901 346 901 346 901 559 c 0,9,10
 901 773 901 773 829 882 c 128,-1,11
 757 991 757 991 616 991 c 0,0,1
616 1147 m 256,12,13
 849 1147 849 1147 972.5 996 c 128,-1,14
 1096 845 1096 845 1096 559 c 0,15,16
 1096 272 1096 272 973 121.5 c 128,-1,17
 850 -29 850 -29 616 -29 c 0,18,19
 383 -29 383 -29 260 121.5 c 128,-1,20
 137 272 137 272 137 559 c 0,21,22
 137 845 137 845 260 996 c 128,-1,23
 383 1147 383 1147 616 1147 c 256,12,13
543 1638 m 1,24,-1
 690 1638 l 1,25,-1
 936 1262 l 1,26,-1
 797 1262 l 1,27,-1
 616 1507 l 1,28,-1
 436 1262 l 1,29,-1
 297 1262 l 1,30,-1
 543 1638 l 1,24,-1
EndSplineSet
Ligature2: "<27,0> Canonical Decomposition lookup 2 subtable" o uni0302
EndChar

StartChar: otilde
Encoding: 245 245 183
Width: 1233
Flags: W
LayerCount: 2
Fore
SplineSet
616 991 m 0,0,1
 476 991 476 991 404 882 c 128,-1,2
 332 773 332 773 332 559 c 0,3,4
 332 346 332 346 404 236.5 c 128,-1,5
 476 127 476 127 616 127 c 0,6,7
 757 127 757 127 829 236.5 c 128,-1,8
 901 346 901 346 901 559 c 0,9,10
 901 773 901 773 829 882 c 128,-1,11
 757 991 757 991 616 991 c 0,0,1
616 1147 m 256,12,13
 849 1147 849 1147 972.5 996 c 128,-1,14
 1096 845 1096 845 1096 559 c 0,15,16
 1096 272 1096 272 973 121.5 c 128,-1,17
 850 -29 850 -29 616 -29 c 0,18,19
 383 -29 383 -29 260 121.5 c 128,-1,20
 137 272 137 272 137 559 c 0,21,22
 137 845 137 845 260 996 c 128,-1,23
 383 1147 383 1147 616 1147 c 256,12,13
612 1370 m 2,24,-1
 555 1425 l 2,25,26
 534 1445 534 1445 517.5 1454.5 c 128,-1,27
 501 1464 501 1464 487 1464 c 0,28,29
 449 1464 449 1464 431 1427 c 128,-1,30
 413 1390 413 1390 411 1309 c 1,31,-1
 287 1309 l 1,32,33
 288 1443 288 1443 339 1517 c 128,-1,34
 390 1591 390 1591 481 1591 c 0,35,36
 520 1591 520 1591 552 1577 c 128,-1,37
 584 1563 584 1563 621 1530 c 2,38,-1
 678 1475 l 2,39,40
 699 1455 699 1455 715.5 1445.5 c 128,-1,41
 732 1436 732 1436 745 1436 c 0,42,43
 784 1436 784 1436 802 1473 c 128,-1,44
 820 1510 820 1510 821 1591 c 1,45,-1
 946 1591 l 1,46,47
 945 1457 945 1457 894 1383 c 128,-1,48
 843 1309 843 1309 752 1309 c 0,49,50
 713 1309 713 1309 681 1323 c 128,-1,51
 649 1337 649 1337 612 1370 c 2,24,-1
EndSplineSet
Ligature2: "<27,0> Canonical Decomposition lookup 2 subtable" o tildecomb
EndChar

StartChar: odieresis
Encoding: 246 246 184
Width: 1233
Flags: W
LayerCount: 2
Fore
SplineSet
616 991 m 0,0,1
 476 991 476 991 404 882 c 128,-1,2
 332 773 332 773 332 559 c 0,3,4
 332 346 332 346 404 236.5 c 128,-1,5
 476 127 476 127 616 127 c 0,6,7
 757 127 757 127 829 236.5 c 128,-1,8
 901 346 901 346 901 559 c 0,9,10
 901 773 901 773 829 882 c 128,-1,11
 757 991 757 991 616 991 c 0,0,1
616 1147 m 256,12,13
 849 1147 849 1147 972.5 996 c 128,-1,14
 1096 845 1096 845 1096 559 c 0,15,16
 1096 272 1096 272 973 121.5 c 128,-1,17
 850 -29 850 -29 616 -29 c 0,18,19
 383 -29 383 -29 260 121.5 c 128,-1,20
 137 272 137 272 137 559 c 0,21,22
 137 845 137 845 260 996 c 128,-1,23
 383 1147 383 1147 616 1147 c 256,12,13
319 1552 m 1,24,-1
 522 1552 l 1,25,-1
 522 1350 l 1,26,-1
 319 1350 l 1,27,-1
 319 1552 l 1,24,-1
712 1552 m 1,28,-1
 914 1552 l 1,29,-1
 914 1350 l 1,30,-1
 712 1350 l 1,31,-1
 712 1552 l 1,28,-1
EndSplineSet
Ligature2: "<27,0> Canonical Decomposition lookup 2 subtable" o uni0308
EndChar

StartChar: divide
Encoding: 247 247 185
Width: 1233
Flags: W
LayerCount: 2
Fore
SplineSet
494 395 m 1,0,-1
 739 395 l 1,1,-1
 739 150 l 1,2,-1
 494 150 l 1,3,-1
 494 395 l 1,0,-1
494 1135 m 1,4,-1
 739 1135 l 1,5,-1
 739 889 l 1,6,-1
 494 889 l 1,7,-1
 494 1135 l 1,4,-1
88 727 m 1,8,-1
 1145 727 l 1,9,-1
 1145 557 l 1,10,-1
 88 557 l 1,11,-1
 88 727 l 1,8,-1
EndSplineSet
EndChar

StartChar: oslash
Encoding: 248 248 186
Width: 1233
Flags: W
LayerCount: 2
Fore
SplineSet
877 780 m 1,0,-1
 414 221 l 1,1,2
 450 174 450 174 500.5 150.5 c 128,-1,3
 551 127 551 127 616 127 c 0,4,5
 757 127 757 127 829 236.5 c 128,-1,6
 901 346 901 346 901 559 c 0,7,8
 901 611 901 611 895 666.5 c 128,-1,9
 889 722 889 722 877 780 c 1,0,-1
817 897 m 1,10,11
 782 945 782 945 732.5 968 c 128,-1,12
 683 991 683 991 616 991 c 0,13,14
 477 991 477 991 402.5 884 c 128,-1,15
 328 777 328 777 328 575 c 0,16,17
 328 527 328 527 335 469 c 128,-1,18
 342 411 342 411 356 340 c 1,19,-1
 817 897 l 1,10,11
217 180 m 1,20,21
 178 251 178 251 157.5 348.5 c 128,-1,22
 137 446 137 446 137 559 c 0,23,24
 137 845 137 845 260 996 c 128,-1,25
 383 1147 383 1147 616 1147 c 0,26,27
 716 1147 716 1147 795 1119.5 c 128,-1,28
 874 1092 874 1092 934 1036 c 1,29,-1
 1081 1212 l 1,30,-1
 1174 1135 l 1,31,-1
 1010 940 l 1,32,33
 1052 874 1052 874 1074 777.5 c 128,-1,34
 1096 681 1096 681 1096 559 c 0,35,36
 1096 272 1096 272 973 121.5 c 128,-1,37
 850 -29 850 -29 616 -29 c 0,38,39
 513 -29 513 -29 434.5 0.5 c 128,-1,40
 356 30 356 30 299 90 c 1,41,-1
 139 -96 l 1,42,-1
 47 -20 l 1,43,-1
 217 180 l 1,20,21
EndSplineSet
EndChar

StartChar: ugrave
Encoding: 249 249 187
Width: 1233
Flags: W
LayerCount: 2
Fore
SplineSet
195 424 m 2,0,-1
 195 1118 l 1,1,-1
 379 1118 l 1,2,-1
 379 424 l 2,3,4
 379 273 379 273 432.5 202 c 128,-1,5
 486 131 486 131 598 131 c 0,6,7
 728 131 728 131 797 222.5 c 128,-1,8
 866 314 866 314 866 485 c 2,9,-1
 866 1118 l 1,10,-1
 1051 1118 l 1,11,-1
 1051 0 l 1,12,-1
 866 0 l 1,13,-1
 866 168 l 1,14,15
 817 71 817 71 732.5 21 c 128,-1,16
 648 -29 648 -29 535 -29 c 0,17,18
 363 -29 363 -29 279 83.5 c 128,-1,19
 195 196 195 196 195 424 c 2,0,-1
477 1638 m 1,20,-1
 758 1262 l 1,21,-1
 604 1262 l 1,22,-1
 279 1638 l 1,23,-1
 477 1638 l 1,20,-1
EndSplineSet
Ligature2: "<27,0> Canonical Decomposition lookup 2 subtable" u gravecomb
EndChar

StartChar: uacute
Encoding: 250 250 188
Width: 1233
Flags: W
LayerCount: 2
Fore
SplineSet
195 424 m 2,0,-1
 195 1118 l 1,1,-1
 379 1118 l 1,2,-1
 379 424 l 2,3,4
 379 273 379 273 432.5 202 c 128,-1,5
 486 131 486 131 598 131 c 0,6,7
 728 131 728 131 797 222.5 c 128,-1,8
 866 314 866 314 866 485 c 2,9,-1
 866 1118 l 1,10,-1
 1051 1118 l 1,11,-1
 1051 0 l 1,12,-1
 866 0 l 1,13,-1
 866 168 l 1,14,15
 817 71 817 71 732.5 21 c 128,-1,16
 648 -29 648 -29 535 -29 c 0,17,18
 363 -29 363 -29 279 83.5 c 128,-1,19
 195 196 195 196 195 424 c 2,0,-1
756 1638 m 1,20,-1
 954 1638 l 1,21,-1
 629 1262 l 1,22,-1
 475 1262 l 1,23,-1
 756 1638 l 1,20,-1
EndSplineSet
Ligature2: "<27,0> Canonical Decomposition lookup 2 subtable" u acutecomb
EndChar

StartChar: ucircumflex
Encoding: 251 251 189
Width: 1233
Flags: W
LayerCount: 2
Fore
SplineSet
195 424 m 2,0,-1
 195 1118 l 1,1,-1
 379 1118 l 1,2,-1
 379 424 l 2,3,4
 379 273 379 273 432.5 202 c 128,-1,5
 486 131 486 131 598 131 c 0,6,7
 728 131 728 131 797 222.5 c 128,-1,8
 866 314 866 314 866 485 c 2,9,-1
 866 1118 l 1,10,-1
 1051 1118 l 1,11,-1
 1051 0 l 1,12,-1
 866 0 l 1,13,-1
 866 168 l 1,14,15
 817 71 817 71 732.5 21 c 128,-1,16
 648 -29 648 -29 535 -29 c 0,17,18
 363 -29 363 -29 279 83.5 c 128,-1,19
 195 196 195 196 195 424 c 2,0,-1
550 1638 m 1,20,-1
 696 1638 l 1,21,-1
 942 1262 l 1,22,-1
 803 1262 l 1,23,-1
 623 1507 l 1,24,-1
 443 1262 l 1,25,-1
 304 1262 l 1,26,-1
 550 1638 l 1,20,-1
EndSplineSet
Ligature2: "<27,0> Canonical Decomposition lookup 2 subtable" u uni0302
EndChar

StartChar: udieresis
Encoding: 252 252 190
Width: 1233
Flags: W
LayerCount: 2
Fore
SplineSet
195 424 m 2,0,-1
 195 1118 l 1,1,-1
 379 1118 l 1,2,-1
 379 424 l 2,3,4
 379 273 379 273 432.5 202 c 128,-1,5
 486 131 486 131 598 131 c 0,6,7
 728 131 728 131 797 222.5 c 128,-1,8
 866 314 866 314 866 485 c 2,9,-1
 866 1118 l 1,10,-1
 1051 1118 l 1,11,-1
 1051 0 l 1,12,-1
 866 0 l 1,13,-1
 866 168 l 1,14,15
 817 71 817 71 732.5 21 c 128,-1,16
 648 -29 648 -29 535 -29 c 0,17,18
 363 -29 363 -29 279 83.5 c 128,-1,19
 195 196 195 196 195 424 c 2,0,-1
325 1552 m 1,20,-1
 528 1552 l 1,21,-1
 528 1350 l 1,22,-1
 325 1350 l 1,23,-1
 325 1552 l 1,20,-1
718 1552 m 1,24,-1
 920 1552 l 1,25,-1
 920 1350 l 1,26,-1
 718 1350 l 1,27,-1
 718 1552 l 1,24,-1
EndSplineSet
Ligature2: "<27,0> Canonical Decomposition lookup 2 subtable" u uni0308
EndChar

StartChar: yacute
Encoding: 253 253 191
Width: 1233
Flags: W
LayerCount: 2
Fore
SplineSet
858 360 m 2,0,1
 812 243 812 243 741 52 c 0,2,3
 642 -212 642 -212 608 -270 c 0,4,5
 562 -348 562 -348 493 -387 c 128,-1,6
 424 -426 424 -426 332 -426 c 2,7,-1
 184 -426 l 1,8,-1
 184 -272 l 1,9,-1
 293 -272 l 2,10,11
 374 -272 374 -272 420 -225 c 128,-1,12
 466 -178 466 -178 537 18 c 1,13,-1
 104 1120 l 1,14,-1
 299 1120 l 1,15,-1
 631 244 l 1,16,-1
 958 1120 l 1,17,-1
 1153 1120 l 1,18,-1
 858 360 l 2,0,1
756 1638 m 1,19,-1
 954 1638 l 1,20,-1
 629 1262 l 1,21,-1
 475 1262 l 1,22,-1
 756 1638 l 1,19,-1
EndSplineSet
Ligature2: "<27,0> Canonical Decomposition lookup 2 subtable" y acutecomb
EndChar

StartChar: thorn
Encoding: 254 254 192
Width: 1233
Flags: W
LayerCount: 2
Fore
SplineSet
375 141 m 1,0,-1
 375 -426 l 1,1,-1
 190 -426 l 1,2,-1
 190 1567 l 1,3,-1
 375 1567 l 1,4,-1
 375 977 l 1,5,6
 421 1060 421 1060 497.5 1103.5 c 128,-1,7
 574 1147 574 1147 674 1147 c 0,8,9
 877 1147 877 1147 992.5 990 c 128,-1,10
 1108 833 1108 833 1108 555 c 0,11,12
 1108 282 1108 282 992 126.5 c 128,-1,13
 876 -29 876 -29 674 -29 c 0,14,15
 572 -29 572 -29 495.5 14.5 c 128,-1,16
 419 58 419 58 375 141 c 1,0,-1
915 559 m 256,17,18
 915 773 915 773 847.5 882 c 128,-1,19
 780 991 780 991 647 991 c 0,20,21
 513 991 513 991 444 881.5 c 128,-1,22
 375 772 375 772 375 559 c 0,23,24
 375 347 375 347 444 237 c 128,-1,25
 513 127 513 127 647 127 c 0,26,27
 780 127 780 127 847.5 236 c 128,-1,28
 915 345 915 345 915 559 c 256,17,18
EndSplineSet
EndChar

StartChar: ydieresis
Encoding: 255 255 193
Width: 1233
Flags: W
LayerCount: 2
Fore
SplineSet
858 360 m 2,0,1
 812 243 812 243 741 52 c 0,2,3
 642 -212 642 -212 608 -270 c 0,4,5
 562 -348 562 -348 493 -387 c 128,-1,6
 424 -426 424 -426 332 -426 c 2,7,-1
 184 -426 l 1,8,-1
 184 -272 l 1,9,-1
 293 -272 l 2,10,11
 374 -272 374 -272 420 -225 c 128,-1,12
 466 -178 466 -178 537 18 c 1,13,-1
 104 1120 l 1,14,-1
 299 1120 l 1,15,-1
 631 244 l 1,16,-1
 958 1120 l 1,17,-1
 1153 1120 l 1,18,-1
 858 360 l 2,0,1
319 1552 m 1,19,-1
 522 1552 l 1,20,-1
 522 1350 l 1,21,-1
 319 1350 l 1,22,-1
 319 1552 l 1,19,-1
711 1552 m 1,23,-1
 913 1552 l 1,24,-1
 913 1350 l 1,25,-1
 711 1350 l 1,26,-1
 711 1552 l 1,23,-1
EndSplineSet
Ligature2: "<27,0> Canonical Decomposition lookup 2 subtable" y uni0308
EndChar

StartChar: Amacron
Encoding: 256 256 194
Width: 1233
Flags: W
LayerCount: 2
Fore
SplineSet
318 1840 m 1,0,-1
 915 1840 l 1,1,-1
 915 1692 l 1,2,-1
 318 1692 l 1,3,-1
 318 1840 l 1,0,-1
616 1315 m 1,4,-1
 403 551 l 1,5,-1
 829 551 l 1,6,-1
 616 1315 l 1,4,-1
494 1493 m 1,7,-1
 739 1493 l 1,8,-1
 1196 0 l 1,9,-1
 987 0 l 1,10,-1
 877 389 l 1,11,-1
 354 389 l 1,12,-1
 246 0 l 1,13,-1
 37 0 l 1,14,-1
 494 1493 l 1,7,-1
EndSplineSet
Ligature2: "<27,0> Canonical Decomposition lookup 2 subtable" A uni0304
EndChar

StartChar: amacron
Encoding: 257 257 195
Width: 1233
Flags: W
LayerCount: 2
Fore
SplineSet
317 1526 m 1,0,-1
 915 1526 l 1,1,-1
 915 1378 l 1,2,-1
 317 1378 l 1,3,-1
 317 1526 l 1,0,-1
702 563 m 1,4,-1
 641 563 l 2,5,6
 480 563 480 563 398.5 506.5 c 128,-1,7
 317 450 317 450 317 338 c 0,8,9
 317 237 317 237 378 181 c 128,-1,10
 439 125 439 125 547 125 c 0,11,12
 699 125 699 125 786 230.5 c 128,-1,13
 873 336 873 336 874 522 c 2,14,-1
 874 563 l 1,15,-1
 702 563 l 1,4,-1
1059 639 m 2,16,-1
 1059 0 l 1,17,-1
 874 0 l 1,18,-1
 874 166 l 1,19,20
 815 66 815 66 725.5 18.5 c 128,-1,21
 636 -29 636 -29 508 -29 c 0,22,23
 337 -29 337 -29 235 67.5 c 128,-1,24
 133 164 133 164 133 326 c 0,25,26
 133 513 133 513 258.5 610 c 128,-1,27
 384 707 384 707 627 707 c 2,28,-1
 874 707 l 1,29,-1
 874 736 l 2,30,31
 873 870 873 870 806 930.5 c 128,-1,32
 739 991 739 991 592 991 c 0,33,34
 498 991 498 991 402 964 c 128,-1,35
 306 937 306 937 215 885 c 1,36,-1
 215 1069 l 1,37,38
 317 1108 317 1108 410.5 1127.5 c 128,-1,39
 504 1147 504 1147 592 1147 c 0,40,41
 731 1147 731 1147 829.5 1106 c 128,-1,42
 928 1065 928 1065 989 983 c 0,43,44
 1027 933 1027 933 1043 859.5 c 128,-1,45
 1059 786 1059 786 1059 639 c 2,16,-1
EndSplineSet
Ligature2: "<27,0> Canonical Decomposition lookup 2 subtable" a uni0304
EndChar

StartChar: Abreve
Encoding: 258 258 196
Width: 1233
Flags: W
LayerCount: 2
Fore
SplineSet
303 1901 m 1,0,-1
 422 1901 l 1,1,2
 434 1847 434 1847 484 1818.5 c 128,-1,3
 534 1790 534 1790 616 1790 c 0,4,5
 699 1790 699 1790 747.5 1817.5 c 128,-1,6
 796 1845 796 1845 811 1901 c 1,7,-1
 930 1901 l 1,8,9
 919 1782 919 1782 839.5 1720.5 c 128,-1,10
 760 1659 760 1659 616 1659 c 256,11,12
 472 1659 472 1659 393 1720 c 128,-1,13
 314 1781 314 1781 303 1901 c 1,0,-1
616 1315 m 1,14,-1
 403 551 l 1,15,-1
 829 551 l 1,16,-1
 616 1315 l 1,14,-1
494 1493 m 1,17,-1
 739 1493 l 1,18,-1
 1196 0 l 1,19,-1
 987 0 l 1,20,-1
 877 389 l 1,21,-1
 354 389 l 1,22,-1
 246 0 l 1,23,-1
 37 0 l 1,24,-1
 494 1493 l 1,17,-1
EndSplineSet
Ligature2: "<27,0> Canonical Decomposition lookup 2 subtable" A uni0306
EndChar

StartChar: abreve
Encoding: 259 259 197
Width: 1233
Flags: W
LayerCount: 2
Fore
SplineSet
303 1608 m 1,0,-1
 422 1608 l 1,1,2
 433 1532 433 1532 481 1495 c 128,-1,3
 529 1458 529 1458 616 1458 c 0,4,5
 701 1458 701 1458 749 1495 c 128,-1,6
 797 1532 797 1532 811 1608 c 1,7,-1
 930 1608 l 1,8,9
 919 1465 919 1465 840 1393 c 128,-1,10
 761 1321 761 1321 616 1321 c 0,11,12
 472 1321 472 1321 393 1393 c 128,-1,13
 314 1465 314 1465 303 1608 c 1,0,-1
702 563 m 1,14,-1
 641 563 l 2,15,16
 480 563 480 563 398.5 506.5 c 128,-1,17
 317 450 317 450 317 338 c 0,18,19
 317 237 317 237 378 181 c 128,-1,20
 439 125 439 125 547 125 c 0,21,22
 699 125 699 125 786 230.5 c 128,-1,23
 873 336 873 336 874 522 c 2,24,-1
 874 563 l 1,25,-1
 702 563 l 1,14,-1
1059 639 m 2,26,-1
 1059 0 l 1,27,-1
 874 0 l 1,28,-1
 874 166 l 1,29,30
 815 66 815 66 725.5 18.5 c 128,-1,31
 636 -29 636 -29 508 -29 c 0,32,33
 337 -29 337 -29 235 67.5 c 128,-1,34
 133 164 133 164 133 326 c 0,35,36
 133 513 133 513 258.5 610 c 128,-1,37
 384 707 384 707 627 707 c 2,38,-1
 874 707 l 1,39,-1
 874 736 l 2,40,41
 873 870 873 870 806 930.5 c 128,-1,42
 739 991 739 991 592 991 c 0,43,44
 498 991 498 991 402 964 c 128,-1,45
 306 937 306 937 215 885 c 1,46,-1
 215 1069 l 1,47,48
 317 1108 317 1108 410.5 1127.5 c 128,-1,49
 504 1147 504 1147 592 1147 c 0,50,51
 731 1147 731 1147 829.5 1106 c 128,-1,52
 928 1065 928 1065 989 983 c 0,53,54
 1027 933 1027 933 1043 859.5 c 128,-1,55
 1059 786 1059 786 1059 639 c 2,26,-1
EndSplineSet
Ligature2: "<27,0> Canonical Decomposition lookup 2 subtable" a uni0306
EndChar

StartChar: Aogonek
Encoding: 260 260 198
Width: 1233
Flags: W
LayerCount: 2
Fore
SplineSet
983 0 m 1,0,-1
 1102 0 l 1,1,2
 1057 -61 1057 -61 1035.5 -105 c 128,-1,3
 1014 -149 1014 -149 1014 -180 c 0,4,5
 1014 -226 1014 -226 1041.5 -249 c 128,-1,6
 1069 -272 1069 -272 1123 -272 c 0,7,8
 1155 -272 1155 -272 1186 -264.5 c 128,-1,9
 1217 -257 1217 -257 1248 -242 c 1,10,-1
 1248 -375 l 1,11,12
 1210 -385 1210 -385 1176 -390 c 128,-1,13
 1142 -395 1142 -395 1112 -395 c 0,14,15
 990 -395 990 -395 932.5 -351.5 c 128,-1,16
 875 -308 875 -308 875 -215 c 0,17,18
 875 -167 875 -167 901.5 -114.5 c 128,-1,19
 928 -62 928 -62 983 0 c 1,0,-1
616 1315 m 1,20,-1
 403 551 l 1,21,-1
 829 551 l 1,22,-1
 616 1315 l 1,20,-1
494 1493 m 1,23,-1
 739 1493 l 1,24,-1
 1196 0 l 1,25,-1
 987 0 l 1,26,-1
 877 389 l 1,27,-1
 354 389 l 1,28,-1
 246 0 l 1,29,-1
 37 0 l 1,30,-1
 494 1493 l 1,23,-1
EndSplineSet
Ligature2: "<27,0> Canonical Decomposition lookup 2 subtable" A uni0328
EndChar

StartChar: aogonek
Encoding: 261 261 199
Width: 1233
Flags: W
LayerCount: 2
Fore
SplineSet
873 0 m 1,0,-1
 992 0 l 1,1,2
 947 -61 947 -61 925.5 -105 c 128,-1,3
 904 -149 904 -149 904 -180 c 0,4,5
 904 -226 904 -226 931.5 -249 c 128,-1,6
 959 -272 959 -272 1013 -272 c 0,7,8
 1045 -272 1045 -272 1076 -264.5 c 128,-1,9
 1107 -257 1107 -257 1138 -242 c 1,10,-1
 1138 -375 l 1,11,12
 1100 -385 1100 -385 1066 -390 c 128,-1,13
 1032 -395 1032 -395 1002 -395 c 0,14,15
 880 -395 880 -395 822.5 -351.5 c 128,-1,16
 765 -308 765 -308 765 -215 c 0,17,18
 765 -167 765 -167 791.5 -114.5 c 128,-1,19
 818 -62 818 -62 873 0 c 1,0,-1
702 563 m 1,20,-1
 641 563 l 2,21,22
 480 563 480 563 398.5 506.5 c 128,-1,23
 317 450 317 450 317 338 c 0,24,25
 317 237 317 237 378 181 c 128,-1,26
 439 125 439 125 547 125 c 0,27,28
 699 125 699 125 786 230.5 c 128,-1,29
 873 336 873 336 874 522 c 2,30,-1
 874 563 l 1,31,-1
 702 563 l 1,20,-1
1059 639 m 2,32,-1
 1059 0 l 1,33,-1
 874 0 l 1,34,-1
 874 166 l 1,35,36
 815 66 815 66 725.5 18.5 c 128,-1,37
 636 -29 636 -29 508 -29 c 0,38,39
 337 -29 337 -29 235 67.5 c 128,-1,40
 133 164 133 164 133 326 c 0,41,42
 133 513 133 513 258.5 610 c 128,-1,43
 384 707 384 707 627 707 c 2,44,-1
 874 707 l 1,45,-1
 874 736 l 2,46,47
 873 870 873 870 806 930.5 c 128,-1,48
 739 991 739 991 592 991 c 0,49,50
 498 991 498 991 402 964 c 128,-1,51
 306 937 306 937 215 885 c 1,52,-1
 215 1069 l 1,53,54
 317 1108 317 1108 410.5 1127.5 c 128,-1,55
 504 1147 504 1147 592 1147 c 0,56,57
 731 1147 731 1147 829.5 1106 c 128,-1,58
 928 1065 928 1065 989 983 c 0,59,60
 1027 933 1027 933 1043 859.5 c 128,-1,61
 1059 786 1059 786 1059 639 c 2,32,-1
EndSplineSet
Ligature2: "<27,0> Canonical Decomposition lookup 2 subtable" a uni0328
EndChar

StartChar: Cacute
Encoding: 262 262 200
Width: 1233
Flags: W
LayerCount: 2
Fore
SplineSet
1073 53 m 1,0,1
 996 12 996 12 915 -8.5 c 128,-1,2
 834 -29 834 -29 743 -29 c 0,3,4
 456 -29 456 -29 297.5 174 c 128,-1,5
 139 377 139 377 139 745 c 0,6,7
 139 1111 139 1111 298.5 1315.5 c 128,-1,8
 458 1520 458 1520 743 1520 c 0,9,10
 834 1520 834 1520 915 1499.5 c 128,-1,11
 996 1479 996 1479 1073 1438 c 1,12,-1
 1073 1231 l 1,13,14
 999 1292 999 1292 914 1324 c 128,-1,15
 829 1356 829 1356 743 1356 c 0,16,17
 546 1356 546 1356 448 1204 c 128,-1,18
 350 1052 350 1052 350 745 c 0,19,20
 350 439 350 439 448 287 c 128,-1,21
 546 135 546 135 743 135 c 0,22,23
 831 135 831 135 915.5 167 c 128,-1,24
 1000 199 1000 199 1073 260 c 1,25,-1
 1073 53 l 1,0,1
762 1899 m 1,26,-1
 948 1899 l 1,27,-1
 719 1635 l 1,28,-1
 565 1635 l 1,29,-1
 762 1899 l 1,26,-1
EndSplineSet
Ligature2: "<27,0> Canonical Decomposition lookup 2 subtable" C acutecomb
EndChar

StartChar: cacute
Encoding: 263 263 201
Width: 1233
Flags: W
LayerCount: 2
Fore
SplineSet
1061 57 m 1,0,1
 987 14 987 14 908.5 -7.5 c 128,-1,2
 830 -29 830 -29 748 -29 c 0,3,4
 488 -29 488 -29 341.5 127 c 128,-1,5
 195 283 195 283 195 559 c 256,6,7
 195 835 195 835 341.5 991 c 128,-1,8
 488 1147 488 1147 748 1147 c 0,9,10
 829 1147 829 1147 906 1126 c 128,-1,11
 983 1105 983 1105 1061 1061 c 1,12,-1
 1061 868 l 1,13,14
 988 933 988 933 914.5 962 c 128,-1,15
 841 991 841 991 748 991 c 0,16,17
 575 991 575 991 482 879 c 128,-1,18
 389 767 389 767 389 559 c 0,19,20
 389 352 389 352 482.5 239.5 c 128,-1,21
 576 127 576 127 748 127 c 0,22,23
 844 127 844 127 920 156.5 c 128,-1,24
 996 186 996 186 1061 248 c 1,25,-1
 1061 57 l 1,0,1
846 1638 m 1,26,-1
 1044 1638 l 1,27,-1
 719 1262 l 1,28,-1
 565 1262 l 1,29,-1
 846 1638 l 1,26,-1
EndSplineSet
Ligature2: "<27,0> Canonical Decomposition lookup 2 subtable" c acutecomb
EndChar

StartChar: Ccircumflex
Encoding: 264 264 202
Width: 1233
Flags: W
LayerCount: 2
Fore
SplineSet
648 1908 m 1,0,-1
 837 1908 l 1,1,-1
 1048 1642 l 1,2,-1
 908 1642 l 1,3,-1
 742 1820 l 1,4,-1
 577 1642 l 1,5,-1
 437 1642 l 1,6,-1
 648 1908 l 1,0,-1
1073 53 m 1,7,8
 996 12 996 12 915 -8.5 c 128,-1,9
 834 -29 834 -29 743 -29 c 0,10,11
 456 -29 456 -29 297.5 174 c 128,-1,12
 139 377 139 377 139 745 c 0,13,14
 139 1111 139 1111 298.5 1315.5 c 128,-1,15
 458 1520 458 1520 743 1520 c 0,16,17
 834 1520 834 1520 915 1499.5 c 128,-1,18
 996 1479 996 1479 1073 1438 c 1,19,-1
 1073 1231 l 1,20,21
 999 1292 999 1292 914 1324 c 128,-1,22
 829 1356 829 1356 743 1356 c 0,23,24
 546 1356 546 1356 448 1204 c 128,-1,25
 350 1052 350 1052 350 745 c 0,26,27
 350 439 350 439 448 287 c 128,-1,28
 546 135 546 135 743 135 c 0,29,30
 831 135 831 135 915.5 167 c 128,-1,31
 1000 199 1000 199 1073 260 c 1,32,-1
 1073 53 l 1,7,8
EndSplineSet
Ligature2: "<27,0> Canonical Decomposition lookup 2 subtable" C uni0302
EndChar

StartChar: ccircumflex
Encoding: 265 265 203
Width: 1233
Flags: W
LayerCount: 2
Fore
SplineSet
633 1638 m 1,0,-1
 780 1638 l 1,1,-1
 1026 1262 l 1,2,-1
 887 1262 l 1,3,-1
 706 1507 l 1,4,-1
 526 1262 l 1,5,-1
 387 1262 l 1,6,-1
 633 1638 l 1,0,-1
1061 57 m 1,7,8
 987 14 987 14 908.5 -7.5 c 128,-1,9
 830 -29 830 -29 748 -29 c 0,10,11
 488 -29 488 -29 341.5 127 c 128,-1,12
 195 283 195 283 195 559 c 256,13,14
 195 835 195 835 341.5 991 c 128,-1,15
 488 1147 488 1147 748 1147 c 0,16,17
 829 1147 829 1147 906 1126 c 128,-1,18
 983 1105 983 1105 1061 1061 c 1,19,-1
 1061 868 l 1,20,21
 988 933 988 933 914.5 962 c 128,-1,22
 841 991 841 991 748 991 c 0,23,24
 575 991 575 991 482 879 c 128,-1,25
 389 767 389 767 389 559 c 0,26,27
 389 352 389 352 482.5 239.5 c 128,-1,28
 576 127 576 127 748 127 c 0,29,30
 844 127 844 127 920 156.5 c 128,-1,31
 996 186 996 186 1061 248 c 1,32,-1
 1061 57 l 1,7,8
EndSplineSet
Ligature2: "<27,0> Canonical Decomposition lookup 2 subtable" c uni0302
EndChar

StartChar: Cdotaccent
Encoding: 266 266 204
Width: 1233
Flags: W
LayerCount: 2
Fore
SplineSet
588 1872 m 1,0,-1
 793 1872 l 1,1,-1
 793 1667 l 1,2,-1
 588 1667 l 1,3,-1
 588 1872 l 1,0,-1
1073 53 m 1,4,5
 996 12 996 12 915 -8.5 c 128,-1,6
 834 -29 834 -29 743 -29 c 0,7,8
 456 -29 456 -29 297.5 174 c 128,-1,9
 139 377 139 377 139 745 c 0,10,11
 139 1111 139 1111 298.5 1315.5 c 128,-1,12
 458 1520 458 1520 743 1520 c 0,13,14
 834 1520 834 1520 915 1499.5 c 128,-1,15
 996 1479 996 1479 1073 1438 c 1,16,-1
 1073 1231 l 1,17,18
 999 1292 999 1292 914 1324 c 128,-1,19
 829 1356 829 1356 743 1356 c 0,20,21
 546 1356 546 1356 448 1204 c 128,-1,22
 350 1052 350 1052 350 745 c 0,23,24
 350 439 350 439 448 287 c 128,-1,25
 546 135 546 135 743 135 c 0,26,27
 831 135 831 135 915.5 167 c 128,-1,28
 1000 199 1000 199 1073 260 c 1,29,-1
 1073 53 l 1,4,5
EndSplineSet
Ligature2: "<27,0> Canonical Decomposition lookup 2 subtable" C uni0307
EndChar

StartChar: cdotaccent
Encoding: 267 267 205
Width: 1233
Flags: W
LayerCount: 2
Fore
SplineSet
588 1552 m 1,0,-1
 793 1552 l 1,1,-1
 793 1348 l 1,2,-1
 588 1348 l 1,3,-1
 588 1552 l 1,0,-1
1061 57 m 1,4,5
 987 14 987 14 908.5 -7.5 c 128,-1,6
 830 -29 830 -29 748 -29 c 0,7,8
 488 -29 488 -29 341.5 127 c 128,-1,9
 195 283 195 283 195 559 c 256,10,11
 195 835 195 835 341.5 991 c 128,-1,12
 488 1147 488 1147 748 1147 c 0,13,14
 829 1147 829 1147 906 1126 c 128,-1,15
 983 1105 983 1105 1061 1061 c 1,16,-1
 1061 868 l 1,17,18
 988 933 988 933 914.5 962 c 128,-1,19
 841 991 841 991 748 991 c 0,20,21
 575 991 575 991 482 879 c 128,-1,22
 389 767 389 767 389 559 c 0,23,24
 389 352 389 352 482.5 239.5 c 128,-1,25
 576 127 576 127 748 127 c 0,26,27
 844 127 844 127 920 156.5 c 128,-1,28
 996 186 996 186 1061 248 c 1,29,-1
 1061 57 l 1,4,5
EndSplineSet
Ligature2: "<27,0> Canonical Decomposition lookup 2 subtable" c uni0307
EndChar

StartChar: Ccaron
Encoding: 268 268 206
Width: 1233
Flags: W
LayerCount: 2
Fore
SplineSet
1073 53 m 1,0,1
 996 12 996 12 915 -8.5 c 128,-1,2
 834 -29 834 -29 743 -29 c 0,3,4
 456 -29 456 -29 297.5 174 c 128,-1,5
 139 377 139 377 139 745 c 0,6,7
 139 1111 139 1111 298.5 1315.5 c 128,-1,8
 458 1520 458 1520 743 1520 c 0,9,10
 834 1520 834 1520 915 1499.5 c 128,-1,11
 996 1479 996 1479 1073 1438 c 1,12,-1
 1073 1231 l 1,13,14
 999 1292 999 1292 914 1324 c 128,-1,15
 829 1356 829 1356 743 1356 c 0,16,17
 546 1356 546 1356 448 1204 c 128,-1,18
 350 1052 350 1052 350 745 c 0,19,20
 350 439 350 439 448 287 c 128,-1,21
 546 135 546 135 743 135 c 0,22,23
 831 135 831 135 915.5 167 c 128,-1,24
 1000 199 1000 199 1073 260 c 1,25,-1
 1073 53 l 1,0,1
612 1635 m 1,26,-1
 401 1901 l 1,27,-1
 541 1901 l 1,28,-1
 706 1723 l 1,29,-1
 872 1901 l 1,30,-1
 1012 1901 l 1,31,-1
 801 1635 l 1,32,-1
 612 1635 l 1,26,-1
EndSplineSet
Ligature2: "<27,0> Canonical Decomposition lookup 2 subtable" C uni030C
EndChar

StartChar: ccaron
Encoding: 269 269 207
Width: 1233
Flags: W
LayerCount: 2
Fore
SplineSet
1061 57 m 1,0,1
 987 14 987 14 908.5 -7.5 c 128,-1,2
 830 -29 830 -29 748 -29 c 0,3,4
 488 -29 488 -29 341.5 127 c 128,-1,5
 195 283 195 283 195 559 c 256,6,7
 195 835 195 835 341.5 991 c 128,-1,8
 488 1147 488 1147 748 1147 c 0,9,10
 829 1147 829 1147 906 1126 c 128,-1,11
 983 1105 983 1105 1061 1061 c 1,12,-1
 1061 868 l 1,13,14
 988 933 988 933 914.5 962 c 128,-1,15
 841 991 841 991 748 991 c 0,16,17
 575 991 575 991 482 879 c 128,-1,18
 389 767 389 767 389 559 c 0,19,20
 389 352 389 352 482.5 239.5 c 128,-1,21
 576 127 576 127 748 127 c 0,22,23
 844 127 844 127 920 156.5 c 128,-1,24
 996 186 996 186 1061 248 c 1,25,-1
 1061 57 l 1,0,1
633 1262 m 1,26,-1
 387 1638 l 1,27,-1
 526 1638 l 1,28,-1
 706 1393 l 1,29,-1
 887 1638 l 1,30,-1
 1026 1638 l 1,31,-1
 780 1262 l 1,32,-1
 633 1262 l 1,26,-1
EndSplineSet
Ligature2: "<27,0> Canonical Decomposition lookup 2 subtable" c uni030C
EndChar

StartChar: Dcaron
Encoding: 270 270 208
Width: 1233
Flags: W
LayerCount: 2
Fore
SplineSet
436 166 m 2,0,1
 691 166 691 166 792 291.5 c 128,-1,2
 893 417 893 417 893 745 c 0,3,4
 893 1076 893 1076 792.5 1201.5 c 128,-1,5
 692 1327 692 1327 436 1327 c 2,6,-1
 340 1327 l 1,7,-1
 340 166 l 1,8,-1
 436 166 l 2,0,1
440 1493 m 2,9,10
 782 1493 782 1493 944 1311 c 128,-1,11
 1106 1129 1106 1129 1106 745 c 0,12,13
 1106 363 1106 363 944 181.5 c 128,-1,14
 782 0 782 0 440 0 c 2,15,-1
 137 0 l 1,16,-1
 137 1493 l 1,17,-1
 440 1493 l 2,9,10
445 1629 m 1,18,-1
 234 1895 l 1,19,-1
 374 1895 l 1,20,-1
 539 1717 l 1,21,-1
 705 1895 l 1,22,-1
 845 1895 l 1,23,-1
 634 1629 l 1,24,-1
 445 1629 l 1,18,-1
EndSplineSet
Ligature2: "<27,0> Canonical Decomposition lookup 2 subtable" D uni030C
EndChar

StartChar: dcaron
Encoding: 271 271 209
Width: 1233
Flags: W
LayerCount: 2
Fore
SplineSet
1115 1558 m 1,0,-1
 1313 1558 l 1,1,-1
 1200 1182 l 1,2,-1
 1046 1182 l 1,3,-1
 1115 1558 l 1,0,-1
858 977 m 1,4,-1
 858 1556 l 1,5,-1
 1042 1556 l 1,6,-1
 1042 0 l 1,7,-1
 858 0 l 1,8,-1
 858 141 l 1,9,10
 812 58 812 58 735.5 14.5 c 128,-1,11
 659 -29 659 -29 559 -29 c 0,12,13
 356 -29 356 -29 239.5 128.5 c 128,-1,14
 123 286 123 286 123 563 c 0,15,16
 123 836 123 836 240 991.5 c 128,-1,17
 357 1147 357 1147 559 1147 c 0,18,19
 660 1147 660 1147 737 1103.5 c 128,-1,20
 814 1060 814 1060 858 977 c 1,4,-1
317 559 m 256,21,22
 317 345 317 345 385 236 c 128,-1,23
 453 127 453 127 586 127 c 256,24,25
 719 127 719 127 788.5 237 c 128,-1,26
 858 347 858 347 858 559 c 0,27,28
 858 772 858 772 788.5 881.5 c 128,-1,29
 719 991 719 991 586 991 c 256,30,31
 453 991 453 991 385 882 c 128,-1,32
 317 773 317 773 317 559 c 256,21,22
EndSplineSet
Ligature2: "<27,0> Canonical Decomposition lookup 2 subtable" d uni030C
EndChar

StartChar: Dcroat
Encoding: 272 272 210
Width: 1233
Flags: W
LayerCount: 2
Fore
SplineSet
436 1493 m 2,0,1
 778 1493 778 1493 940 1311 c 128,-1,2
 1102 1129 1102 1129 1102 745 c 0,3,4
 1102 363 1102 363 939.5 181.5 c 128,-1,5
 777 0 777 0 436 0 c 2,6,-1
 133 0 l 1,7,-1
 133 709 l 1,8,-1
 8 709 l 1,9,-1
 8 858 l 1,10,-1
 133 858 l 1,11,-1
 133 1493 l 1,12,-1
 436 1493 l 2,0,1
436 166 m 2,13,14
 691 166 691 166 792 291.5 c 128,-1,15
 893 417 893 417 893 745 c 0,16,17
 893 1076 893 1076 792.5 1201.5 c 128,-1,18
 692 1327 692 1327 436 1327 c 2,19,-1
 340 1327 l 1,20,-1
 340 858 l 1,21,-1
 604 858 l 1,22,-1
 604 709 l 1,23,-1
 340 709 l 1,24,-1
 340 166 l 1,25,-1
 436 166 l 2,13,14
EndSplineSet
EndChar

StartChar: dcroat
Encoding: 273 273 211
Width: 1233
Flags: W
LayerCount: 2
Fore
SplineSet
858 977 m 1,0,-1
 858 1286 l 1,1,-1
 553 1286 l 1,2,-1
 553 1407 l 1,3,-1
 858 1407 l 1,4,-1
 858 1556 l 1,5,-1
 1042 1556 l 1,6,-1
 1042 1407 l 1,7,-1
 1233 1407 l 1,8,-1
 1233 1286 l 1,9,-1
 1042 1286 l 1,10,-1
 1042 0 l 1,11,-1
 858 0 l 1,12,-1
 858 141 l 1,13,14
 812 58 812 58 735.5 14.5 c 128,-1,15
 659 -29 659 -29 559 -29 c 0,16,17
 356 -29 356 -29 239.5 128.5 c 128,-1,18
 123 286 123 286 123 563 c 0,19,20
 123 836 123 836 240 991.5 c 128,-1,21
 357 1147 357 1147 559 1147 c 0,22,23
 660 1147 660 1147 737 1103.5 c 128,-1,24
 814 1060 814 1060 858 977 c 1,0,-1
317 559 m 256,25,26
 317 345 317 345 385 236 c 128,-1,27
 453 127 453 127 586 127 c 256,28,29
 719 127 719 127 788.5 237 c 128,-1,30
 858 347 858 347 858 559 c 0,31,32
 858 772 858 772 788.5 881.5 c 128,-1,33
 719 991 719 991 586 991 c 256,34,35
 453 991 453 991 385 882 c 128,-1,36
 317 773 317 773 317 559 c 256,25,26
EndSplineSet
EndChar

StartChar: Emacron
Encoding: 274 274 212
Width: 1233
Flags: W
LayerCount: 2
Fore
SplineSet
335 1840 m 1,0,-1
 933 1840 l 1,1,-1
 933 1692 l 1,2,-1
 335 1692 l 1,3,-1
 335 1840 l 1,0,-1
197 1493 m 1,4,-1
 1083 1493 l 1,5,-1
 1083 1323 l 1,6,-1
 399 1323 l 1,7,-1
 399 921 l 1,8,-1
 1053 921 l 1,9,-1
 1053 751 l 1,10,-1
 399 751 l 1,11,-1
 399 170 l 1,12,-1
 1102 170 l 1,13,-1
 1102 0 l 1,14,-1
 197 0 l 1,15,-1
 197 1493 l 1,4,-1
EndSplineSet
Ligature2: "<27,0> Canonical Decomposition lookup 2 subtable" E uni0304
EndChar

StartChar: emacron
Encoding: 275 275 213
Width: 1233
Flags: W
LayerCount: 2
Fore
SplineSet
352 1526 m 1,0,-1
 950 1526 l 1,1,-1
 950 1378 l 1,2,-1
 352 1378 l 1,3,-1
 352 1526 l 1,0,-1
1120 652 m 1,4,-1
 1120 562 l 1,5,-1
 323 562 l 1,6,-1
 323 556 l 1,7,8
 315 327 315 327 410.5 227 c 128,-1,9
 506 127 506 127 680 127 c 0,10,11
 768 127 768 127 864 155 c 128,-1,12
 960 183 960 183 1069 240 c 1,13,-1
 1069 57 l 1,14,15
 964 14 964 14 866.5 -7.5 c 128,-1,16
 769 -29 769 -29 678 -29 c 0,17,18
 417 -29 417 -29 270 127.5 c 128,-1,19
 123 284 123 284 123 559 c 0,20,21
 123 827 123 827 267 987 c 128,-1,22
 411 1147 411 1147 651 1147 c 0,23,24
 865 1147 865 1147 988.5 1002 c 128,-1,25
 1112 857 1112 857 1120 652 c 1,4,-1
936 706 m 1,26,27
 924 822 924 822 851.5 906.5 c 128,-1,28
 779 991 779 991 643 991 c 0,29,30
 510 991 510 991 424 903 c 128,-1,31
 338 815 338 815 330 705 c 1,32,-1
 936 706 l 1,26,27
EndSplineSet
Ligature2: "<27,0> Canonical Decomposition lookup 2 subtable" e uni0304
EndChar

StartChar: Ebreve
Encoding: 276 276 214
Width: 1233
Flags: W
LayerCount: 2
Fore
SplineSet
321 1901 m 1,0,-1
 440 1901 l 1,1,2
 452 1847 452 1847 502 1818.5 c 128,-1,3
 552 1790 552 1790 634 1790 c 0,4,5
 717 1790 717 1790 765.5 1817.5 c 128,-1,6
 814 1845 814 1845 829 1901 c 1,7,-1
 948 1901 l 1,8,9
 937 1782 937 1782 857.5 1720.5 c 128,-1,10
 778 1659 778 1659 634 1659 c 256,11,12
 490 1659 490 1659 411 1720 c 128,-1,13
 332 1781 332 1781 321 1901 c 1,0,-1
197 1493 m 1,14,-1
 1083 1493 l 1,15,-1
 1083 1323 l 1,16,-1
 399 1323 l 1,17,-1
 399 921 l 1,18,-1
 1053 921 l 1,19,-1
 1053 751 l 1,20,-1
 399 751 l 1,21,-1
 399 170 l 1,22,-1
 1102 170 l 1,23,-1
 1102 0 l 1,24,-1
 197 0 l 1,25,-1
 197 1493 l 1,14,-1
EndSplineSet
Ligature2: "<27,0> Canonical Decomposition lookup 2 subtable" E uni0306
EndChar

StartChar: ebreve
Encoding: 277 277 215
Width: 1233
Flags: W
LayerCount: 2
Fore
SplineSet
317 1608 m 1,0,-1
 436 1608 l 1,1,2
 447 1532 447 1532 495 1495 c 128,-1,3
 543 1458 543 1458 630 1458 c 0,4,5
 715 1458 715 1458 763 1495 c 128,-1,6
 811 1532 811 1532 825 1608 c 1,7,-1
 944 1608 l 1,8,9
 933 1465 933 1465 854 1393 c 128,-1,10
 775 1321 775 1321 630 1321 c 0,11,12
 486 1321 486 1321 407 1393 c 128,-1,13
 328 1465 328 1465 317 1608 c 1,0,-1
1120 652 m 1,14,-1
 1120 562 l 1,15,-1
 323 562 l 1,16,-1
 323 556 l 1,17,18
 315 327 315 327 410.5 227 c 128,-1,19
 506 127 506 127 680 127 c 0,20,21
 768 127 768 127 864 155 c 128,-1,22
 960 183 960 183 1069 240 c 1,23,-1
 1069 57 l 1,24,25
 964 14 964 14 866.5 -7.5 c 128,-1,26
 769 -29 769 -29 678 -29 c 0,27,28
 417 -29 417 -29 270 127.5 c 128,-1,29
 123 284 123 284 123 559 c 0,30,31
 123 827 123 827 267 987 c 128,-1,32
 411 1147 411 1147 651 1147 c 0,33,34
 865 1147 865 1147 988.5 1002 c 128,-1,35
 1112 857 1112 857 1120 652 c 1,14,-1
936 706 m 1,36,37
 924 822 924 822 851.5 906.5 c 128,-1,38
 779 991 779 991 643 991 c 0,39,40
 510 991 510 991 424 903 c 128,-1,41
 338 815 338 815 330 705 c 1,42,-1
 936 706 l 1,36,37
EndSplineSet
Ligature2: "<27,0> Canonical Decomposition lookup 2 subtable" e uni0306
EndChar

StartChar: Edotaccent
Encoding: 278 278 216
Width: 1233
Flags: W
LayerCount: 2
Fore
SplineSet
531 1872 m 1,0,-1
 736 1872 l 1,1,-1
 736 1667 l 1,2,-1
 531 1667 l 1,3,-1
 531 1872 l 1,0,-1
197 1493 m 1,4,-1
 1083 1493 l 1,5,-1
 1083 1323 l 1,6,-1
 399 1323 l 1,7,-1
 399 921 l 1,8,-1
 1053 921 l 1,9,-1
 1053 751 l 1,10,-1
 399 751 l 1,11,-1
 399 170 l 1,12,-1
 1102 170 l 1,13,-1
 1102 0 l 1,14,-1
 197 0 l 1,15,-1
 197 1493 l 1,4,-1
EndSplineSet
Ligature2: "<27,0> Canonical Decomposition lookup 2 subtable" E uni0307
EndChar

StartChar: edotaccent
Encoding: 279 279 217
Width: 1233
Flags: W
LayerCount: 2
Fore
SplineSet
527 1552 m 1,0,-1
 732 1552 l 1,1,-1
 732 1348 l 1,2,-1
 527 1348 l 1,3,-1
 527 1552 l 1,0,-1
1120 652 m 1,4,-1
 1120 562 l 1,5,-1
 323 562 l 1,6,-1
 323 556 l 1,7,8
 315 327 315 327 410.5 227 c 128,-1,9
 506 127 506 127 680 127 c 0,10,11
 768 127 768 127 864 155 c 128,-1,12
 960 183 960 183 1069 240 c 1,13,-1
 1069 57 l 1,14,15
 964 14 964 14 866.5 -7.5 c 128,-1,16
 769 -29 769 -29 678 -29 c 0,17,18
 417 -29 417 -29 270 127.5 c 128,-1,19
 123 284 123 284 123 559 c 0,20,21
 123 827 123 827 267 987 c 128,-1,22
 411 1147 411 1147 651 1147 c 0,23,24
 865 1147 865 1147 988.5 1002 c 128,-1,25
 1112 857 1112 857 1120 652 c 1,4,-1
936 706 m 1,26,27
 924 822 924 822 851.5 906.5 c 128,-1,28
 779 991 779 991 643 991 c 0,29,30
 510 991 510 991 424 903 c 128,-1,31
 338 815 338 815 330 705 c 1,32,-1
 936 706 l 1,26,27
EndSplineSet
Ligature2: "<27,0> Canonical Decomposition lookup 2 subtable" e uni0307
EndChar

StartChar: Eogonek
Encoding: 280 280 218
Width: 1233
Flags: W
LayerCount: 2
Fore
SplineSet
833 0 m 1,0,-1
 952 0 l 1,1,2
 907 -61 907 -61 885.5 -105 c 128,-1,3
 864 -149 864 -149 864 -180 c 0,4,5
 864 -226 864 -226 891.5 -249 c 128,-1,6
 919 -272 919 -272 973 -272 c 0,7,8
 1005 -272 1005 -272 1036 -264.5 c 128,-1,9
 1067 -257 1067 -257 1098 -242 c 1,10,-1
 1098 -375 l 1,11,12
 1060 -385 1060 -385 1026 -390 c 128,-1,13
 992 -395 992 -395 962 -395 c 0,14,15
 840 -395 840 -395 782.5 -351.5 c 128,-1,16
 725 -308 725 -308 725 -215 c 0,17,18
 725 -167 725 -167 751.5 -114.5 c 128,-1,19
 778 -62 778 -62 833 0 c 1,0,-1
197 1493 m 1,20,-1
 1083 1493 l 1,21,-1
 1083 1323 l 1,22,-1
 399 1323 l 1,23,-1
 399 921 l 1,24,-1
 1053 921 l 1,25,-1
 1053 751 l 1,26,-1
 399 751 l 1,27,-1
 399 170 l 1,28,-1
 1102 170 l 1,29,-1
 1102 0 l 1,30,-1
 197 0 l 1,31,-1
 197 1493 l 1,20,-1
EndSplineSet
Ligature2: "<27,0> Canonical Decomposition lookup 2 subtable" E uni0328
EndChar

StartChar: eogonek
Encoding: 281 281 219
Width: 1233
Flags: W
LayerCount: 2
Fore
SplineSet
774 0 m 1,0,-1
 893 0 l 1,1,2
 848 -61 848 -61 826.5 -105 c 128,-1,3
 805 -149 805 -149 805 -180 c 0,4,5
 805 -226 805 -226 832.5 -249 c 128,-1,6
 860 -272 860 -272 914 -272 c 0,7,8
 946 -272 946 -272 977 -264.5 c 128,-1,9
 1008 -257 1008 -257 1039 -242 c 1,10,-1
 1039 -375 l 1,11,12
 1001 -385 1001 -385 967 -390 c 128,-1,13
 933 -395 933 -395 903 -395 c 0,14,15
 781 -395 781 -395 723.5 -351.5 c 128,-1,16
 666 -308 666 -308 666 -215 c 0,17,18
 666 -167 666 -167 692.5 -114.5 c 128,-1,19
 719 -62 719 -62 774 0 c 1,0,-1
1120 652 m 1,20,-1
 1120 562 l 1,21,-1
 323 562 l 1,22,-1
 323 556 l 1,23,24
 315 327 315 327 410.5 227 c 128,-1,25
 506 127 506 127 680 127 c 0,26,27
 768 127 768 127 864 155 c 128,-1,28
 960 183 960 183 1069 240 c 1,29,-1
 1069 57 l 1,30,31
 964 14 964 14 866.5 -7.5 c 128,-1,32
 769 -29 769 -29 678 -29 c 0,33,34
 417 -29 417 -29 270 127.5 c 128,-1,35
 123 284 123 284 123 559 c 0,36,37
 123 827 123 827 267 987 c 128,-1,38
 411 1147 411 1147 651 1147 c 0,39,40
 865 1147 865 1147 988.5 1002 c 128,-1,41
 1112 857 1112 857 1120 652 c 1,20,-1
936 706 m 1,42,43
 924 822 924 822 851.5 906.5 c 128,-1,44
 779 991 779 991 643 991 c 0,45,46
 510 991 510 991 424 903 c 128,-1,47
 338 815 338 815 330 705 c 1,48,-1
 936 706 l 1,42,43
EndSplineSet
Ligature2: "<27,0> Canonical Decomposition lookup 2 subtable" e uni0328
EndChar

StartChar: Ecaron
Encoding: 282 282 220
Width: 1233
Flags: W
LayerCount: 2
Fore
SplineSet
197 1493 m 1,0,-1
 1083 1493 l 1,1,-1
 1083 1323 l 1,2,-1
 399 1323 l 1,3,-1
 399 921 l 1,4,-1
 1053 921 l 1,5,-1
 1053 751 l 1,6,-1
 399 751 l 1,7,-1
 399 170 l 1,8,-1
 1102 170 l 1,9,-1
 1102 0 l 1,10,-1
 197 0 l 1,11,-1
 197 1493 l 1,0,-1
558 1629 m 1,12,-1
 347 1895 l 1,13,-1
 487 1895 l 1,14,-1
 652 1717 l 1,15,-1
 818 1895 l 1,16,-1
 958 1895 l 1,17,-1
 747 1629 l 1,18,-1
 558 1629 l 1,12,-1
EndSplineSet
Ligature2: "<27,0> Canonical Decomposition lookup 2 subtable" E uni030C
EndChar

StartChar: ecaron
Encoding: 283 283 221
Width: 1233
Flags: W
LayerCount: 2
Fore
SplineSet
1120 652 m 1,0,-1
 1120 562 l 1,1,-1
 323 562 l 1,2,-1
 323 556 l 1,3,4
 315 327 315 327 410.5 227 c 128,-1,5
 506 127 506 127 680 127 c 0,6,7
 768 127 768 127 864 155 c 128,-1,8
 960 183 960 183 1069 240 c 1,9,-1
 1069 57 l 1,10,11
 964 14 964 14 866.5 -7.5 c 128,-1,12
 769 -29 769 -29 678 -29 c 0,13,14
 417 -29 417 -29 270 127.5 c 128,-1,15
 123 284 123 284 123 559 c 0,16,17
 123 827 123 827 267 987 c 128,-1,18
 411 1147 411 1147 651 1147 c 0,19,20
 865 1147 865 1147 988.5 1002 c 128,-1,21
 1112 857 1112 857 1120 652 c 1,0,-1
936 706 m 1,22,23
 924 822 924 822 851.5 906.5 c 128,-1,24
 779 991 779 991 643 991 c 0,25,26
 510 991 510 991 424 903 c 128,-1,27
 338 815 338 815 330 705 c 1,28,-1
 936 706 l 1,22,23
578 1258 m 1,29,-1
 332 1634 l 1,30,-1
 471 1634 l 1,31,-1
 651 1389 l 1,32,-1
 832 1634 l 1,33,-1
 971 1634 l 1,34,-1
 725 1258 l 1,35,-1
 578 1258 l 1,29,-1
EndSplineSet
Ligature2: "<27,0> Canonical Decomposition lookup 2 subtable" e uni030C
EndChar

StartChar: Gcircumflex
Encoding: 284 284 222
Width: 1233
Flags: W
LayerCount: 2
Fore
SplineSet
522 1901 m 1,0,-1
 711 1901 l 1,1,-1
 922 1635 l 1,2,-1
 782 1635 l 1,3,-1
 616 1813 l 1,4,-1
 451 1635 l 1,5,-1
 311 1635 l 1,6,-1
 522 1901 l 1,0,-1
1104 123 m 1,7,8
 1023 48 1023 48 921.5 9.5 c 128,-1,9
 820 -29 820 -29 702 -29 c 0,10,11
 418 -29 418 -29 260 174.5 c 128,-1,12
 102 378 102 378 102 745 c 0,13,14
 102 1111 102 1111 262 1315.5 c 128,-1,15
 422 1520 422 1520 707 1520 c 0,16,17
 801 1520 801 1520 887 1493.5 c 128,-1,18
 973 1467 973 1467 1053 1413 c 1,19,-1
 1053 1206 l 1,20,21
 972 1283 972 1283 887 1319.5 c 128,-1,22
 802 1356 802 1356 707 1356 c 0,23,24
 510 1356 510 1356 411.5 1203.5 c 128,-1,25
 313 1051 313 1051 313 745 c 0,26,27
 313 434 313 434 408.5 284.5 c 128,-1,28
 504 135 504 135 702 135 c 0,29,30
 769 135 769 135 819.5 150.5 c 128,-1,31
 870 166 870 166 911 199 c 1,32,-1
 911 600 l 1,33,-1
 694 600 l 1,34,-1
 694 766 l 1,35,-1
 1104 766 l 1,36,-1
 1104 123 l 1,7,8
EndSplineSet
Ligature2: "<27,0> Canonical Decomposition lookup 2 subtable" G uni0302
EndChar

StartChar: gcircumflex
Encoding: 285 285 223
Width: 1233
Flags: W
LayerCount: 2
Fore
SplineSet
543 1638 m 1,0,-1
 690 1638 l 1,1,-1
 936 1262 l 1,2,-1
 797 1262 l 1,3,-1
 616 1507 l 1,4,-1
 436 1262 l 1,5,-1
 297 1262 l 1,6,-1
 543 1638 l 1,0,-1
858 569 m 0,7,8
 858 776 858 776 790.5 883.5 c 128,-1,9
 723 991 723 991 594 991 c 0,10,11
 459 991 459 991 388 883.5 c 128,-1,12
 317 776 317 776 317 569 c 256,13,14
 317 362 317 362 388.5 253.5 c 128,-1,15
 460 145 460 145 596 145 c 0,16,17
 723 145 723 145 790.5 254 c 128,-1,18
 858 363 858 363 858 569 c 0,7,8
1042 72 m 2,19,20
 1042 -180 1042 -180 923 -310 c 128,-1,21
 804 -440 804 -440 573 -440 c 0,22,23
 497 -440 497 -440 414 -426 c 128,-1,24
 331 -412 331 -412 248 -385 c 1,25,-1
 248 -203 l 1,26,27
 346 -249 346 -249 426 -271 c 128,-1,28
 506 -293 506 -293 573 -293 c 0,29,30
 722 -293 722 -293 790 -212 c 128,-1,31
 858 -131 858 -131 858 45 c 2,32,-1
 858 53 l 1,33,-1
 858 178 l 1,34,35
 814 84 814 84 738 38 c 128,-1,36
 662 -8 662 -8 553 -8 c 0,37,38
 357 -8 357 -8 240 149 c 128,-1,39
 123 306 123 306 123 569 c 0,40,41
 123 833 123 833 240 990 c 128,-1,42
 357 1147 357 1147 553 1147 c 0,43,44
 661 1147 661 1147 736 1104 c 128,-1,45
 811 1061 811 1061 858 971 c 1,46,-1
 858 1116 l 1,47,-1
 1042 1116 l 1,48,-1
 1042 72 l 2,19,20
EndSplineSet
Ligature2: "<27,0> Canonical Decomposition lookup 2 subtable" g uni0302
EndChar

StartChar: Gbreve
Encoding: 286 286 224
Width: 1233
Flags: W
LayerCount: 2
Fore
SplineSet
353 1901 m 1,0,-1
 472 1901 l 1,1,2
 484 1847 484 1847 534 1818.5 c 128,-1,3
 584 1790 584 1790 666 1790 c 0,4,5
 749 1790 749 1790 797.5 1817.5 c 128,-1,6
 846 1845 846 1845 861 1901 c 1,7,-1
 980 1901 l 1,8,9
 969 1782 969 1782 889.5 1720.5 c 128,-1,10
 810 1659 810 1659 666 1659 c 256,11,12
 522 1659 522 1659 443 1720 c 128,-1,13
 364 1781 364 1781 353 1901 c 1,0,-1
1104 123 m 1,14,15
 1023 48 1023 48 921.5 9.5 c 128,-1,16
 820 -29 820 -29 702 -29 c 0,17,18
 418 -29 418 -29 260 174.5 c 128,-1,19
 102 378 102 378 102 745 c 0,20,21
 102 1111 102 1111 262 1315.5 c 128,-1,22
 422 1520 422 1520 707 1520 c 0,23,24
 801 1520 801 1520 887 1493.5 c 128,-1,25
 973 1467 973 1467 1053 1413 c 1,26,-1
 1053 1206 l 1,27,28
 972 1283 972 1283 887 1319.5 c 128,-1,29
 802 1356 802 1356 707 1356 c 0,30,31
 510 1356 510 1356 411.5 1203.5 c 128,-1,32
 313 1051 313 1051 313 745 c 0,33,34
 313 434 313 434 408.5 284.5 c 128,-1,35
 504 135 504 135 702 135 c 0,36,37
 769 135 769 135 819.5 150.5 c 128,-1,38
 870 166 870 166 911 199 c 1,39,-1
 911 600 l 1,40,-1
 694 600 l 1,41,-1
 694 766 l 1,42,-1
 1104 766 l 1,43,-1
 1104 123 l 1,14,15
EndSplineSet
Ligature2: "<27,0> Canonical Decomposition lookup 2 subtable" G uni0306
EndChar

StartChar: gbreve
Encoding: 287 287 225
Width: 1233
Flags: W
LayerCount: 2
Fore
SplineSet
303 1608 m 1,0,-1
 422 1608 l 1,1,2
 433 1532 433 1532 481 1495 c 128,-1,3
 529 1458 529 1458 616 1458 c 0,4,5
 701 1458 701 1458 749 1495 c 128,-1,6
 797 1532 797 1532 811 1608 c 1,7,-1
 930 1608 l 1,8,9
 919 1465 919 1465 840 1393 c 128,-1,10
 761 1321 761 1321 616 1321 c 0,11,12
 472 1321 472 1321 393 1393 c 128,-1,13
 314 1465 314 1465 303 1608 c 1,0,-1
858 569 m 0,14,15
 858 776 858 776 790.5 883.5 c 128,-1,16
 723 991 723 991 594 991 c 0,17,18
 459 991 459 991 388 883.5 c 128,-1,19
 317 776 317 776 317 569 c 256,20,21
 317 362 317 362 388.5 253.5 c 128,-1,22
 460 145 460 145 596 145 c 0,23,24
 723 145 723 145 790.5 254 c 128,-1,25
 858 363 858 363 858 569 c 0,14,15
1042 72 m 2,26,27
 1042 -180 1042 -180 923 -310 c 128,-1,28
 804 -440 804 -440 573 -440 c 0,29,30
 497 -440 497 -440 414 -426 c 128,-1,31
 331 -412 331 -412 248 -385 c 1,32,-1
 248 -203 l 1,33,34
 346 -249 346 -249 426 -271 c 128,-1,35
 506 -293 506 -293 573 -293 c 0,36,37
 722 -293 722 -293 790 -212 c 128,-1,38
 858 -131 858 -131 858 45 c 2,39,-1
 858 53 l 1,40,-1
 858 178 l 1,41,42
 814 84 814 84 738 38 c 128,-1,43
 662 -8 662 -8 553 -8 c 0,44,45
 357 -8 357 -8 240 149 c 128,-1,46
 123 306 123 306 123 569 c 0,47,48
 123 833 123 833 240 990 c 128,-1,49
 357 1147 357 1147 553 1147 c 0,50,51
 661 1147 661 1147 736 1104 c 128,-1,52
 811 1061 811 1061 858 971 c 1,53,-1
 858 1116 l 1,54,-1
 1042 1116 l 1,55,-1
 1042 72 l 2,26,27
EndSplineSet
Ligature2: "<27,0> Canonical Decomposition lookup 2 subtable" g uni0306
EndChar

StartChar: Gdotaccent
Encoding: 288 288 226
Width: 1233
Flags: W
LayerCount: 2
Fore
SplineSet
563 1872 m 1,0,-1
 768 1872 l 1,1,-1
 768 1667 l 1,2,-1
 563 1667 l 1,3,-1
 563 1872 l 1,0,-1
1104 123 m 1,4,5
 1023 48 1023 48 921.5 9.5 c 128,-1,6
 820 -29 820 -29 702 -29 c 0,7,8
 418 -29 418 -29 260 174.5 c 128,-1,9
 102 378 102 378 102 745 c 0,10,11
 102 1111 102 1111 262 1315.5 c 128,-1,12
 422 1520 422 1520 707 1520 c 0,13,14
 801 1520 801 1520 887 1493.5 c 128,-1,15
 973 1467 973 1467 1053 1413 c 1,16,-1
 1053 1206 l 1,17,18
 972 1283 972 1283 887 1319.5 c 128,-1,19
 802 1356 802 1356 707 1356 c 0,20,21
 510 1356 510 1356 411.5 1203.5 c 128,-1,22
 313 1051 313 1051 313 745 c 0,23,24
 313 434 313 434 408.5 284.5 c 128,-1,25
 504 135 504 135 702 135 c 0,26,27
 769 135 769 135 819.5 150.5 c 128,-1,28
 870 166 870 166 911 199 c 1,29,-1
 911 600 l 1,30,-1
 694 600 l 1,31,-1
 694 766 l 1,32,-1
 1104 766 l 1,33,-1
 1104 123 l 1,4,5
EndSplineSet
Ligature2: "<27,0> Canonical Decomposition lookup 2 subtable" G uni0307
EndChar

StartChar: gdotaccent
Encoding: 289 289 227
Width: 1233
Flags: W
LayerCount: 2
Fore
SplineSet
513 1552 m 1,0,-1
 718 1552 l 1,1,-1
 718 1348 l 1,2,-1
 513 1348 l 1,3,-1
 513 1552 l 1,0,-1
858 569 m 0,4,5
 858 776 858 776 790.5 883.5 c 128,-1,6
 723 991 723 991 594 991 c 0,7,8
 459 991 459 991 388 883.5 c 128,-1,9
 317 776 317 776 317 569 c 256,10,11
 317 362 317 362 388.5 253.5 c 128,-1,12
 460 145 460 145 596 145 c 0,13,14
 723 145 723 145 790.5 254 c 128,-1,15
 858 363 858 363 858 569 c 0,4,5
1042 72 m 2,16,17
 1042 -180 1042 -180 923 -310 c 128,-1,18
 804 -440 804 -440 573 -440 c 0,19,20
 497 -440 497 -440 414 -426 c 128,-1,21
 331 -412 331 -412 248 -385 c 1,22,-1
 248 -203 l 1,23,24
 346 -249 346 -249 426 -271 c 128,-1,25
 506 -293 506 -293 573 -293 c 0,26,27
 722 -293 722 -293 790 -212 c 128,-1,28
 858 -131 858 -131 858 45 c 2,29,-1
 858 53 l 1,30,-1
 858 178 l 1,31,32
 814 84 814 84 738 38 c 128,-1,33
 662 -8 662 -8 553 -8 c 0,34,35
 357 -8 357 -8 240 149 c 128,-1,36
 123 306 123 306 123 569 c 0,37,38
 123 833 123 833 240 990 c 128,-1,39
 357 1147 357 1147 553 1147 c 0,40,41
 661 1147 661 1147 736 1104 c 128,-1,42
 811 1061 811 1061 858 971 c 1,43,-1
 858 1116 l 1,44,-1
 1042 1116 l 1,45,-1
 1042 72 l 2,16,17
EndSplineSet
Ligature2: "<27,0> Canonical Decomposition lookup 2 subtable" g uni0307
EndChar

StartChar: Gcommaaccent
Encoding: 290 290 228
Width: 1233
Flags: W
LayerCount: 2
Fore
SplineSet
630 -227 m 1,0,-1
 869 -227 l 1,1,-1
 682 -572 l 1,2,-1
 536 -572 l 1,3,-1
 630 -227 l 1,0,-1
1104 123 m 1,4,5
 1023 48 1023 48 921.5 9.5 c 128,-1,6
 820 -29 820 -29 702 -29 c 0,7,8
 418 -29 418 -29 260 174.5 c 128,-1,9
 102 378 102 378 102 745 c 0,10,11
 102 1111 102 1111 262 1315.5 c 128,-1,12
 422 1520 422 1520 707 1520 c 0,13,14
 801 1520 801 1520 887 1493.5 c 128,-1,15
 973 1467 973 1467 1053 1413 c 1,16,-1
 1053 1206 l 1,17,18
 972 1283 972 1283 887 1319.5 c 128,-1,19
 802 1356 802 1356 707 1356 c 0,20,21
 510 1356 510 1356 411.5 1203.5 c 128,-1,22
 313 1051 313 1051 313 745 c 0,23,24
 313 434 313 434 408.5 284.5 c 128,-1,25
 504 135 504 135 702 135 c 0,26,27
 769 135 769 135 819.5 150.5 c 128,-1,28
 870 166 870 166 911 199 c 1,29,-1
 911 600 l 1,30,-1
 694 600 l 1,31,-1
 694 766 l 1,32,-1
 1104 766 l 1,33,-1
 1104 123 l 1,4,5
EndSplineSet
Ligature2: "<27,0> Canonical Decomposition lookup 2 subtable" G uni0327
EndChar

StartChar: gcommaaccent
Encoding: 291 291 229
Width: 1233
Flags: W
LayerCount: 2
Fore
SplineSet
725 1269 m 1,0,-1
 486 1269 l 1,1,-1
 673 1614 l 1,2,-1
 819 1614 l 1,3,-1
 725 1269 l 1,0,-1
858 569 m 0,4,5
 858 776 858 776 790.5 883.5 c 128,-1,6
 723 991 723 991 594 991 c 0,7,8
 459 991 459 991 388 883.5 c 128,-1,9
 317 776 317 776 317 569 c 256,10,11
 317 362 317 362 388.5 253.5 c 128,-1,12
 460 145 460 145 596 145 c 0,13,14
 723 145 723 145 790.5 254 c 128,-1,15
 858 363 858 363 858 569 c 0,4,5
1042 72 m 2,16,17
 1042 -180 1042 -180 923 -310 c 128,-1,18
 804 -440 804 -440 573 -440 c 0,19,20
 497 -440 497 -440 414 -426 c 128,-1,21
 331 -412 331 -412 248 -385 c 1,22,-1
 248 -203 l 1,23,24
 346 -249 346 -249 426 -271 c 128,-1,25
 506 -293 506 -293 573 -293 c 0,26,27
 722 -293 722 -293 790 -212 c 128,-1,28
 858 -131 858 -131 858 45 c 2,29,-1
 858 53 l 1,30,-1
 858 178 l 1,31,32
 814 84 814 84 738 38 c 128,-1,33
 662 -8 662 -8 553 -8 c 0,34,35
 357 -8 357 -8 240 149 c 128,-1,36
 123 306 123 306 123 569 c 0,37,38
 123 833 123 833 240 990 c 128,-1,39
 357 1147 357 1147 553 1147 c 0,40,41
 661 1147 661 1147 736 1104 c 128,-1,42
 811 1061 811 1061 858 971 c 1,43,-1
 858 1116 l 1,44,-1
 1042 1116 l 1,45,-1
 1042 72 l 2,16,17
EndSplineSet
Ligature2: "<27,0> Canonical Decomposition lookup 2 subtable" g uni0327
EndChar

StartChar: Hcircumflex
Encoding: 292 292 230
Width: 1233
Flags: W
LayerCount: 2
Fore
SplineSet
522 1901 m 1,0,-1
 711 1901 l 1,1,-1
 922 1635 l 1,2,-1
 782 1635 l 1,3,-1
 616 1813 l 1,4,-1
 451 1635 l 1,5,-1
 311 1635 l 1,6,-1
 522 1901 l 1,0,-1
137 1493 m 1,7,-1
 340 1493 l 1,8,-1
 340 921 l 1,9,-1
 893 921 l 1,10,-1
 893 1493 l 1,11,-1
 1096 1493 l 1,12,-1
 1096 0 l 1,13,-1
 893 0 l 1,14,-1
 893 751 l 1,15,-1
 340 751 l 1,16,-1
 340 0 l 1,17,-1
 137 0 l 1,18,-1
 137 1493 l 1,7,-1
EndSplineSet
Ligature2: "<27,0> Canonical Decomposition lookup 2 subtable" H uni0302
EndChar

StartChar: hcircumflex
Encoding: 293 293 231
Width: 1233
Flags: W
LayerCount: 2
Fore
SplineSet
522 1901 m 1,0,-1
 711 1901 l 1,1,-1
 922 1635 l 1,2,-1
 782 1635 l 1,3,-1
 616 1813 l 1,4,-1
 451 1635 l 1,5,-1
 311 1635 l 1,6,-1
 522 1901 l 1,0,-1
1051 694 m 2,7,-1
 1051 0 l 1,8,-1
 866 0 l 1,9,-1
 866 694 l 2,10,11
 866 845 866 845 813 916 c 128,-1,12
 760 987 760 987 647 987 c 0,13,14
 518 987 518 987 448.5 895.5 c 128,-1,15
 379 804 379 804 379 633 c 2,16,-1
 379 0 l 1,17,-1
 195 0 l 1,18,-1
 195 1556 l 1,19,-1
 379 1556 l 1,20,-1
 379 952 l 1,21,22
 428 1048 428 1048 512 1097.5 c 128,-1,23
 596 1147 596 1147 711 1147 c 0,24,25
 882 1147 882 1147 966.5 1034.5 c 128,-1,26
 1051 922 1051 922 1051 694 c 2,7,-1
EndSplineSet
Ligature2: "<27,0> Canonical Decomposition lookup 2 subtable" h uni0302
EndChar

StartChar: Hbar
Encoding: 294 294 232
Width: 1233
Flags: W
LayerCount: 2
Fore
SplineSet
137 1493 m 1,0,-1
 339 1493 l 1,1,-1
 339 1269 l 1,2,-1
 893 1269 l 1,3,-1
 893 1493 l 1,4,-1
 1095 1493 l 1,5,-1
 1095 1269 l 1,6,-1
 1230 1269 l 1,7,-1
 1230 1105 l 1,8,-1
 1095 1105 l 1,9,-1
 1095 0 l 1,10,-1
 893 0 l 1,11,-1
 893 711 l 1,12,-1
 339 711 l 1,13,-1
 339 0 l 1,14,-1
 137 0 l 1,15,-1
 137 1105 l 1,16,-1
 3 1105 l 1,17,-1
 3 1269 l 1,18,-1
 137 1269 l 1,19,-1
 137 1493 l 1,0,-1
339 1105 m 1,20,-1
 339 881 l 1,21,-1
 893 881 l 1,22,-1
 893 1105 l 1,23,-1
 339 1105 l 1,20,-1
EndSplineSet
EndChar

StartChar: hbar
Encoding: 295 295 233
Width: 1233
Flags: W
LayerCount: 2
Fore
SplineSet
1051 694 m 2,0,-1
 1051 0 l 1,1,-1
 866 0 l 1,2,-1
 866 694 l 2,3,4
 866 845 866 845 813 916 c 128,-1,5
 760 987 760 987 647 987 c 0,6,7
 518 987 518 987 448.5 895.5 c 128,-1,8
 379 804 379 804 379 633 c 2,9,-1
 379 0 l 1,10,-1
 195 0 l 1,11,-1
 195 1270 l 1,12,-1
 70 1270 l 1,13,-1
 70 1434 l 1,14,-1
 195 1434 l 1,15,-1
 195 1556 l 1,16,-1
 379 1556 l 1,17,-1
 379 1434 l 1,18,-1
 732 1434 l 1,19,-1
 732 1270 l 1,20,-1
 379 1270 l 1,21,-1
 379 952 l 1,22,23
 428 1048 428 1048 512 1097.5 c 128,-1,24
 596 1147 596 1147 711 1147 c 0,25,26
 882 1147 882 1147 966.5 1034.5 c 128,-1,27
 1051 922 1051 922 1051 694 c 2,0,-1
EndSplineSet
EndChar

StartChar: Itilde
Encoding: 296 296 234
Width: 1233
Flags: W
LayerCount: 2
Fore
SplineSet
611 1710 m 2,0,-1
 554 1743 l 2,1,2
 529 1757 529 1757 513.5 1762.5 c 128,-1,3
 498 1768 498 1768 486 1768 c 0,4,5
 451 1768 451 1768 431 1743 c 128,-1,6
 411 1718 411 1718 411 1673 c 2,7,-1
 411 1667 l 1,8,-1
 286 1667 l 1,9,10
 286 1768 286 1768 337.5 1827 c 128,-1,11
 389 1886 389 1886 474 1886 c 0,12,13
 510 1886 510 1886 540.5 1878 c 128,-1,14
 571 1870 571 1870 620 1843 c 2,15,-1
 677 1813 l 2,16,17
 699 1800 699 1800 716.5 1794 c 128,-1,18
 734 1788 734 1788 749 1788 c 0,19,20
 780 1788 780 1788 800 1813.5 c 128,-1,21
 820 1839 820 1839 820 1880 c 2,22,-1
 820 1886 l 1,23,-1
 945 1886 l 1,24,25
 943 1786 943 1786 892 1726.5 c 128,-1,26
 841 1667 841 1667 757 1667 c 0,27,28
 723 1667 723 1667 693 1675 c 128,-1,29
 663 1683 663 1683 611 1710 c 2,0,-1
201 1493 m 1,30,-1
 1030 1493 l 1,31,-1
 1030 1323 l 1,32,-1
 717 1323 l 1,33,-1
 717 170 l 1,34,-1
 1030 170 l 1,35,-1
 1030 0 l 1,36,-1
 201 0 l 1,37,-1
 201 170 l 1,38,-1
 514 170 l 1,39,-1
 514 1323 l 1,40,-1
 201 1323 l 1,41,-1
 201 1493 l 1,30,-1
EndSplineSet
Ligature2: "<27,0> Canonical Decomposition lookup 2 subtable" I tildecomb
EndChar

StartChar: itilde
Encoding: 297 297 235
Width: 1233
Flags: W
LayerCount: 2
Fore
SplineSet
612 1370 m 2,0,-1
 555 1425 l 2,1,2
 534 1445 534 1445 517.5 1454.5 c 128,-1,3
 501 1464 501 1464 487 1464 c 0,4,5
 449 1464 449 1464 431 1427 c 128,-1,6
 413 1390 413 1390 411 1309 c 1,7,-1
 287 1309 l 1,8,9
 288 1443 288 1443 339 1517 c 128,-1,10
 390 1591 390 1591 481 1591 c 0,11,12
 520 1591 520 1591 552 1577 c 128,-1,13
 584 1563 584 1563 621 1530 c 2,14,-1
 678 1475 l 2,15,16
 699 1455 699 1455 715.5 1445.5 c 128,-1,17
 732 1436 732 1436 745 1436 c 0,18,19
 784 1436 784 1436 802 1473 c 128,-1,20
 820 1510 820 1510 821 1591 c 1,21,-1
 946 1591 l 1,22,23
 945 1457 945 1457 894 1383 c 128,-1,24
 843 1309 843 1309 752 1309 c 0,25,26
 713 1309 713 1309 681 1323 c 128,-1,27
 649 1337 649 1337 612 1370 c 2,0,-1
256 1120 m 1,28,-1
 727 1120 l 1,29,-1
 727 143 l 1,30,-1
 1092 143 l 1,31,-1
 1092 0 l 1,32,-1
 178 0 l 1,33,-1
 178 143 l 1,34,-1
 543 143 l 1,35,-1
 543 977 l 1,36,-1
 256 977 l 1,37,-1
 256 1120 l 1,28,-1
EndSplineSet
Ligature2: "<27,0> Canonical Decomposition lookup 2 subtable" i tildecomb
EndChar

StartChar: Imacron
Encoding: 298 298 236
Width: 1233
Flags: W
LayerCount: 2
Fore
SplineSet
317 1840 m 1,0,-1
 914 1840 l 1,1,-1
 914 1692 l 1,2,-1
 317 1692 l 1,3,-1
 317 1840 l 1,0,-1
201 1493 m 1,4,-1
 1030 1493 l 1,5,-1
 1030 1323 l 1,6,-1
 717 1323 l 1,7,-1
 717 170 l 1,8,-1
 1030 170 l 1,9,-1
 1030 0 l 1,10,-1
 201 0 l 1,11,-1
 201 170 l 1,12,-1
 514 170 l 1,13,-1
 514 1323 l 1,14,-1
 201 1323 l 1,15,-1
 201 1493 l 1,4,-1
EndSplineSet
Ligature2: "<27,0> Canonical Decomposition lookup 2 subtable" I uni0304
EndChar

StartChar: imacron
Encoding: 299 299 237
Width: 1233
Flags: W
LayerCount: 2
Fore
SplineSet
317 1526 m 1,0,-1
 915 1526 l 1,1,-1
 915 1378 l 1,2,-1
 317 1378 l 1,3,-1
 317 1526 l 1,0,-1
256 1120 m 1,4,-1
 727 1120 l 1,5,-1
 727 143 l 1,6,-1
 1092 143 l 1,7,-1
 1092 0 l 1,8,-1
 178 0 l 1,9,-1
 178 143 l 1,10,-1
 543 143 l 1,11,-1
 543 977 l 1,12,-1
 256 977 l 1,13,-1
 256 1120 l 1,4,-1
EndSplineSet
Ligature2: "<27,0> Canonical Decomposition lookup 2 subtable" i uni0304
EndChar

StartChar: Ibreve
Encoding: 300 300 238
Width: 1233
Flags: W
LayerCount: 2
Fore
SplineSet
302 1901 m 1,0,-1
 421 1901 l 1,1,2
 433 1847 433 1847 483 1818.5 c 128,-1,3
 533 1790 533 1790 615 1790 c 0,4,5
 698 1790 698 1790 746.5 1817.5 c 128,-1,6
 795 1845 795 1845 810 1901 c 1,7,-1
 929 1901 l 1,8,9
 918 1782 918 1782 838.5 1720.5 c 128,-1,10
 759 1659 759 1659 615 1659 c 256,11,12
 471 1659 471 1659 392 1720 c 128,-1,13
 313 1781 313 1781 302 1901 c 1,0,-1
201 1493 m 1,14,-1
 1030 1493 l 1,15,-1
 1030 1323 l 1,16,-1
 717 1323 l 1,17,-1
 717 170 l 1,18,-1
 1030 170 l 1,19,-1
 1030 0 l 1,20,-1
 201 0 l 1,21,-1
 201 170 l 1,22,-1
 514 170 l 1,23,-1
 514 1323 l 1,24,-1
 201 1323 l 1,25,-1
 201 1493 l 1,14,-1
EndSplineSet
Ligature2: "<27,0> Canonical Decomposition lookup 2 subtable" I uni0306
EndChar

StartChar: ibreve
Encoding: 301 301 239
Width: 1233
Flags: W
LayerCount: 2
Fore
SplineSet
303 1608 m 1,0,-1
 422 1608 l 1,1,2
 433 1532 433 1532 481 1495 c 128,-1,3
 529 1458 529 1458 616 1458 c 0,4,5
 701 1458 701 1458 749 1495 c 128,-1,6
 797 1532 797 1532 811 1608 c 1,7,-1
 930 1608 l 1,8,9
 919 1465 919 1465 840 1393 c 128,-1,10
 761 1321 761 1321 616 1321 c 0,11,12
 472 1321 472 1321 393 1393 c 128,-1,13
 314 1465 314 1465 303 1608 c 1,0,-1
256 1120 m 1,14,-1
 727 1120 l 1,15,-1
 727 143 l 1,16,-1
 1092 143 l 1,17,-1
 1092 0 l 1,18,-1
 178 0 l 1,19,-1
 178 143 l 1,20,-1
 543 143 l 1,21,-1
 543 977 l 1,22,-1
 256 977 l 1,23,-1
 256 1120 l 1,14,-1
EndSplineSet
Ligature2: "<27,0> Canonical Decomposition lookup 2 subtable" i uni0306
EndChar

StartChar: Iogonek
Encoding: 302 302 240
Width: 1233
Flags: W
LayerCount: 2
Fore
SplineSet
201 1493 m 1,0,-1
 1030 1493 l 1,1,-1
 1030 1323 l 1,2,-1
 717 1323 l 1,3,-1
 717 170 l 1,4,-1
 1030 170 l 1,5,-1
 1030 0 l 1,6,-1
 201 0 l 1,7,-1
 201 170 l 1,8,-1
 514 170 l 1,9,-1
 514 1323 l 1,10,-1
 201 1323 l 1,11,-1
 201 1493 l 1,0,-1
598 0 m 1,12,-1
 717 0 l 1,13,14
 672 -61 672 -61 650.5 -105 c 128,-1,15
 629 -149 629 -149 629 -180 c 0,16,17
 629 -226 629 -226 656.5 -249 c 128,-1,18
 684 -272 684 -272 738 -272 c 0,19,20
 770 -272 770 -272 801 -264.5 c 128,-1,21
 832 -257 832 -257 863 -242 c 1,22,-1
 863 -375 l 1,23,24
 825 -385 825 -385 791 -390 c 128,-1,25
 757 -395 757 -395 727 -395 c 0,26,27
 605 -395 605 -395 547.5 -351.5 c 128,-1,28
 490 -308 490 -308 490 -215 c 0,29,30
 490 -167 490 -167 516.5 -114.5 c 128,-1,31
 543 -62 543 -62 598 0 c 1,12,-1
EndSplineSet
Ligature2: "<27,0> Canonical Decomposition lookup 2 subtable" I uni0328
EndChar

StartChar: iogonek
Encoding: 303 303 241
Width: 1233
Flags: W
LayerCount: 2
Fore
SplineSet
316 1116 m 1,0,-1
 787 1116 l 1,1,-1
 787 143 l 1,2,-1
 1152 143 l 1,3,-1
 1152 0 l 1,4,-1
 238 0 l 1,5,-1
 238 143 l 1,6,-1
 603 143 l 1,7,-1
 603 973 l 1,8,-1
 316 973 l 1,9,-1
 316 1116 l 1,0,-1
603 1551 m 1,10,-1
 787 1551 l 1,11,-1
 787 1319 l 1,12,-1
 603 1319 l 1,13,-1
 603 1551 l 1,10,-1
608 0 m 1,14,-1
 727 0 l 1,15,16
 682 -61 682 -61 660.5 -105 c 128,-1,17
 639 -149 639 -149 639 -180 c 0,18,19
 639 -226 639 -226 666.5 -249 c 128,-1,20
 694 -272 694 -272 748 -272 c 0,21,22
 780 -272 780 -272 811 -264.5 c 128,-1,23
 842 -257 842 -257 873 -242 c 1,24,-1
 873 -375 l 1,25,26
 835 -385 835 -385 801 -390 c 128,-1,27
 767 -395 767 -395 737 -395 c 0,28,29
 615 -395 615 -395 557.5 -351.5 c 128,-1,30
 500 -308 500 -308 500 -215 c 0,31,32
 500 -167 500 -167 526.5 -114.5 c 128,-1,33
 553 -62 553 -62 608 0 c 1,14,-1
EndSplineSet
Ligature2: "<27,0> Canonical Decomposition lookup 2 subtable" i uni0328
EndChar

StartChar: Idotaccent
Encoding: 304 304 242
Width: 1233
Flags: W
LayerCount: 2
Fore
SplineSet
513 1872 m 1,0,-1
 718 1872 l 1,1,-1
 718 1667 l 1,2,-1
 513 1667 l 1,3,-1
 513 1872 l 1,0,-1
201 1493 m 1,4,-1
 1030 1493 l 1,5,-1
 1030 1323 l 1,6,-1
 717 1323 l 1,7,-1
 717 170 l 1,8,-1
 1030 170 l 1,9,-1
 1030 0 l 1,10,-1
 201 0 l 1,11,-1
 201 170 l 1,12,-1
 514 170 l 1,13,-1
 514 1323 l 1,14,-1
 201 1323 l 1,15,-1
 201 1493 l 1,4,-1
EndSplineSet
Ligature2: "<27,0> Canonical Decomposition lookup 2 subtable" I uni0307
EndChar

StartChar: dotlessi
Encoding: 305 305 243
Width: 1233
Flags: W
LayerCount: 2
Fore
SplineSet
256 1120 m 1,0,-1
 727 1120 l 1,1,-1
 727 143 l 1,2,-1
 1092 143 l 1,3,-1
 1092 0 l 1,4,-1
 178 0 l 1,5,-1
 178 143 l 1,6,-1
 543 143 l 1,7,-1
 543 977 l 1,8,-1
 256 977 l 1,9,-1
 256 1120 l 1,0,-1
EndSplineSet
EndChar

StartChar: IJ
Encoding: 306 306 244
Width: 1233
Flags: W
LayerCount: 2
Fore
SplineSet
652 64 m 1,0,-1
 652 300 l 1,1,2
 713 219 713 219 779 178.5 c 128,-1,3
 845 138 845 138 916 138 c 0,4,5
 1013 138 1013 138 1052 212 c 0,6,7
 1090 287 1090 287 1090 490 c 2,8,-1
 1090 1326 l 1,9,-1
 831 1326 l 1,10,-1
 831 1493 l 1,11,-1
 1228 1493 l 1,12,-1
 1228 489 l 2,13,14
 1228 208 1228 208 1156 91 c 256,15,16
 1084 -26 1084 -26 916 -26 c 0,17,18
 851 -26 851 -26 786 -4 c 0,19,20
 722 18 722 18 652 64 c 1,0,-1
-1 1493 m 1,21,-1
 604 1493 l 1,22,-1
 604 1323 l 1,23,-1
 376 1323 l 1,24,-1
 376 170 l 1,25,-1
 604 170 l 1,26,-1
 604 0 l 1,27,-1
 -1 0 l 1,28,-1
 -1 170 l 1,29,-1
 227 170 l 1,30,-1
 227 1323 l 1,31,-1
 -1 1323 l 1,32,-1
 -1 1493 l 1,21,-1
EndSplineSet
EndChar

StartChar: ij
Encoding: 307 307 245
Width: 1233
Flags: W
LayerCount: 2
Fore
SplineSet
978 -31 m 2,0,-1
 978 966 l 1,1,-1
 661 966 l 1,2,-1
 661 1109 l 1,3,-1
 1162 1109 l 1,4,-1
 1162 -31 l 2,5,6
 1162 -226 1162 -226 1072.5 -331.5 c 128,-1,7
 983 -437 983 -437 818 -437 c 2,8,-1
 564 -437 l 1,9,-1
 564 -281 l 1,10,-1
 798 -281 l 2,11,12
 888 -281 888 -281 933 -218.5 c 128,-1,13
 978 -156 978 -156 978 -31 c 2,0,-1
978 1556 m 1,14,-1
 1162 1556 l 1,15,-1
 1162 1312 l 1,16,-1
 978 1312 l 1,17,-1
 978 1556 l 1,14,-1
59 1120 m 1,18,-1
 445 1120 l 1,19,-1
 445 143 l 1,20,-1
 745 143 l 1,21,-1
 745 0 l 1,22,-1
 -5 0 l 1,23,-1
 -5 143 l 1,24,-1
 294 143 l 1,25,-1
 294 977 l 1,26,-1
 59 977 l 1,27,-1
 59 1120 l 1,18,-1
294 1556 m 1,28,-1
 445 1556 l 1,29,-1
 445 1323 l 1,30,-1
 294 1323 l 1,31,-1
 294 1556 l 1,28,-1
EndSplineSet
EndChar

StartChar: Jcircumflex
Encoding: 308 308 246
Width: 1233
Flags: W
LayerCount: 2
Fore
SplineSet
570 1901 m 1,0,-1
 759 1901 l 1,1,-1
 970 1635 l 1,2,-1
 830 1635 l 1,3,-1
 664 1813 l 1,4,-1
 499 1635 l 1,5,-1
 359 1635 l 1,6,-1
 570 1901 l 1,0,-1
109 61 m 1,7,-1
 109 297 l 1,8,9
 200 216 200 216 297 175.5 c 128,-1,10
 394 135 394 135 498 135 c 0,11,12
 641 135 641 135 697.5 209.5 c 128,-1,13
 754 284 754 284 754 487 c 2,14,-1
 754 1323 l 1,15,-1
 373 1323 l 1,16,-1
 373 1493 l 1,17,-1
 956 1493 l 1,18,-1
 956 487 l 2,19,20
 956 205 956 205 850.5 88 c 128,-1,21
 745 -29 745 -29 498 -29 c 0,22,23
 402 -29 402 -29 307 -7 c 128,-1,24
 212 15 212 15 109 61 c 1,7,-1
EndSplineSet
Ligature2: "<27,0> Canonical Decomposition lookup 2 subtable" J uni0302
EndChar

StartChar: jcircumflex
Encoding: 309 309 247
Width: 1233
Flags: W
LayerCount: 2
Fore
SplineSet
543 1638 m 1,0,-1
 690 1638 l 1,1,-1
 936 1262 l 1,2,-1
 797 1262 l 1,3,-1
 616 1507 l 1,4,-1
 436 1262 l 1,5,-1
 297 1262 l 1,6,-1
 543 1638 l 1,0,-1
600 -20 m 2,7,-1
 600 977 l 1,8,-1
 283 977 l 1,9,-1
 283 1120 l 1,10,-1
 784 1120 l 1,11,-1
 784 -20 l 2,12,13
 784 -215 784 -215 694.5 -320.5 c 128,-1,14
 605 -426 605 -426 440 -426 c 2,15,-1
 186 -426 l 1,16,-1
 186 -270 l 1,17,-1
 420 -270 l 2,18,19
 510 -270 510 -270 555 -207.5 c 128,-1,20
 600 -145 600 -145 600 -20 c 2,7,-1
EndSplineSet
Ligature2: "<27,0> Canonical Decomposition lookup 2 subtable" j uni0302
EndChar

StartChar: Kcommaaccent
Encoding: 310 310 248
Width: 1233
Flags: W
LayerCount: 2
Fore
SplineSet
608 -198 m 1,0,-1
 847 -198 l 1,1,-1
 660 -543 l 1,2,-1
 514 -543 l 1,3,-1
 608 -198 l 1,0,-1
137 1493 m 1,4,-1
 340 1493 l 1,5,-1
 340 829 l 1,6,-1
 971 1493 l 1,7,-1
 1208 1493 l 1,8,-1
 627 883 l 1,9,-1
 1225 0 l 1,10,-1
 981 0 l 1,11,-1
 494 748 l 1,12,-1
 340 584 l 1,13,-1
 340 0 l 1,14,-1
 137 0 l 1,15,-1
 137 1493 l 1,4,-1
EndSplineSet
Ligature2: "<27,0> Canonical Decomposition lookup 2 subtable" K uni0327
EndChar

StartChar: kcommaaccent
Encoding: 311 311 249
Width: 1233
Flags: W
LayerCount: 2
Fore
SplineSet
646 -198 m 1,0,-1
 885 -198 l 1,1,-1
 698 -543 l 1,2,-1
 552 -543 l 1,3,-1
 646 -198 l 1,0,-1
236 1556 m 1,4,-1
 426 1556 l 1,5,-1
 426 655 l 1,6,-1
 909 1120 l 1,7,-1
 1133 1120 l 1,8,-1
 692 698 l 1,9,-1
 1202 0 l 1,10,-1
 977 0 l 1,11,-1
 563 578 l 1,12,-1
 426 449 l 1,13,-1
 426 0 l 1,14,-1
 236 0 l 1,15,-1
 236 1556 l 1,4,-1
EndSplineSet
Ligature2: "<27,0> Canonical Decomposition lookup 2 subtable" k uni0327
EndChar

StartChar: kgreenlandic
Encoding: 312 312 250
Width: 1233
Flags: W
LayerCount: 2
Fore
SplineSet
236 1120 m 1,0,-1
 426 1120 l 1,1,-1
 426 655 l 1,2,-1
 909 1120 l 1,3,-1
 1133 1120 l 1,4,-1
 692 698 l 1,5,-1
 1202 0 l 1,6,-1
 977 0 l 1,7,-1
 563 578 l 1,8,-1
 426 449 l 1,9,-1
 426 0 l 1,10,-1
 236 0 l 1,11,-1
 236 1120 l 1,0,-1
EndSplineSet
EndChar

StartChar: Lacute
Encoding: 313 313 251
Width: 1233
Flags: W
LayerCount: 2
Fore
SplineSet
398 1900 m 1,0,-1
 584 1900 l 1,1,-1
 355 1636 l 1,2,-1
 201 1636 l 1,3,-1
 398 1900 l 1,0,-1
215 1493 m 1,4,-1
 418 1493 l 1,5,-1
 418 170 l 1,6,-1
 1139 170 l 1,7,-1
 1139 0 l 1,8,-1
 215 0 l 1,9,-1
 215 1493 l 1,4,-1
EndSplineSet
Ligature2: "<27,0> Canonical Decomposition lookup 2 subtable" L acutecomb
EndChar

StartChar: lacute
Encoding: 314 314 252
Width: 1233
Flags: W
LayerCount: 2
Fore
SplineSet
578 1900 m 1,0,-1
 764 1900 l 1,1,-1
 535 1636 l 1,2,-1
 381 1636 l 1,3,-1
 578 1900 l 1,0,-1
719 405 m 2,4,5
 719 281 719 281 764.5 218 c 128,-1,6
 810 155 810 155 899 155 c 2,7,-1
 1114 155 l 1,8,-1
 1114 0 l 1,9,-1
 881 0 l 2,10,11
 716 0 716 0 625.5 105.5 c 128,-1,12
 535 211 535 211 535 405 c 2,13,-1
 535 1418 l 1,14,-1
 240 1418 l 1,15,-1
 240 1562 l 1,16,-1
 719 1562 l 1,17,-1
 719 405 l 2,4,5
EndSplineSet
Ligature2: "<27,0> Canonical Decomposition lookup 2 subtable" l acutecomb
EndChar

StartChar: Lcommaaccent
Encoding: 315 315 253
Width: 1233
Flags: W
LayerCount: 2
Fore
SplineSet
604 -198 m 1,0,-1
 843 -198 l 1,1,-1
 656 -543 l 1,2,-1
 510 -543 l 1,3,-1
 604 -198 l 1,0,-1
215 1493 m 1,4,-1
 418 1493 l 1,5,-1
 418 170 l 1,6,-1
 1139 170 l 1,7,-1
 1139 0 l 1,8,-1
 215 0 l 1,9,-1
 215 1493 l 1,4,-1
EndSplineSet
Ligature2: "<27,0> Canonical Decomposition lookup 2 subtable" L uni0327
EndChar

StartChar: lcommaaccent
Encoding: 316 316 254
Width: 1233
Flags: W
LayerCount: 2
Fore
SplineSet
498 -198 m 1,0,-1
 737 -198 l 1,1,-1
 550 -543 l 1,2,-1
 404 -543 l 1,3,-1
 498 -198 l 1,0,-1
719 405 m 2,4,5
 719 281 719 281 764.5 218 c 128,-1,6
 810 155 810 155 899 155 c 2,7,-1
 1114 155 l 1,8,-1
 1114 0 l 1,9,-1
 881 0 l 2,10,11
 716 0 716 0 625.5 105.5 c 128,-1,12
 535 211 535 211 535 405 c 2,13,-1
 535 1418 l 1,14,-1
 240 1418 l 1,15,-1
 240 1562 l 1,16,-1
 719 1562 l 1,17,-1
 719 405 l 2,4,5
EndSplineSet
Ligature2: "<27,0> Canonical Decomposition lookup 2 subtable" l uni0327
EndChar

StartChar: Lcaron
Encoding: 317 317 255
Width: 1233
Flags: W
LayerCount: 2
Fore
SplineSet
718 1492 m 1,0,-1
 916 1492 l 1,1,-1
 803 1116 l 1,2,-1
 649 1116 l 1,3,-1
 718 1492 l 1,0,-1
215 1493 m 1,4,-1
 418 1493 l 1,5,-1
 418 170 l 1,6,-1
 1139 170 l 1,7,-1
 1139 0 l 1,8,-1
 215 0 l 1,9,-1
 215 1493 l 1,4,-1
EndSplineSet
Ligature2: "<27,0> Canonical Decomposition lookup 2 subtable" L uni030C
EndChar

StartChar: lcaron
Encoding: 318 318 256
Width: 1233
Flags: W
LayerCount: 2
Fore
SplineSet
960 1568 m 1,0,-1
 1158 1568 l 1,1,-1
 1045 1192 l 1,2,-1
 891 1192 l 1,3,-1
 960 1568 l 1,0,-1
719 405 m 2,4,5
 719 281 719 281 764.5 218 c 128,-1,6
 810 155 810 155 899 155 c 2,7,-1
 1114 155 l 1,8,-1
 1114 0 l 1,9,-1
 881 0 l 2,10,11
 716 0 716 0 625.5 105.5 c 128,-1,12
 535 211 535 211 535 405 c 2,13,-1
 535 1418 l 1,14,-1
 240 1418 l 1,15,-1
 240 1562 l 1,16,-1
 719 1562 l 1,17,-1
 719 405 l 2,4,5
EndSplineSet
Ligature2: "<27,0> Canonical Decomposition lookup 2 subtable" l uni030C
EndChar

StartChar: Ldot
Encoding: 319 319 257
Width: 1233
Flags: W
LayerCount: 2
Fore
SplineSet
841 998 m 1,0,-1
 1093 998 l 1,1,-1
 1093 693 l 1,2,-1
 841 693 l 1,3,-1
 841 998 l 1,0,-1
215 1493 m 1,4,-1
 418 1493 l 1,5,-1
 418 170 l 1,6,-1
 1139 170 l 1,7,-1
 1139 0 l 1,8,-1
 215 0 l 1,9,-1
 215 1493 l 1,4,-1
EndSplineSet
EndChar

StartChar: ldot
Encoding: 320 320 258
Width: 1233
Flags: W
LayerCount: 2
Fore
SplineSet
960 1008 m 1,0,-1
 1212 1008 l 1,1,-1
 1212 703 l 1,2,-1
 960 703 l 1,3,-1
 960 1008 l 1,0,-1
719 405 m 2,4,5
 719 281 719 281 764.5 218 c 128,-1,6
 810 155 810 155 899 155 c 2,7,-1
 1114 155 l 1,8,-1
 1114 0 l 1,9,-1
 881 0 l 2,10,11
 716 0 716 0 625.5 105.5 c 128,-1,12
 535 211 535 211 535 405 c 2,13,-1
 535 1418 l 1,14,-1
 240 1418 l 1,15,-1
 240 1562 l 1,16,-1
 719 1562 l 1,17,-1
 719 405 l 2,4,5
EndSplineSet
EndChar

StartChar: Lslash
Encoding: 321 321 259
Width: 1233
Flags: W
LayerCount: 2
Fore
SplineSet
215 1493 m 1,0,-1
 418 1493 l 1,1,-1
 418 877 l 1,2,-1
 733 1096 l 1,3,-1
 811 985 l 1,4,-1
 418 711 l 1,5,-1
 418 170 l 1,6,-1
 1139 170 l 1,7,-1
 1139 0 l 1,8,-1
 215 0 l 1,9,-1
 215 571 l 1,10,-1
 70 465 l 1,11,-1
 -10 575 l 1,12,-1
 215 733 l 1,13,-1
 215 1493 l 1,0,-1
EndSplineSet
EndChar

StartChar: lslash
Encoding: 322 322 260
Width: 1233
Flags: W
LayerCount: 2
Fore
SplineSet
639 406 m 2,0,1
 639 282 639 282 684.5 219 c 128,-1,2
 730 156 730 156 819 156 c 2,3,-1
 1034 156 l 1,4,-1
 1034 0 l 1,5,-1
 801 0 l 2,6,7
 636 0 636 0 545.5 106 c 128,-1,8
 455 212 455 212 455 406 c 2,9,-1
 455 698 l 1,10,-1
 156 489 l 1,11,-1
 76 600 l 1,12,-1
 455 864 l 1,13,-1
 455 1423 l 1,14,-1
 160 1423 l 1,15,-1
 160 1567 l 1,16,-1
 639 1567 l 1,17,-1
 639 989 l 1,18,-1
 954 1208 l 1,19,-1
 1034 1098 l 1,20,-1
 639 823 l 1,21,-1
 639 406 l 2,0,1
EndSplineSet
EndChar

StartChar: Nacute
Encoding: 323 323 261
Width: 1233
Flags: W
LayerCount: 2
Fore
SplineSet
705 1899 m 1,0,-1
 891 1899 l 1,1,-1
 662 1635 l 1,2,-1
 508 1635 l 1,3,-1
 705 1899 l 1,0,-1
19 1488 m 1,4,-1
 295 1488 l 1,5,-1
 879 263 l 1,6,-1
 879 1488 l 1,7,-1
 1094 1488 l 1,8,-1
 1094 0 l 1,9,-1
 818 0 l 1,10,-1
 234 1225 l 1,11,-1
 234 0 l 1,12,-1
 19 0 l 1,13,-1
 19 1488 l 1,4,-1
EndSplineSet
Ligature2: "<27,0> Canonical Decomposition lookup 2 subtable" N acutecomb
EndChar

StartChar: nacute
Encoding: 324 324 262
Width: 1233
Flags: W
LayerCount: 2
Fore
SplineSet
776 1645 m 1,0,-1
 974 1645 l 1,1,-1
 649 1269 l 1,2,-1
 495 1269 l 1,3,-1
 776 1645 l 1,0,-1
1051 694 m 2,4,-1
 1051 0 l 1,5,-1
 866 0 l 1,6,-1
 866 694 l 2,7,8
 866 845 866 845 813 916 c 128,-1,9
 760 987 760 987 647 987 c 0,10,11
 518 987 518 987 448.5 895.5 c 128,-1,12
 379 804 379 804 379 633 c 2,13,-1
 379 0 l 1,14,-1
 195 0 l 1,15,-1
 195 1120 l 1,16,-1
 379 1120 l 1,17,-1
 379 952 l 1,18,19
 428 1048 428 1048 512 1097.5 c 128,-1,20
 596 1147 596 1147 711 1147 c 0,21,22
 882 1147 882 1147 966.5 1034.5 c 128,-1,23
 1051 922 1051 922 1051 694 c 2,4,-1
EndSplineSet
Ligature2: "<27,0> Canonical Decomposition lookup 2 subtable" n acutecomb
EndChar

